<?xml version="1.0" encoding="utf-8" standalone="no"?>
<!DOCTYPE svg PUBLIC "-//W3C//DTD SVG 1.1//EN"
  "http://www.w3.org/Graphics/SVG/1.1/DTD/svg11.dtd">
<!-- Created with matplotlib (https://matplotlib.org/) -->
<svg height="432pt" version="1.1" viewBox="0 0 720 432" width="720pt" xmlns="http://www.w3.org/2000/svg" xmlns:xlink="http://www.w3.org/1999/xlink">
 <metadata>
  <rdf:RDF xmlns:cc="http://creativecommons.org/ns#" xmlns:dc="http://purl.org/dc/elements/1.1/" xmlns:rdf="http://www.w3.org/1999/02/22-rdf-syntax-ns#">
   <cc:Work>
    <dc:type rdf:resource="http://purl.org/dc/dcmitype/StillImage"/>
    <dc:date>2021-04-27T10:17:11.156689</dc:date>
    <dc:format>image/svg+xml</dc:format>
    <dc:creator>
     <cc:Agent>
      <dc:title>Matplotlib v3.3.4, https://matplotlib.org/</dc:title>
     </cc:Agent>
    </dc:creator>
   </cc:Work>
  </rdf:RDF>
 </metadata>
 <defs>
  <style type="text/css">*{stroke-linecap:butt;stroke-linejoin:round;}</style>
 </defs>
 <g id="figure_1">
  <g id="patch_1">
   <path d="M 0 432 
L 720 432 
L 720 0 
L 0 0 
z
" style="fill:#ffffff;"/>
  </g>
  <g id="axes_1">
   <g id="patch_2">
    <path d="M 90 378 
L 648 378 
L 648 64.8 
L 90 64.8 
z
" style="fill:#ffffff;"/>
   </g>
   <g id="matplotlib.axis_1">
    <g id="xtick_1">
     <g id="text_1">
      <!-- Week 1 -->
      <g style="fill:#262626;" transform="translate(96.814886 395.373594)scale(0.11 -0.11)">
       <defs>
        <path d="M 20.21875 0 
L 1.21875 71.578125 
L 10.9375 71.578125 
L 21.828125 24.65625 
Q 23.578125 17.28125 24.859375 10.015625 
Q 27.59375 21.484375 28.078125 23.25 
L 41.703125 71.578125 
L 53.125 71.578125 
L 63.375 35.359375 
Q 67.234375 21.875 68.953125 10.015625 
Q 70.3125 16.796875 72.515625 25.59375 
L 83.734375 71.578125 
L 93.265625 71.578125 
L 73.640625 0 
L 64.5 0 
L 49.421875 54.546875 
Q 47.515625 61.375 47.171875 62.9375 
Q 46.046875 58.015625 45.0625 54.546875 
L 29.890625 0 
z
" id="ArialMT-87"/>
        <path d="M 42.09375 16.703125 
L 51.171875 15.578125 
Q 49.03125 7.625 43.21875 3.21875 
Q 37.40625 -1.171875 28.375 -1.171875 
Q 17 -1.171875 10.328125 5.828125 
Q 3.65625 12.84375 3.65625 25.484375 
Q 3.65625 38.578125 10.390625 45.796875 
Q 17.140625 53.03125 27.875 53.03125 
Q 38.28125 53.03125 44.875 45.953125 
Q 51.46875 38.875 51.46875 26.03125 
Q 51.46875 25.25 51.421875 23.6875 
L 12.75 23.6875 
Q 13.234375 15.140625 17.578125 10.59375 
Q 21.921875 6.0625 28.421875 6.0625 
Q 33.25 6.0625 36.671875 8.59375 
Q 40.09375 11.140625 42.09375 16.703125 
z
M 13.234375 30.90625 
L 42.1875 30.90625 
Q 41.609375 37.453125 38.875 40.71875 
Q 34.671875 45.796875 27.984375 45.796875 
Q 21.921875 45.796875 17.796875 41.75 
Q 13.671875 37.703125 13.234375 30.90625 
z
" id="ArialMT-101"/>
        <path d="M 6.640625 0 
L 6.640625 71.578125 
L 15.4375 71.578125 
L 15.4375 30.765625 
L 36.234375 51.859375 
L 47.609375 51.859375 
L 27.78125 32.625 
L 49.609375 0 
L 38.765625 0 
L 21.625 26.515625 
L 15.4375 20.5625 
L 15.4375 0 
z
" id="ArialMT-107"/>
        <path id="ArialMT-32"/>
        <path d="M 37.25 0 
L 28.46875 0 
L 28.46875 56 
Q 25.296875 52.984375 20.140625 49.953125 
Q 14.984375 46.921875 10.890625 45.40625 
L 10.890625 53.90625 
Q 18.265625 57.375 23.78125 62.296875 
Q 29.296875 67.234375 31.59375 71.875 
L 37.25 71.875 
z
" id="ArialMT-49"/>
       </defs>
       <use xlink:href="#ArialMT-87"/>
       <use x="92.634766" xlink:href="#ArialMT-101"/>
       <use x="148.25" xlink:href="#ArialMT-101"/>
       <use x="203.865234" xlink:href="#ArialMT-107"/>
       <use x="253.865234" xlink:href="#ArialMT-32"/>
       <use x="281.648438" xlink:href="#ArialMT-49"/>
      </g>
     </g>
    </g>
    <g id="xtick_2">
     <g id="text_2">
      <!-- Week 2 -->
      <g style="fill:#262626;" transform="translate(168.55767 395.373594)scale(0.11 -0.11)">
       <defs>
        <path d="M 50.34375 8.453125 
L 50.34375 0 
L 3.03125 0 
Q 2.9375 3.171875 4.046875 6.109375 
Q 5.859375 10.9375 9.828125 15.625 
Q 13.8125 20.3125 21.34375 26.46875 
Q 33.015625 36.03125 37.109375 41.625 
Q 41.21875 47.21875 41.21875 52.203125 
Q 41.21875 57.421875 37.46875 61 
Q 33.734375 64.59375 27.734375 64.59375 
Q 21.390625 64.59375 17.578125 60.78125 
Q 13.765625 56.984375 13.71875 50.25 
L 4.6875 51.171875 
Q 5.609375 61.28125 11.65625 66.578125 
Q 17.71875 71.875 27.9375 71.875 
Q 38.234375 71.875 44.234375 66.15625 
Q 50.25 60.453125 50.25 52 
Q 50.25 47.703125 48.484375 43.546875 
Q 46.734375 39.40625 42.65625 34.8125 
Q 38.578125 30.21875 29.109375 22.21875 
Q 21.1875 15.578125 18.9375 13.203125 
Q 16.703125 10.84375 15.234375 8.453125 
z
" id="ArialMT-50"/>
       </defs>
       <use xlink:href="#ArialMT-87"/>
       <use x="92.634766" xlink:href="#ArialMT-101"/>
       <use x="148.25" xlink:href="#ArialMT-101"/>
       <use x="203.865234" xlink:href="#ArialMT-107"/>
       <use x="253.865234" xlink:href="#ArialMT-32"/>
       <use x="281.648438" xlink:href="#ArialMT-50"/>
      </g>
     </g>
    </g>
    <g id="xtick_3">
     <g id="text_3">
      <!-- Week 3 -->
      <g style="fill:#262626;" transform="translate(240.300454 395.373594)scale(0.11 -0.11)">
       <defs>
        <path d="M 4.203125 18.890625 
L 12.984375 20.0625 
Q 14.5 12.59375 18.140625 9.296875 
Q 21.78125 6 27 6 
Q 33.203125 6 37.46875 10.296875 
Q 41.75 14.59375 41.75 20.953125 
Q 41.75 27 37.796875 30.921875 
Q 33.84375 34.859375 27.734375 34.859375 
Q 25.25 34.859375 21.53125 33.890625 
L 22.515625 41.609375 
Q 23.390625 41.5 23.921875 41.5 
Q 29.546875 41.5 34.03125 44.421875 
Q 38.53125 47.359375 38.53125 53.46875 
Q 38.53125 58.296875 35.25 61.46875 
Q 31.984375 64.65625 26.8125 64.65625 
Q 21.6875 64.65625 18.265625 61.421875 
Q 14.84375 58.203125 13.875 51.765625 
L 5.078125 53.328125 
Q 6.6875 62.15625 12.390625 67.015625 
Q 18.109375 71.875 26.609375 71.875 
Q 32.46875 71.875 37.390625 69.359375 
Q 42.328125 66.84375 44.9375 62.5 
Q 47.5625 58.15625 47.5625 53.265625 
Q 47.5625 48.640625 45.0625 44.828125 
Q 42.578125 41.015625 37.703125 38.765625 
Q 44.046875 37.3125 47.5625 32.6875 
Q 51.078125 28.078125 51.078125 21.140625 
Q 51.078125 11.765625 44.234375 5.25 
Q 37.40625 -1.265625 26.953125 -1.265625 
Q 17.53125 -1.265625 11.296875 4.34375 
Q 5.078125 9.96875 4.203125 18.890625 
z
" id="ArialMT-51"/>
       </defs>
       <use xlink:href="#ArialMT-87"/>
       <use x="92.634766" xlink:href="#ArialMT-101"/>
       <use x="148.25" xlink:href="#ArialMT-101"/>
       <use x="203.865234" xlink:href="#ArialMT-107"/>
       <use x="253.865234" xlink:href="#ArialMT-32"/>
       <use x="281.648438" xlink:href="#ArialMT-51"/>
      </g>
     </g>
    </g>
    <g id="xtick_4">
     <g id="text_4">
      <!-- Week 4 -->
      <g style="fill:#262626;" transform="translate(312.043238 395.373594)scale(0.11 -0.11)">
       <defs>
        <path d="M 32.328125 0 
L 32.328125 17.140625 
L 1.265625 17.140625 
L 1.265625 25.203125 
L 33.9375 71.578125 
L 41.109375 71.578125 
L 41.109375 25.203125 
L 50.78125 25.203125 
L 50.78125 17.140625 
L 41.109375 17.140625 
L 41.109375 0 
z
M 32.328125 25.203125 
L 32.328125 57.46875 
L 9.90625 25.203125 
z
" id="ArialMT-52"/>
       </defs>
       <use xlink:href="#ArialMT-87"/>
       <use x="92.634766" xlink:href="#ArialMT-101"/>
       <use x="148.25" xlink:href="#ArialMT-101"/>
       <use x="203.865234" xlink:href="#ArialMT-107"/>
       <use x="253.865234" xlink:href="#ArialMT-32"/>
       <use x="281.648438" xlink:href="#ArialMT-52"/>
      </g>
     </g>
    </g>
    <g id="xtick_5">
     <g id="text_5">
      <!-- Week 5 -->
      <g style="fill:#262626;" transform="translate(383.786022 395.373594)scale(0.11 -0.11)">
       <defs>
        <path d="M 4.15625 18.75 
L 13.375 19.53125 
Q 14.40625 12.796875 18.140625 9.390625 
Q 21.875 6 27.15625 6 
Q 33.5 6 37.890625 10.78125 
Q 42.28125 15.578125 42.28125 23.484375 
Q 42.28125 31 38.0625 35.34375 
Q 33.84375 39.703125 27 39.703125 
Q 22.75 39.703125 19.328125 37.765625 
Q 15.921875 35.84375 13.96875 32.765625 
L 5.71875 33.84375 
L 12.640625 70.609375 
L 48.25 70.609375 
L 48.25 62.203125 
L 19.671875 62.203125 
L 15.828125 42.96875 
Q 22.265625 47.46875 29.34375 47.46875 
Q 38.71875 47.46875 45.15625 40.96875 
Q 51.609375 34.46875 51.609375 24.265625 
Q 51.609375 14.546875 45.953125 7.46875 
Q 39.0625 -1.21875 27.15625 -1.21875 
Q 17.390625 -1.21875 11.203125 4.25 
Q 5.03125 9.71875 4.15625 18.75 
z
" id="ArialMT-53"/>
       </defs>
       <use xlink:href="#ArialMT-87"/>
       <use x="92.634766" xlink:href="#ArialMT-101"/>
       <use x="148.25" xlink:href="#ArialMT-101"/>
       <use x="203.865234" xlink:href="#ArialMT-107"/>
       <use x="253.865234" xlink:href="#ArialMT-32"/>
       <use x="281.648438" xlink:href="#ArialMT-53"/>
      </g>
     </g>
    </g>
    <g id="xtick_6">
     <g id="text_6">
      <!-- Week 6 -->
      <g style="fill:#262626;" transform="translate(455.528806 395.373594)scale(0.11 -0.11)">
       <defs>
        <path d="M 49.75 54.046875 
L 41.015625 53.375 
Q 39.84375 58.546875 37.703125 60.890625 
Q 34.125 64.65625 28.90625 64.65625 
Q 24.703125 64.65625 21.53125 62.3125 
Q 17.390625 59.28125 14.984375 53.46875 
Q 12.59375 47.65625 12.5 36.921875 
Q 15.671875 41.75 20.265625 44.09375 
Q 24.859375 46.4375 29.890625 46.4375 
Q 38.671875 46.4375 44.84375 39.96875 
Q 51.03125 33.5 51.03125 23.25 
Q 51.03125 16.5 48.125 10.71875 
Q 45.21875 4.9375 40.140625 1.859375 
Q 35.0625 -1.21875 28.609375 -1.21875 
Q 17.625 -1.21875 10.6875 6.859375 
Q 3.765625 14.9375 3.765625 33.5 
Q 3.765625 54.25 11.421875 63.671875 
Q 18.109375 71.875 29.4375 71.875 
Q 37.890625 71.875 43.28125 67.140625 
Q 48.6875 62.40625 49.75 54.046875 
z
M 13.875 23.1875 
Q 13.875 18.65625 15.796875 14.5 
Q 17.71875 10.359375 21.1875 8.171875 
Q 24.65625 6 28.46875 6 
Q 34.03125 6 38.03125 10.484375 
Q 42.046875 14.984375 42.046875 22.703125 
Q 42.046875 30.125 38.078125 34.390625 
Q 34.125 38.671875 28.125 38.671875 
Q 22.171875 38.671875 18.015625 34.390625 
Q 13.875 30.125 13.875 23.1875 
z
" id="ArialMT-54"/>
       </defs>
       <use xlink:href="#ArialMT-87"/>
       <use x="92.634766" xlink:href="#ArialMT-101"/>
       <use x="148.25" xlink:href="#ArialMT-101"/>
       <use x="203.865234" xlink:href="#ArialMT-107"/>
       <use x="253.865234" xlink:href="#ArialMT-32"/>
       <use x="281.648438" xlink:href="#ArialMT-54"/>
      </g>
     </g>
    </g>
    <g id="xtick_7">
     <g id="text_7">
      <!-- Week 7 -->
      <g style="fill:#262626;" transform="translate(527.27159 395.373594)scale(0.11 -0.11)">
       <defs>
        <path d="M 4.734375 62.203125 
L 4.734375 70.65625 
L 51.078125 70.65625 
L 51.078125 63.8125 
Q 44.234375 56.546875 37.515625 44.484375 
Q 30.8125 32.421875 27.15625 19.671875 
Q 24.515625 10.6875 23.78125 0 
L 14.75 0 
Q 14.890625 8.453125 18.0625 20.40625 
Q 21.234375 32.375 27.171875 43.484375 
Q 33.109375 54.59375 39.796875 62.203125 
z
" id="ArialMT-55"/>
       </defs>
       <use xlink:href="#ArialMT-87"/>
       <use x="92.634766" xlink:href="#ArialMT-101"/>
       <use x="148.25" xlink:href="#ArialMT-101"/>
       <use x="203.865234" xlink:href="#ArialMT-107"/>
       <use x="253.865234" xlink:href="#ArialMT-32"/>
       <use x="281.648438" xlink:href="#ArialMT-55"/>
      </g>
     </g>
    </g>
    <g id="xtick_8">
     <g id="text_8">
      <!-- Week 8 -->
      <g style="fill:#262626;" transform="translate(599.014374 395.373594)scale(0.11 -0.11)">
       <defs>
        <path d="M 17.671875 38.8125 
Q 12.203125 40.828125 9.5625 44.53125 
Q 6.9375 48.25 6.9375 53.421875 
Q 6.9375 61.234375 12.546875 66.546875 
Q 18.171875 71.875 27.484375 71.875 
Q 36.859375 71.875 42.578125 66.421875 
Q 48.296875 60.984375 48.296875 53.171875 
Q 48.296875 48.1875 45.671875 44.5 
Q 43.0625 40.828125 37.75 38.8125 
Q 44.34375 36.671875 47.78125 31.875 
Q 51.21875 27.09375 51.21875 20.453125 
Q 51.21875 11.28125 44.71875 5.03125 
Q 38.234375 -1.21875 27.640625 -1.21875 
Q 17.046875 -1.21875 10.546875 5.046875 
Q 4.046875 11.328125 4.046875 20.703125 
Q 4.046875 27.6875 7.59375 32.390625 
Q 11.140625 37.109375 17.671875 38.8125 
z
M 15.921875 53.71875 
Q 15.921875 48.640625 19.1875 45.40625 
Q 22.46875 42.1875 27.6875 42.1875 
Q 32.765625 42.1875 36.015625 45.375 
Q 39.265625 48.578125 39.265625 53.21875 
Q 39.265625 58.0625 35.90625 61.359375 
Q 32.5625 64.65625 27.59375 64.65625 
Q 22.5625 64.65625 19.234375 61.421875 
Q 15.921875 58.203125 15.921875 53.71875 
z
M 13.09375 20.65625 
Q 13.09375 16.890625 14.875 13.375 
Q 16.65625 9.859375 20.171875 7.921875 
Q 23.6875 6 27.734375 6 
Q 34.03125 6 38.125 10.046875 
Q 42.234375 14.109375 42.234375 20.359375 
Q 42.234375 26.703125 38.015625 30.859375 
Q 33.796875 35.015625 27.4375 35.015625 
Q 21.234375 35.015625 17.15625 30.90625 
Q 13.09375 26.8125 13.09375 20.65625 
z
" id="ArialMT-56"/>
       </defs>
       <use xlink:href="#ArialMT-87"/>
       <use x="92.634766" xlink:href="#ArialMT-101"/>
       <use x="148.25" xlink:href="#ArialMT-101"/>
       <use x="203.865234" xlink:href="#ArialMT-107"/>
       <use x="253.865234" xlink:href="#ArialMT-32"/>
       <use x="281.648438" xlink:href="#ArialMT-56"/>
      </g>
     </g>
    </g>
   </g>
   <g id="matplotlib.axis_2">
    <g id="ytick_1">
     <g id="line2d_1">
      <path clip-path="url(#p12e3995e41)" d="M 90 378 
L 648 378 
" style="fill:none;stroke:#191970;stroke-dasharray:3.7,1.6;stroke-dashoffset:0;stroke-opacity:0.2;"/>
     </g>
     <g id="line2d_2">
      <defs>
       <path d="M 0 0 
L 6 0 
" id="m59f63c8067" style="stroke:#191970;stroke-width:1.25;"/>
      </defs>
      <g>
       <use style="fill:#191970;stroke:#191970;stroke-width:1.25;" x="648" xlink:href="#m59f63c8067" y="378"/>
      </g>
     </g>
     <g id="text_9">
      <!-- 0.0 -->
      <g style="fill:#262626;" transform="translate(657.5 381.936797)scale(0.11 -0.11)">
       <defs>
        <path d="M 4.15625 35.296875 
Q 4.15625 48 6.765625 55.734375 
Q 9.375 63.484375 14.515625 67.671875 
Q 19.671875 71.875 27.484375 71.875 
Q 33.25 71.875 37.59375 69.546875 
Q 41.9375 67.234375 44.765625 62.859375 
Q 47.609375 58.5 49.21875 52.21875 
Q 50.828125 45.953125 50.828125 35.296875 
Q 50.828125 22.703125 48.234375 14.96875 
Q 45.65625 7.234375 40.5 3 
Q 35.359375 -1.21875 27.484375 -1.21875 
Q 17.140625 -1.21875 11.234375 6.203125 
Q 4.15625 15.140625 4.15625 35.296875 
z
M 13.1875 35.296875 
Q 13.1875 17.671875 17.3125 11.828125 
Q 21.4375 6 27.484375 6 
Q 33.546875 6 37.671875 11.859375 
Q 41.796875 17.71875 41.796875 35.296875 
Q 41.796875 52.984375 37.671875 58.78125 
Q 33.546875 64.59375 27.390625 64.59375 
Q 21.34375 64.59375 17.71875 59.46875 
Q 13.1875 52.9375 13.1875 35.296875 
z
" id="ArialMT-48"/>
        <path d="M 9.078125 0 
L 9.078125 10.015625 
L 19.09375 10.015625 
L 19.09375 0 
z
" id="ArialMT-46"/>
       </defs>
       <use xlink:href="#ArialMT-48"/>
       <use x="55.615234" xlink:href="#ArialMT-46"/>
       <use x="83.398438" xlink:href="#ArialMT-48"/>
      </g>
     </g>
    </g>
    <g id="ytick_2">
     <g id="line2d_3">
      <path clip-path="url(#p12e3995e41)" d="M 90 339.361954 
L 648 339.361954 
" style="fill:none;stroke:#191970;stroke-dasharray:3.7,1.6;stroke-dashoffset:0;stroke-opacity:0.2;"/>
     </g>
     <g id="line2d_4">
      <g>
       <use style="fill:#191970;stroke:#191970;stroke-width:1.25;" x="648" xlink:href="#m59f63c8067" y="339.361954"/>
      </g>
     </g>
     <g id="text_10">
      <!-- 2.5 -->
      <g style="fill:#262626;" transform="translate(657.5 343.298751)scale(0.11 -0.11)">
       <use xlink:href="#ArialMT-50"/>
       <use x="55.615234" xlink:href="#ArialMT-46"/>
       <use x="83.398438" xlink:href="#ArialMT-53"/>
      </g>
     </g>
    </g>
    <g id="ytick_3">
     <g id="line2d_5">
      <path clip-path="url(#p12e3995e41)" d="M 90 300.723908 
L 648 300.723908 
" style="fill:none;stroke:#191970;stroke-dasharray:3.7,1.6;stroke-dashoffset:0;stroke-opacity:0.2;"/>
     </g>
     <g id="line2d_6">
      <g>
       <use style="fill:#191970;stroke:#191970;stroke-width:1.25;" x="648" xlink:href="#m59f63c8067" y="300.723908"/>
      </g>
     </g>
     <g id="text_11">
      <!-- 5.0 -->
      <g style="fill:#262626;" transform="translate(657.5 304.660705)scale(0.11 -0.11)">
       <use xlink:href="#ArialMT-53"/>
       <use x="55.615234" xlink:href="#ArialMT-46"/>
       <use x="83.398438" xlink:href="#ArialMT-48"/>
      </g>
     </g>
    </g>
    <g id="ytick_4">
     <g id="line2d_7">
      <path clip-path="url(#p12e3995e41)" d="M 90 262.085862 
L 648 262.085862 
" style="fill:none;stroke:#191970;stroke-dasharray:3.7,1.6;stroke-dashoffset:0;stroke-opacity:0.2;"/>
     </g>
     <g id="line2d_8">
      <g>
       <use style="fill:#191970;stroke:#191970;stroke-width:1.25;" x="648" xlink:href="#m59f63c8067" y="262.085862"/>
      </g>
     </g>
     <g id="text_12">
      <!-- 7.5 -->
      <g style="fill:#262626;" transform="translate(657.5 266.022659)scale(0.11 -0.11)">
       <use xlink:href="#ArialMT-55"/>
       <use x="55.615234" xlink:href="#ArialMT-46"/>
       <use x="83.398438" xlink:href="#ArialMT-53"/>
      </g>
     </g>
    </g>
    <g id="ytick_5">
     <g id="line2d_9">
      <path clip-path="url(#p12e3995e41)" d="M 90 223.447816 
L 648 223.447816 
" style="fill:none;stroke:#191970;stroke-dasharray:3.7,1.6;stroke-dashoffset:0;stroke-opacity:0.2;"/>
     </g>
     <g id="line2d_10">
      <g>
       <use style="fill:#191970;stroke:#191970;stroke-width:1.25;" x="648" xlink:href="#m59f63c8067" y="223.447816"/>
      </g>
     </g>
     <g id="text_13">
      <!-- 10.0 -->
      <g style="fill:#262626;" transform="translate(657.5 227.384613)scale(0.11 -0.11)">
       <use xlink:href="#ArialMT-49"/>
       <use x="55.615234" xlink:href="#ArialMT-48"/>
       <use x="111.230469" xlink:href="#ArialMT-46"/>
       <use x="139.013672" xlink:href="#ArialMT-48"/>
      </g>
     </g>
    </g>
    <g id="ytick_6">
     <g id="line2d_11">
      <path clip-path="url(#p12e3995e41)" d="M 90 184.809771 
L 648 184.809771 
" style="fill:none;stroke:#191970;stroke-dasharray:3.7,1.6;stroke-dashoffset:0;stroke-opacity:0.2;"/>
     </g>
     <g id="line2d_12">
      <g>
       <use style="fill:#191970;stroke:#191970;stroke-width:1.25;" x="648" xlink:href="#m59f63c8067" y="184.809771"/>
      </g>
     </g>
     <g id="text_14">
      <!-- 12.5 -->
      <g style="fill:#262626;" transform="translate(657.5 188.746567)scale(0.11 -0.11)">
       <use xlink:href="#ArialMT-49"/>
       <use x="55.615234" xlink:href="#ArialMT-50"/>
       <use x="111.230469" xlink:href="#ArialMT-46"/>
       <use x="139.013672" xlink:href="#ArialMT-53"/>
      </g>
     </g>
    </g>
    <g id="ytick_7">
     <g id="line2d_13">
      <path clip-path="url(#p12e3995e41)" d="M 90 146.171725 
L 648 146.171725 
" style="fill:none;stroke:#191970;stroke-dasharray:3.7,1.6;stroke-dashoffset:0;stroke-opacity:0.2;"/>
     </g>
     <g id="line2d_14">
      <g>
       <use style="fill:#191970;stroke:#191970;stroke-width:1.25;" x="648" xlink:href="#m59f63c8067" y="146.171725"/>
      </g>
     </g>
     <g id="text_15">
      <!-- 15.0 -->
      <g style="fill:#262626;" transform="translate(657.5 150.108522)scale(0.11 -0.11)">
       <use xlink:href="#ArialMT-49"/>
       <use x="55.615234" xlink:href="#ArialMT-53"/>
       <use x="111.230469" xlink:href="#ArialMT-46"/>
       <use x="139.013672" xlink:href="#ArialMT-48"/>
      </g>
     </g>
    </g>
    <g id="ytick_8">
     <g id="line2d_15">
      <path clip-path="url(#p12e3995e41)" d="M 90 107.533679 
L 648 107.533679 
" style="fill:none;stroke:#191970;stroke-dasharray:3.7,1.6;stroke-dashoffset:0;stroke-opacity:0.2;"/>
     </g>
     <g id="line2d_16">
      <g>
       <use style="fill:#191970;stroke:#191970;stroke-width:1.25;" x="648" xlink:href="#m59f63c8067" y="107.533679"/>
      </g>
     </g>
     <g id="text_16">
      <!-- 17.5 -->
      <g style="fill:#262626;" transform="translate(657.5 111.470476)scale(0.11 -0.11)">
       <use xlink:href="#ArialMT-49"/>
       <use x="55.615234" xlink:href="#ArialMT-55"/>
       <use x="111.230469" xlink:href="#ArialMT-46"/>
       <use x="139.013672" xlink:href="#ArialMT-53"/>
      </g>
     </g>
    </g>
    <g id="ytick_9">
     <g id="line2d_17">
      <path clip-path="url(#p12e3995e41)" d="M 90 68.895633 
L 648 68.895633 
" style="fill:none;stroke:#191970;stroke-dasharray:3.7,1.6;stroke-dashoffset:0;stroke-opacity:0.2;"/>
     </g>
     <g id="line2d_18">
      <g>
       <use style="fill:#191970;stroke:#191970;stroke-width:1.25;" x="648" xlink:href="#m59f63c8067" y="68.895633"/>
      </g>
     </g>
     <g id="text_17">
      <!-- 20.0 -->
      <g style="fill:#262626;" transform="translate(657.5 72.83243)scale(0.11 -0.11)">
       <use xlink:href="#ArialMT-50"/>
       <use x="55.615234" xlink:href="#ArialMT-48"/>
       <use x="111.230469" xlink:href="#ArialMT-46"/>
       <use x="139.013672" xlink:href="#ArialMT-48"/>
      </g>
     </g>
    </g>
    <g id="text_18">
     <!-- Millimeters of rain per day -->
     <g style="fill:#262626;" transform="translate(699.098594 301.5325)rotate(-90)scale(0.14 -0.14)">
      <defs>
       <path d="M 7.421875 0 
L 7.421875 71.578125 
L 21.6875 71.578125 
L 38.625 20.90625 
Q 40.96875 13.8125 42.046875 10.296875 
Q 43.265625 14.203125 45.84375 21.78125 
L 62.984375 71.578125 
L 75.734375 71.578125 
L 75.734375 0 
L 66.609375 0 
L 66.609375 59.90625 
L 45.796875 0 
L 37.25 0 
L 16.546875 60.9375 
L 16.546875 0 
z
" id="ArialMT-77"/>
       <path d="M 6.640625 61.46875 
L 6.640625 71.578125 
L 15.4375 71.578125 
L 15.4375 61.46875 
z
M 6.640625 0 
L 6.640625 51.859375 
L 15.4375 51.859375 
L 15.4375 0 
z
" id="ArialMT-105"/>
       <path d="M 6.390625 0 
L 6.390625 71.578125 
L 15.1875 71.578125 
L 15.1875 0 
z
" id="ArialMT-108"/>
       <path d="M 6.59375 0 
L 6.59375 51.859375 
L 14.453125 51.859375 
L 14.453125 44.578125 
Q 16.890625 48.390625 20.9375 50.703125 
Q 25 53.03125 30.171875 53.03125 
Q 35.9375 53.03125 39.625 50.640625 
Q 43.3125 48.25 44.828125 43.953125 
Q 50.984375 53.03125 60.84375 53.03125 
Q 68.5625 53.03125 72.703125 48.75 
Q 76.859375 44.484375 76.859375 35.59375 
L 76.859375 0 
L 68.109375 0 
L 68.109375 32.671875 
Q 68.109375 37.9375 67.25 40.25 
Q 66.40625 42.578125 64.15625 43.984375 
Q 61.921875 45.40625 58.890625 45.40625 
Q 53.421875 45.40625 49.796875 41.765625 
Q 46.1875 38.140625 46.1875 30.125 
L 46.1875 0 
L 37.40625 0 
L 37.40625 33.6875 
Q 37.40625 39.546875 35.25 42.46875 
Q 33.109375 45.40625 28.21875 45.40625 
Q 24.515625 45.40625 21.359375 43.453125 
Q 18.21875 41.5 16.796875 37.734375 
Q 15.375 33.984375 15.375 26.90625 
L 15.375 0 
z
" id="ArialMT-109"/>
       <path d="M 25.78125 7.859375 
L 27.046875 0.09375 
Q 23.34375 -0.6875 20.40625 -0.6875 
Q 15.625 -0.6875 12.984375 0.828125 
Q 10.359375 2.34375 9.28125 4.8125 
Q 8.203125 7.28125 8.203125 15.1875 
L 8.203125 45.015625 
L 1.765625 45.015625 
L 1.765625 51.859375 
L 8.203125 51.859375 
L 8.203125 64.703125 
L 16.9375 69.96875 
L 16.9375 51.859375 
L 25.78125 51.859375 
L 25.78125 45.015625 
L 16.9375 45.015625 
L 16.9375 14.703125 
Q 16.9375 10.9375 17.40625 9.859375 
Q 17.875 8.796875 18.921875 8.15625 
Q 19.96875 7.515625 21.921875 7.515625 
Q 23.390625 7.515625 25.78125 7.859375 
z
" id="ArialMT-116"/>
       <path d="M 6.5 0 
L 6.5 51.859375 
L 14.40625 51.859375 
L 14.40625 44 
Q 17.4375 49.515625 20 51.265625 
Q 22.5625 53.03125 25.640625 53.03125 
Q 30.078125 53.03125 34.671875 50.203125 
L 31.640625 42.046875 
Q 28.421875 43.953125 25.203125 43.953125 
Q 22.3125 43.953125 20.015625 42.21875 
Q 17.71875 40.484375 16.75 37.40625 
Q 15.28125 32.71875 15.28125 27.15625 
L 15.28125 0 
z
" id="ArialMT-114"/>
       <path d="M 3.078125 15.484375 
L 11.765625 16.84375 
Q 12.5 11.625 15.84375 8.84375 
Q 19.1875 6.0625 25.203125 6.0625 
Q 31.25 6.0625 34.171875 8.515625 
Q 37.109375 10.984375 37.109375 14.3125 
Q 37.109375 17.28125 34.515625 19 
Q 32.71875 20.171875 25.53125 21.96875 
Q 15.875 24.421875 12.140625 26.203125 
Q 8.40625 27.984375 6.46875 31.125 
Q 4.546875 34.28125 4.546875 38.09375 
Q 4.546875 41.546875 6.125 44.5 
Q 7.71875 47.46875 10.453125 49.421875 
Q 12.5 50.921875 16.03125 51.96875 
Q 19.578125 53.03125 23.640625 53.03125 
Q 29.734375 53.03125 34.34375 51.265625 
Q 38.96875 49.515625 41.15625 46.5 
Q 43.359375 43.5 44.1875 38.484375 
L 35.59375 37.3125 
Q 35.015625 41.3125 32.203125 43.546875 
Q 29.390625 45.796875 24.265625 45.796875 
Q 18.21875 45.796875 15.625 43.796875 
Q 13.03125 41.796875 13.03125 39.109375 
Q 13.03125 37.40625 14.109375 36.03125 
Q 15.1875 34.625 17.484375 33.6875 
Q 18.796875 33.203125 25.25 31.453125 
Q 34.578125 28.953125 38.25 27.359375 
Q 41.9375 25.78125 44.03125 22.75 
Q 46.140625 19.734375 46.140625 15.234375 
Q 46.140625 10.84375 43.578125 6.953125 
Q 41.015625 3.078125 36.171875 0.953125 
Q 31.34375 -1.171875 25.25 -1.171875 
Q 15.140625 -1.171875 9.84375 3.03125 
Q 4.546875 7.234375 3.078125 15.484375 
z
" id="ArialMT-115"/>
       <path d="M 3.328125 25.921875 
Q 3.328125 40.328125 11.328125 47.265625 
Q 18.015625 53.03125 27.640625 53.03125 
Q 38.328125 53.03125 45.109375 46.015625 
Q 51.90625 39.015625 51.90625 26.65625 
Q 51.90625 16.65625 48.90625 10.90625 
Q 45.90625 5.171875 40.15625 2 
Q 34.421875 -1.171875 27.640625 -1.171875 
Q 16.75 -1.171875 10.03125 5.8125 
Q 3.328125 12.796875 3.328125 25.921875 
z
M 12.359375 25.921875 
Q 12.359375 15.96875 16.703125 11.015625 
Q 21.046875 6.0625 27.640625 6.0625 
Q 34.1875 6.0625 38.53125 11.03125 
Q 42.875 16.015625 42.875 26.21875 
Q 42.875 35.84375 38.5 40.796875 
Q 34.125 45.75 27.640625 45.75 
Q 21.046875 45.75 16.703125 40.8125 
Q 12.359375 35.890625 12.359375 25.921875 
z
" id="ArialMT-111"/>
       <path d="M 8.6875 0 
L 8.6875 45.015625 
L 0.921875 45.015625 
L 0.921875 51.859375 
L 8.6875 51.859375 
L 8.6875 57.375 
Q 8.6875 62.59375 9.625 65.140625 
Q 10.890625 68.5625 14.078125 70.671875 
Q 17.28125 72.796875 23.046875 72.796875 
Q 26.765625 72.796875 31.25 71.921875 
L 29.9375 64.265625 
Q 27.203125 64.75 24.75 64.75 
Q 20.75 64.75 19.09375 63.03125 
Q 17.4375 61.328125 17.4375 56.640625 
L 17.4375 51.859375 
L 27.546875 51.859375 
L 27.546875 45.015625 
L 17.4375 45.015625 
L 17.4375 0 
z
" id="ArialMT-102"/>
       <path d="M 40.4375 6.390625 
Q 35.546875 2.25 31.03125 0.53125 
Q 26.515625 -1.171875 21.34375 -1.171875 
Q 12.796875 -1.171875 8.203125 3 
Q 3.609375 7.171875 3.609375 13.671875 
Q 3.609375 17.484375 5.34375 20.625 
Q 7.078125 23.78125 9.890625 25.6875 
Q 12.703125 27.59375 16.21875 28.5625 
Q 18.796875 29.25 24.03125 29.890625 
Q 34.671875 31.15625 39.703125 32.90625 
Q 39.75 34.71875 39.75 35.203125 
Q 39.75 40.578125 37.25 42.78125 
Q 33.890625 45.75 27.25 45.75 
Q 21.046875 45.75 18.09375 43.578125 
Q 15.140625 41.40625 13.71875 35.890625 
L 5.125 37.0625 
Q 6.296875 42.578125 8.984375 45.96875 
Q 11.671875 49.359375 16.75 51.1875 
Q 21.828125 53.03125 28.515625 53.03125 
Q 35.15625 53.03125 39.296875 51.46875 
Q 43.453125 49.90625 45.40625 47.53125 
Q 47.359375 45.171875 48.140625 41.546875 
Q 48.578125 39.3125 48.578125 33.453125 
L 48.578125 21.734375 
Q 48.578125 9.46875 49.140625 6.21875 
Q 49.703125 2.984375 51.375 0 
L 42.1875 0 
Q 40.828125 2.734375 40.4375 6.390625 
z
M 39.703125 26.03125 
Q 34.90625 24.078125 25.34375 22.703125 
Q 19.921875 21.921875 17.671875 20.9375 
Q 15.4375 19.96875 14.203125 18.09375 
Q 12.984375 16.21875 12.984375 13.921875 
Q 12.984375 10.40625 15.640625 8.0625 
Q 18.3125 5.71875 23.4375 5.71875 
Q 28.515625 5.71875 32.46875 7.9375 
Q 36.421875 10.15625 38.28125 14.015625 
Q 39.703125 17 39.703125 22.796875 
z
" id="ArialMT-97"/>
       <path d="M 6.59375 0 
L 6.59375 51.859375 
L 14.5 51.859375 
L 14.5 44.484375 
Q 20.21875 53.03125 31 53.03125 
Q 35.6875 53.03125 39.625 51.34375 
Q 43.5625 49.65625 45.515625 46.921875 
Q 47.46875 44.1875 48.25 40.4375 
Q 48.734375 37.984375 48.734375 31.890625 
L 48.734375 0 
L 39.9375 0 
L 39.9375 31.546875 
Q 39.9375 36.921875 38.90625 39.578125 
Q 37.890625 42.234375 35.28125 43.8125 
Q 32.671875 45.40625 29.15625 45.40625 
Q 23.53125 45.40625 19.453125 41.84375 
Q 15.375 38.28125 15.375 28.328125 
L 15.375 0 
z
" id="ArialMT-110"/>
       <path d="M 6.59375 -19.875 
L 6.59375 51.859375 
L 14.59375 51.859375 
L 14.59375 45.125 
Q 17.4375 49.078125 21 51.046875 
Q 24.5625 53.03125 29.640625 53.03125 
Q 36.28125 53.03125 41.359375 49.609375 
Q 46.4375 46.1875 49.015625 39.953125 
Q 51.609375 33.734375 51.609375 26.3125 
Q 51.609375 18.359375 48.75 11.984375 
Q 45.90625 5.609375 40.453125 2.21875 
Q 35.015625 -1.171875 29 -1.171875 
Q 24.609375 -1.171875 21.109375 0.6875 
Q 17.625 2.546875 15.375 5.375 
L 15.375 -19.875 
z
M 14.546875 25.640625 
Q 14.546875 15.625 18.59375 10.84375 
Q 22.65625 6.0625 28.421875 6.0625 
Q 34.28125 6.0625 38.453125 11.015625 
Q 42.625 15.96875 42.625 26.375 
Q 42.625 36.28125 38.546875 41.203125 
Q 34.46875 46.140625 28.8125 46.140625 
Q 23.1875 46.140625 18.859375 40.890625 
Q 14.546875 35.640625 14.546875 25.640625 
z
" id="ArialMT-112"/>
       <path d="M 40.234375 0 
L 40.234375 6.546875 
Q 35.296875 -1.171875 25.734375 -1.171875 
Q 19.53125 -1.171875 14.328125 2.25 
Q 9.125 5.671875 6.265625 11.796875 
Q 3.421875 17.921875 3.421875 25.875 
Q 3.421875 33.640625 6 39.96875 
Q 8.59375 46.296875 13.765625 49.65625 
Q 18.953125 53.03125 25.34375 53.03125 
Q 30.03125 53.03125 33.6875 51.046875 
Q 37.359375 49.078125 39.65625 45.90625 
L 39.65625 71.578125 
L 48.390625 71.578125 
L 48.390625 0 
z
M 12.453125 25.875 
Q 12.453125 15.921875 16.640625 10.984375 
Q 20.84375 6.0625 26.5625 6.0625 
Q 32.328125 6.0625 36.34375 10.765625 
Q 40.375 15.484375 40.375 25.140625 
Q 40.375 35.796875 36.265625 40.765625 
Q 32.171875 45.75 26.171875 45.75 
Q 20.3125 45.75 16.375 40.96875 
Q 12.453125 36.1875 12.453125 25.875 
z
" id="ArialMT-100"/>
       <path d="M 6.203125 -19.96875 
L 5.21875 -11.71875 
Q 8.109375 -12.5 10.25 -12.5 
Q 13.1875 -12.5 14.9375 -11.515625 
Q 16.703125 -10.546875 17.828125 -8.796875 
Q 18.65625 -7.46875 20.515625 -2.25 
Q 20.75 -1.515625 21.296875 -0.09375 
L 1.609375 51.859375 
L 11.078125 51.859375 
L 21.875 21.828125 
Q 23.96875 16.109375 25.640625 9.8125 
Q 27.15625 15.875 29.25 21.625 
L 40.328125 51.859375 
L 49.125 51.859375 
L 29.390625 -0.875 
Q 26.21875 -9.421875 24.46875 -12.640625 
Q 22.125 -17 19.09375 -19.015625 
Q 16.0625 -21.046875 11.859375 -21.046875 
Q 9.328125 -21.046875 6.203125 -19.96875 
z
" id="ArialMT-121"/>
      </defs>
      <use xlink:href="#ArialMT-77"/>
      <use x="83.300781" xlink:href="#ArialMT-105"/>
      <use x="105.517578" xlink:href="#ArialMT-108"/>
      <use x="127.734375" xlink:href="#ArialMT-108"/>
      <use x="149.951172" xlink:href="#ArialMT-105"/>
      <use x="172.167969" xlink:href="#ArialMT-109"/>
      <use x="255.46875" xlink:href="#ArialMT-101"/>
      <use x="311.083984" xlink:href="#ArialMT-116"/>
      <use x="338.867188" xlink:href="#ArialMT-101"/>
      <use x="394.482422" xlink:href="#ArialMT-114"/>
      <use x="427.783203" xlink:href="#ArialMT-115"/>
      <use x="477.783203" xlink:href="#ArialMT-32"/>
      <use x="505.566406" xlink:href="#ArialMT-111"/>
      <use x="561.181641" xlink:href="#ArialMT-102"/>
      <use x="588.964844" xlink:href="#ArialMT-32"/>
      <use x="616.748047" xlink:href="#ArialMT-114"/>
      <use x="650.048828" xlink:href="#ArialMT-97"/>
      <use x="705.664062" xlink:href="#ArialMT-105"/>
      <use x="727.880859" xlink:href="#ArialMT-110"/>
      <use x="783.496094" xlink:href="#ArialMT-32"/>
      <use x="811.279297" xlink:href="#ArialMT-112"/>
      <use x="866.894531" xlink:href="#ArialMT-101"/>
      <use x="922.509766" xlink:href="#ArialMT-114"/>
      <use x="955.810547" xlink:href="#ArialMT-32"/>
      <use x="983.59375" xlink:href="#ArialMT-100"/>
      <use x="1039.208984" xlink:href="#ArialMT-97"/>
      <use x="1094.824219" xlink:href="#ArialMT-121"/>
     </g>
    </g>
   </g>
   <g id="patch_3">
    <path clip-path="url(#p12e3995e41)" d="M 120.539366 378 
L 130.685845 378 
L 130.685845 337.816432 
L 120.539366 337.816432 
z
" style="fill:#87cefa;opacity:0.4;stroke:#ffffff;stroke-linejoin:miter;"/>
   </g>
   <g id="patch_4">
    <path clip-path="url(#p12e3995e41)" d="M 130.788335 378 
L 140.934814 378 
L 140.934814 277.541081 
L 130.788335 277.541081 
z
" style="fill:#87cefa;opacity:0.4;stroke:#ffffff;stroke-linejoin:miter;"/>
   </g>
   <g id="patch_5">
    <path clip-path="url(#p12e3995e41)" d="M 141.037304 378 
L 151.183783 378 
L 151.183783 320.815692 
L 141.037304 320.815692 
z
" style="fill:#87cefa;opacity:0.4;stroke:#ffffff;stroke-linejoin:miter;"/>
   </g>
   <g id="patch_6">
    <path clip-path="url(#p12e3995e41)" d="M 151.286273 378 
L 161.432753 378 
L 161.432753 354.817172 
L 151.286273 354.817172 
z
" style="fill:#87cefa;opacity:0.4;stroke:#ffffff;stroke-linejoin:miter;"/>
   </g>
   <g id="patch_7">
    <path clip-path="url(#p12e3995e41)" d="M 161.535242 378 
L 171.681722 378 
L 171.681722 378 
L 161.535242 378 
z
" style="fill:#87cefa;opacity:0.4;stroke:#ffffff;stroke-linejoin:miter;"/>
   </g>
   <g id="patch_8">
    <path clip-path="url(#p12e3995e41)" d="M 171.784211 378 
L 181.930691 378 
L 181.930691 378 
L 171.784211 378 
z
" style="fill:#87cefa;opacity:0.4;stroke:#ffffff;stroke-linejoin:miter;"/>
   </g>
   <g id="patch_9">
    <path clip-path="url(#p12e3995e41)" d="M 182.033181 378 
L 192.17966 378 
L 192.17966 359.453738 
L 182.033181 359.453738 
z
" style="fill:#87cefa;opacity:0.4;stroke:#ffffff;stroke-linejoin:miter;"/>
   </g>
   <g id="patch_10">
    <path clip-path="url(#p12e3995e41)" d="M 192.28215 378 
L 202.428629 378 
L 202.428629 348.635085 
L 192.28215 348.635085 
z
" style="fill:#87cefa;opacity:0.4;stroke:#ffffff;stroke-linejoin:miter;"/>
   </g>
   <g id="patch_11">
    <path clip-path="url(#p12e3995e41)" d="M 202.531119 378 
L 212.677598 378 
L 212.677598 296.087343 
L 202.531119 296.087343 
z
" style="fill:#87cefa;opacity:0.4;stroke:#ffffff;stroke-linejoin:miter;"/>
   </g>
   <g id="patch_12">
    <path clip-path="url(#p12e3995e41)" d="M 212.780088 378 
L 222.926567 378 
L 222.926567 331.634345 
L 212.780088 331.634345 
z
" style="fill:#87cefa;opacity:0.4;stroke:#ffffff;stroke-linejoin:miter;"/>
   </g>
   <g id="patch_13">
    <path clip-path="url(#p12e3995e41)" d="M 223.029057 378 
L 233.175537 378 
L 233.175537 289.905255 
L 223.029057 289.905255 
z
" style="fill:#87cefa;opacity:0.4;stroke:#ffffff;stroke-linejoin:miter;"/>
   </g>
   <g id="patch_14">
    <path clip-path="url(#p12e3995e41)" d="M 233.278026 378 
L 243.424506 378 
L 243.424506 226.53886 
L 233.278026 226.53886 
z
" style="fill:#87cefa;opacity:0.4;stroke:#ffffff;stroke-linejoin:miter;"/>
   </g>
   <g id="patch_15">
    <path clip-path="url(#p12e3995e41)" d="M 243.526995 378 
L 253.673475 378 
L 253.673475 254.358253 
L 243.526995 254.358253 
z
" style="fill:#87cefa;opacity:0.4;stroke:#ffffff;stroke-linejoin:miter;"/>
   </g>
   <g id="patch_16">
    <path clip-path="url(#p12e3995e41)" d="M 253.775965 378 
L 263.922444 378 
L 263.922444 308.451517 
L 253.775965 308.451517 
z
" style="fill:#87cefa;opacity:0.4;stroke:#ffffff;stroke-linejoin:miter;"/>
   </g>
   <g id="patch_17">
    <path clip-path="url(#p12e3995e41)" d="M 264.024934 378 
L 274.171413 378 
L 274.171413 271.358993 
L 264.024934 271.358993 
z
" style="fill:#87cefa;opacity:0.4;stroke:#ffffff;stroke-linejoin:miter;"/>
   </g>
   <g id="patch_18">
    <path clip-path="url(#p12e3995e41)" d="M 274.273903 378 
L 284.420382 378 
L 284.420382 79.714286 
L 274.273903 79.714286 
z
" style="fill:#87cefa;opacity:0.4;stroke:#ffffff;stroke-linejoin:miter;"/>
   </g>
   <g id="patch_19">
    <path clip-path="url(#p12e3995e41)" d="M 284.522872 378 
L 294.669351 378 
L 294.669351 280.632124 
L 284.522872 280.632124 
z
" style="fill:#87cefa;opacity:0.4;stroke:#ffffff;stroke-linejoin:miter;"/>
   </g>
   <g id="patch_20">
    <path clip-path="url(#p12e3995e41)" d="M 294.771841 378 
L 304.91832 378 
L 304.91832 343.99852 
L 294.771841 343.99852 
z
" style="fill:#87cefa;opacity:0.4;stroke:#ffffff;stroke-linejoin:miter;"/>
   </g>
   <g id="patch_21">
    <path clip-path="url(#p12e3995e41)" d="M 305.02081 378 
L 315.16729 378 
L 315.16729 291.450777 
L 305.02081 291.450777 
z
" style="fill:#87cefa;opacity:0.4;stroke:#ffffff;stroke-linejoin:miter;"/>
   </g>
   <g id="patch_22">
    <path clip-path="url(#p12e3995e41)" d="M 315.269779 378 
L 325.416259 378 
L 325.416259 342.452998 
L 315.269779 342.452998 
z
" style="fill:#87cefa;opacity:0.4;stroke:#ffffff;stroke-linejoin:miter;"/>
   </g>
   <g id="patch_23">
    <path clip-path="url(#p12e3995e41)" d="M 325.518748 378 
L 335.665228 378 
L 335.665228 373.363434 
L 325.518748 373.363434 
z
" style="fill:#87cefa;opacity:0.4;stroke:#ffffff;stroke-linejoin:miter;"/>
   </g>
   <g id="patch_24">
    <path clip-path="url(#p12e3995e41)" d="M 335.767718 378 
L 345.914197 378 
L 345.914197 374.908956 
L 335.767718 374.908956 
z
" style="fill:#87cefa;opacity:0.4;stroke:#ffffff;stroke-linejoin:miter;"/>
   </g>
   <g id="patch_25">
    <path clip-path="url(#p12e3995e41)" d="M 346.016687 378 
L 356.163166 378 
L 356.163166 373.363434 
L 346.016687 373.363434 
z
" style="fill:#87cefa;opacity:0.4;stroke:#ffffff;stroke-linejoin:miter;"/>
   </g>
   <g id="patch_26">
    <path clip-path="url(#p12e3995e41)" d="M 356.265656 378 
L 366.412135 378 
L 366.412135 374.908956 
L 356.265656 374.908956 
z
" style="fill:#87cefa;opacity:0.4;stroke:#ffffff;stroke-linejoin:miter;"/>
   </g>
   <g id="patch_27">
    <path clip-path="url(#p12e3995e41)" d="M 366.514625 378 
L 376.661104 378 
L 376.661104 362.544782 
L 366.514625 362.544782 
z
" style="fill:#87cefa;opacity:0.4;stroke:#ffffff;stroke-linejoin:miter;"/>
   </g>
   <g id="patch_28">
    <path clip-path="url(#p12e3995e41)" d="M 376.763594 378 
L 386.910074 378 
L 386.910074 280.632124 
L 376.763594 280.632124 
z
" style="fill:#87cefa;opacity:0.4;stroke:#ffffff;stroke-linejoin:miter;"/>
   </g>
   <g id="patch_29">
    <path clip-path="url(#p12e3995e41)" d="M 387.012563 378 
L 397.159043 378 
L 397.159043 249.721688 
L 387.012563 249.721688 
z
" style="fill:#87cefa;opacity:0.4;stroke:#ffffff;stroke-linejoin:miter;"/>
   </g>
   <g id="patch_30">
    <path clip-path="url(#p12e3995e41)" d="M 397.261532 378 
L 407.408012 378 
L 407.408012 263.631384 
L 397.261532 263.631384 
z
" style="fill:#87cefa;opacity:0.4;stroke:#ffffff;stroke-linejoin:miter;"/>
   </g>
   <g id="patch_31">
    <path clip-path="url(#p12e3995e41)" d="M 407.510502 378 
L 417.656981 378 
L 417.656981 345.544041 
L 407.510502 345.544041 
z
" style="fill:#87cefa;opacity:0.4;stroke:#ffffff;stroke-linejoin:miter;"/>
   </g>
   <g id="patch_32">
    <path clip-path="url(#p12e3995e41)" d="M 417.759471 378 
L 427.90595 378 
L 427.90595 333.179867 
L 417.759471 333.179867 
z
" style="fill:#87cefa;opacity:0.4;stroke:#ffffff;stroke-linejoin:miter;"/>
   </g>
   <g id="patch_33">
    <path clip-path="url(#p12e3995e41)" d="M 428.00844 378 
L 438.154919 378 
L 438.154919 365.635825 
L 428.00844 365.635825 
z
" style="fill:#87cefa;opacity:0.4;stroke:#ffffff;stroke-linejoin:miter;"/>
   </g>
   <g id="patch_34">
    <path clip-path="url(#p12e3995e41)" d="M 438.257409 378 
L 448.403888 378 
L 448.403888 334.725389 
L 438.257409 334.725389 
z
" style="fill:#87cefa;opacity:0.4;stroke:#ffffff;stroke-linejoin:miter;"/>
   </g>
   <g id="patch_35">
    <path clip-path="url(#p12e3995e41)" d="M 448.506378 378 
L 458.652857 378 
L 458.652857 373.363434 
L 448.506378 373.363434 
z
" style="fill:#87cefa;opacity:0.4;stroke:#ffffff;stroke-linejoin:miter;"/>
   </g>
   <g id="patch_36">
    <path clip-path="url(#p12e3995e41)" d="M 458.755347 378 
L 468.901827 378 
L 468.901827 378 
L 458.755347 378 
z
" style="fill:#87cefa;opacity:0.4;stroke:#ffffff;stroke-linejoin:miter;"/>
   </g>
   <g id="patch_37">
    <path clip-path="url(#p12e3995e41)" d="M 469.004316 378 
L 479.150796 378 
L 479.150796 354.817172 
L 469.004316 354.817172 
z
" style="fill:#87cefa;opacity:0.4;stroke:#ffffff;stroke-linejoin:miter;"/>
   </g>
   <g id="patch_38">
    <path clip-path="url(#p12e3995e41)" d="M 479.253285 378 
L 489.399765 378 
L 489.399765 214.174685 
L 479.253285 214.174685 
z
" style="fill:#87cefa;opacity:0.4;stroke:#ffffff;stroke-linejoin:miter;"/>
   </g>
   <g id="patch_39">
    <path clip-path="url(#p12e3995e41)" d="M 489.502255 378 
L 499.648734 378 
L 499.648734 300.723908 
L 489.502255 300.723908 
z
" style="fill:#87cefa;opacity:0.4;stroke:#ffffff;stroke-linejoin:miter;"/>
   </g>
   <g id="patch_40">
    <path clip-path="url(#p12e3995e41)" d="M 499.751224 378 
L 509.897703 378 
L 509.897703 279.086603 
L 499.751224 279.086603 
z
" style="fill:#87cefa;opacity:0.4;stroke:#ffffff;stroke-linejoin:miter;"/>
   </g>
   <g id="patch_41">
    <path clip-path="url(#p12e3995e41)" d="M 510.000193 378 
L 520.146672 378 
L 520.146672 173.991118 
L 510.000193 173.991118 
z
" style="fill:#87cefa;opacity:0.4;stroke:#ffffff;stroke-linejoin:miter;"/>
   </g>
   <g id="patch_42">
    <path clip-path="url(#p12e3995e41)" d="M 520.249162 378 
L 530.395641 378 
L 530.395641 313.088083 
L 520.249162 313.088083 
z
" style="fill:#87cefa;opacity:0.4;stroke:#ffffff;stroke-linejoin:miter;"/>
   </g>
   <g id="patch_43">
    <path clip-path="url(#p12e3995e41)" d="M 530.498131 378 
L 540.644611 378 
L 540.644611 317.724648 
L 530.498131 317.724648 
z
" style="fill:#87cefa;opacity:0.4;stroke:#ffffff;stroke-linejoin:miter;"/>
   </g>
   <g id="patch_44">
    <path clip-path="url(#p12e3995e41)" d="M 540.7471 378 
L 550.89358 378 
L 550.89358 207.992598 
L 540.7471 207.992598 
z
" style="fill:#87cefa;opacity:0.4;stroke:#ffffff;stroke-linejoin:miter;"/>
   </g>
   <g id="patch_45">
    <path clip-path="url(#p12e3995e41)" d="M 550.996069 378 
L 561.142549 378 
L 561.142549 215.720207 
L 550.996069 215.720207 
z
" style="fill:#87cefa;opacity:0.4;stroke:#ffffff;stroke-linejoin:miter;"/>
   </g>
   <g id="patch_46">
    <path clip-path="url(#p12e3995e41)" d="M 561.245039 378 
L 571.391518 378 
L 571.391518 325.452258 
L 561.245039 325.452258 
z
" style="fill:#87cefa;opacity:0.4;stroke:#ffffff;stroke-linejoin:miter;"/>
   </g>
   <g id="patch_47">
    <path clip-path="url(#p12e3995e41)" d="M 571.494008 378 
L 581.640487 378 
L 581.640487 347.089563 
L 571.494008 347.089563 
z
" style="fill:#87cefa;opacity:0.4;stroke:#ffffff;stroke-linejoin:miter;"/>
   </g>
   <g id="patch_48">
    <path clip-path="url(#p12e3995e41)" d="M 581.742977 378 
L 591.889456 378 
L 591.889456 365.635825 
L 581.742977 365.635825 
z
" style="fill:#87cefa;opacity:0.4;stroke:#ffffff;stroke-linejoin:miter;"/>
   </g>
   <g id="patch_49">
    <path clip-path="url(#p12e3995e41)" d="M 591.991946 378 
L 602.138425 378 
L 602.138425 319.27017 
L 591.991946 319.27017 
z
" style="fill:#87cefa;opacity:0.4;stroke:#ffffff;stroke-linejoin:miter;"/>
   </g>
   <g id="patch_50">
    <path clip-path="url(#p12e3995e41)" d="M 602.240915 378 
L 612.387395 378 
L 612.387395 351.726129 
L 602.240915 351.726129 
z
" style="fill:#87cefa;opacity:0.4;stroke:#ffffff;stroke-linejoin:miter;"/>
   </g>
   <g id="patch_51">
    <path clip-path="url(#p12e3995e41)" d="M 612.489884 378 
L 622.636364 378 
L 622.636364 314.633605 
L 612.489884 314.633605 
z
" style="fill:#87cefa;opacity:0.4;stroke:#ffffff;stroke-linejoin:miter;"/>
   </g>
   <g id="patch_52">
    <path d="M 90 378 
L 90 64.8 
" style="fill:none;stroke:#191970;stroke-linecap:square;stroke-linejoin:miter;stroke-width:1.25;"/>
   </g>
   <g id="patch_53">
    <path d="M 648 378 
L 648 64.8 
" style="fill:none;stroke:#191970;stroke-linecap:square;stroke-linejoin:miter;stroke-width:1.25;"/>
   </g>
   <g id="patch_54">
    <path d="M 90 378 
L 648 378 
" style="fill:none;stroke:#191970;stroke-linecap:square;stroke-linejoin:miter;stroke-width:1.25;"/>
   </g>
   <g id="patch_55">
    <path d="M 90 64.8 
L 648 64.8 
" style="fill:none;stroke:#191970;stroke-linecap:square;stroke-linejoin:miter;stroke-width:1.25;"/>
   </g>
  </g>
  <g id="axes_2">
   <g id="matplotlib.axis_3">
    <g id="ytick_10">
     <g id="line2d_19">
      <defs>
       <path d="M 0 0 
L -6 0 
" id="me358c4e533" style="stroke:#262626;stroke-width:1.25;"/>
      </defs>
      <g>
       <use style="fill:#262626;stroke:#262626;stroke-width:1.25;" x="90" xlink:href="#me358c4e533" y="378"/>
      </g>
     </g>
     <g id="text_19">
      <!-- 0 -->
      <g style="fill:#262626;" transform="translate(74.382969 381.936797)scale(0.11 -0.11)">
       <use xlink:href="#ArialMT-48"/>
      </g>
     </g>
    </g>
    <g id="ytick_11">
     <g id="line2d_20">
      <g>
       <use style="fill:#262626;stroke:#262626;stroke-width:1.25;" x="90" xlink:href="#me358c4e533" y="328.547368"/>
      </g>
     </g>
     <g id="text_20">
      <!-- 500 -->
      <g style="fill:#262626;" transform="translate(62.148906 332.484165)scale(0.11 -0.11)">
       <use xlink:href="#ArialMT-53"/>
       <use x="55.615234" xlink:href="#ArialMT-48"/>
       <use x="111.230469" xlink:href="#ArialMT-48"/>
      </g>
     </g>
    </g>
    <g id="ytick_12">
     <g id="line2d_21">
      <g>
       <use style="fill:#262626;stroke:#262626;stroke-width:1.25;" x="90" xlink:href="#me358c4e533" y="279.094737"/>
      </g>
     </g>
     <g id="text_21">
      <!-- 1000 -->
      <g style="fill:#262626;" transform="translate(56.031875 283.031534)scale(0.11 -0.11)">
       <use xlink:href="#ArialMT-49"/>
       <use x="55.615234" xlink:href="#ArialMT-48"/>
       <use x="111.230469" xlink:href="#ArialMT-48"/>
       <use x="166.845703" xlink:href="#ArialMT-48"/>
      </g>
     </g>
    </g>
    <g id="ytick_13">
     <g id="line2d_22">
      <g>
       <use style="fill:#262626;stroke:#262626;stroke-width:1.25;" x="90" xlink:href="#me358c4e533" y="229.642105"/>
      </g>
     </g>
     <g id="text_22">
      <!-- 1500 -->
      <g style="fill:#262626;" transform="translate(56.031875 233.578902)scale(0.11 -0.11)">
       <use xlink:href="#ArialMT-49"/>
       <use x="55.615234" xlink:href="#ArialMT-53"/>
       <use x="111.230469" xlink:href="#ArialMT-48"/>
       <use x="166.845703" xlink:href="#ArialMT-48"/>
      </g>
     </g>
    </g>
    <g id="ytick_14">
     <g id="line2d_23">
      <g>
       <use style="fill:#262626;stroke:#262626;stroke-width:1.25;" x="90" xlink:href="#me358c4e533" y="180.189474"/>
      </g>
     </g>
     <g id="text_23">
      <!-- 2000 -->
      <g style="fill:#262626;" transform="translate(56.031875 184.126271)scale(0.11 -0.11)">
       <use xlink:href="#ArialMT-50"/>
       <use x="55.615234" xlink:href="#ArialMT-48"/>
       <use x="111.230469" xlink:href="#ArialMT-48"/>
       <use x="166.845703" xlink:href="#ArialMT-48"/>
      </g>
     </g>
    </g>
    <g id="ytick_15">
     <g id="line2d_24">
      <g>
       <use style="fill:#262626;stroke:#262626;stroke-width:1.25;" x="90" xlink:href="#me358c4e533" y="130.736842"/>
      </g>
     </g>
     <g id="text_24">
      <!-- 2500 -->
      <g style="fill:#262626;" transform="translate(56.031875 134.673639)scale(0.11 -0.11)">
       <use xlink:href="#ArialMT-50"/>
       <use x="55.615234" xlink:href="#ArialMT-53"/>
       <use x="111.230469" xlink:href="#ArialMT-48"/>
       <use x="166.845703" xlink:href="#ArialMT-48"/>
      </g>
     </g>
    </g>
    <g id="ytick_16">
     <g id="line2d_25">
      <g>
       <use style="fill:#262626;stroke:#262626;stroke-width:1.25;" x="90" xlink:href="#me358c4e533" y="81.284211"/>
      </g>
     </g>
     <g id="text_25">
      <!-- 3000 -->
      <g style="fill:#262626;" transform="translate(56.031875 85.221007)scale(0.11 -0.11)">
       <use xlink:href="#ArialMT-51"/>
       <use x="55.615234" xlink:href="#ArialMT-48"/>
       <use x="111.230469" xlink:href="#ArialMT-48"/>
       <use x="166.845703" xlink:href="#ArialMT-48"/>
      </g>
     </g>
    </g>
    <g id="text_26">
     <!-- $\itE. coli$ colony forming units per 100mL -->
     <g style="fill:#262626;" transform="translate(42.951875 341.1)rotate(-90)scale(0.14 -0.14)">
      <defs>
       <path d="M 16.890625 72.90625 
L 62.984375 72.90625 
L 61.375 64.59375 
L 25.09375 64.59375 
L 20.90625 43.015625 
L 55.71875 43.015625 
L 54.109375 34.71875 
L 19.28125 34.71875 
L 14.203125 8.296875 
L 51.3125 8.296875 
L 49.703125 0 
L 2.6875 0 
z
" id="DejaVuSans-Oblique-69"/>
       <path d="M 10.6875 12.40625 
L 21 12.40625 
L 21 0 
L 10.6875 0 
z
" id="DejaVuSans-46"/>
       <path d="M 53.609375 52.59375 
L 51.8125 43.703125 
Q 48.578125 46.046875 44.9375 47.21875 
Q 41.3125 48.390625 37.40625 48.390625 
Q 33.109375 48.390625 29.21875 46.875 
Q 25.34375 45.359375 22.703125 42.578125 
Q 18.5 38.328125 16.203125 32.609375 
Q 13.921875 26.90625 13.921875 20.796875 
Q 13.921875 13.421875 17.609375 9.8125 
Q 21.296875 6.203125 28.8125 6.203125 
Q 32.515625 6.203125 36.6875 7.328125 
Q 40.875 8.453125 45.40625 10.6875 
L 43.703125 1.8125 
Q 39.796875 0.203125 35.671875 -0.609375 
Q 31.546875 -1.421875 27.203125 -1.421875 
Q 16.3125 -1.421875 10.453125 4.015625 
Q 4.59375 9.46875 4.59375 19.578125 
Q 4.59375 28.078125 7.640625 35.234375 
Q 10.6875 42.390625 16.703125 48.09375 
Q 20.796875 52 26.3125 54 
Q 31.84375 56 38.375 56 
Q 42.1875 56 45.9375 55.140625 
Q 49.703125 54.296875 53.609375 52.59375 
z
" id="DejaVuSans-Oblique-99"/>
       <path d="M 25.390625 -1.421875 
Q 15.765625 -1.421875 10.171875 4.515625 
Q 4.59375 10.453125 4.59375 20.703125 
Q 4.59375 26.65625 6.515625 32.828125 
Q 8.453125 39.015625 11.53125 43.21875 
Q 16.359375 49.75 22.3125 52.875 
Q 28.265625 56 35.796875 56 
Q 45.125 56 50.859375 50.1875 
Q 56.59375 44.390625 56.59375 35.015625 
Q 56.59375 28.515625 54.6875 22.0625 
Q 52.78125 15.625 49.703125 11.375 
Q 44.921875 4.828125 38.96875 1.703125 
Q 33.015625 -1.421875 25.390625 -1.421875 
z
M 13.921875 21 
Q 13.921875 13.578125 17.015625 9.890625 
Q 20.125 6.203125 26.421875 6.203125 
Q 35.453125 6.203125 41.375 14.078125 
Q 47.3125 21.96875 47.3125 34.078125 
Q 47.3125 41.15625 44.140625 44.765625 
Q 40.96875 48.390625 34.8125 48.390625 
Q 29.734375 48.390625 25.78125 46.015625 
Q 21.828125 43.65625 18.703125 38.8125 
Q 16.40625 35.203125 15.15625 30.5625 
Q 13.921875 25.921875 13.921875 21 
z
" id="DejaVuSans-Oblique-111"/>
       <path d="M 18.3125 75.984375 
L 27.296875 75.984375 
L 12.5 0 
L 3.515625 0 
z
" id="DejaVuSans-Oblique-108"/>
       <path d="M 18.3125 75.984375 
L 27.296875 75.984375 
L 25.09375 64.59375 
L 16.109375 64.59375 
z
M 14.203125 54.6875 
L 23.1875 54.6875 
L 12.5 0 
L 3.515625 0 
z
" id="DejaVuSans-Oblique-105"/>
       <path d="M 40.4375 19 
L 49.078125 17.875 
Q 47.65625 8.9375 41.8125 3.875 
Q 35.984375 -1.171875 27.484375 -1.171875 
Q 16.84375 -1.171875 10.375 5.78125 
Q 3.90625 12.75 3.90625 25.734375 
Q 3.90625 34.125 6.6875 40.421875 
Q 9.46875 46.734375 15.15625 49.875 
Q 20.84375 53.03125 27.546875 53.03125 
Q 35.984375 53.03125 41.359375 48.75 
Q 46.734375 44.484375 48.25 36.625 
L 39.703125 35.296875 
Q 38.484375 40.53125 35.375 43.15625 
Q 32.28125 45.796875 27.875 45.796875 
Q 21.234375 45.796875 17.078125 41.03125 
Q 12.9375 36.28125 12.9375 25.984375 
Q 12.9375 15.53125 16.9375 10.796875 
Q 20.953125 6.0625 27.390625 6.0625 
Q 32.5625 6.0625 36.03125 9.234375 
Q 39.5 12.40625 40.4375 19 
z
" id="ArialMT-99"/>
       <path d="M 4.984375 -4.296875 
L 13.53125 -5.5625 
Q 14.0625 -9.515625 16.5 -11.328125 
Q 19.78125 -13.765625 25.4375 -13.765625 
Q 31.546875 -13.765625 34.859375 -11.328125 
Q 38.1875 -8.890625 39.359375 -4.5 
Q 40.046875 -1.8125 39.984375 6.78125 
Q 34.234375 0 25.640625 0 
Q 14.9375 0 9.078125 7.71875 
Q 3.21875 15.4375 3.21875 26.21875 
Q 3.21875 33.640625 5.90625 39.90625 
Q 8.59375 46.1875 13.6875 49.609375 
Q 18.796875 53.03125 25.6875 53.03125 
Q 34.859375 53.03125 40.828125 45.609375 
L 40.828125 51.859375 
L 48.921875 51.859375 
L 48.921875 7.03125 
Q 48.921875 -5.078125 46.453125 -10.125 
Q 44 -15.1875 38.640625 -18.109375 
Q 33.296875 -21.046875 25.484375 -21.046875 
Q 16.21875 -21.046875 10.5 -16.875 
Q 4.78125 -12.703125 4.984375 -4.296875 
z
M 12.25 26.859375 
Q 12.25 16.65625 16.296875 11.96875 
Q 20.359375 7.28125 26.46875 7.28125 
Q 32.515625 7.28125 36.609375 11.9375 
Q 40.71875 16.609375 40.71875 26.5625 
Q 40.71875 36.078125 36.5 40.90625 
Q 32.28125 45.75 26.3125 45.75 
Q 20.453125 45.75 16.34375 40.984375 
Q 12.25 36.234375 12.25 26.859375 
z
" id="ArialMT-103"/>
       <path d="M 40.578125 0 
L 40.578125 7.625 
Q 34.515625 -1.171875 24.125 -1.171875 
Q 19.53125 -1.171875 15.546875 0.578125 
Q 11.578125 2.34375 9.640625 5 
Q 7.71875 7.671875 6.9375 11.53125 
Q 6.390625 14.109375 6.390625 19.734375 
L 6.390625 51.859375 
L 15.1875 51.859375 
L 15.1875 23.09375 
Q 15.1875 16.21875 15.71875 13.8125 
Q 16.546875 10.359375 19.234375 8.375 
Q 21.921875 6.390625 25.875 6.390625 
Q 29.828125 6.390625 33.296875 8.421875 
Q 36.765625 10.453125 38.203125 13.9375 
Q 39.65625 17.4375 39.65625 24.078125 
L 39.65625 51.859375 
L 48.4375 51.859375 
L 48.4375 0 
z
" id="ArialMT-117"/>
       <path d="M 7.328125 0 
L 7.328125 71.578125 
L 16.796875 71.578125 
L 16.796875 8.453125 
L 52.046875 8.453125 
L 52.046875 0 
z
" id="ArialMT-76"/>
      </defs>
      <use transform="translate(0 0.015625)" xlink:href="#DejaVuSans-Oblique-69"/>
      <use transform="translate(63.183594 0.015625)" xlink:href="#DejaVuSans-46"/>
      <use transform="translate(114.453125 0.015625)" xlink:href="#DejaVuSans-Oblique-99"/>
      <use transform="translate(169.433594 0.015625)" xlink:href="#DejaVuSans-Oblique-111"/>
      <use transform="translate(230.615234 0.015625)" xlink:href="#DejaVuSans-Oblique-108"/>
      <use transform="translate(258.398438 0.015625)" xlink:href="#DejaVuSans-Oblique-105"/>
      <use transform="translate(286.181641 0.015625)" xlink:href="#ArialMT-32"/>
      <use transform="translate(313.964844 0.015625)" xlink:href="#ArialMT-99"/>
      <use transform="translate(363.964844 0.015625)" xlink:href="#ArialMT-111"/>
      <use transform="translate(419.580078 0.015625)" xlink:href="#ArialMT-108"/>
      <use transform="translate(441.796875 0.015625)" xlink:href="#ArialMT-111"/>
      <use transform="translate(497.412109 0.015625)" xlink:href="#ArialMT-110"/>
      <use transform="translate(553.027344 0.015625)" xlink:href="#ArialMT-121"/>
      <use transform="translate(603.027344 0.015625)" xlink:href="#ArialMT-32"/>
      <use transform="translate(630.810547 0.015625)" xlink:href="#ArialMT-102"/>
      <use transform="translate(658.59375 0.015625)" xlink:href="#ArialMT-111"/>
      <use transform="translate(714.208984 0.015625)" xlink:href="#ArialMT-114"/>
      <use transform="translate(747.509766 0.015625)" xlink:href="#ArialMT-109"/>
      <use transform="translate(830.810547 0.015625)" xlink:href="#ArialMT-105"/>
      <use transform="translate(853.027344 0.015625)" xlink:href="#ArialMT-110"/>
      <use transform="translate(908.642578 0.015625)" xlink:href="#ArialMT-103"/>
      <use transform="translate(964.257812 0.015625)" xlink:href="#ArialMT-32"/>
      <use transform="translate(992.041016 0.015625)" xlink:href="#ArialMT-117"/>
      <use transform="translate(1047.65625 0.015625)" xlink:href="#ArialMT-110"/>
      <use transform="translate(1103.271484 0.015625)" xlink:href="#ArialMT-105"/>
      <use transform="translate(1125.488281 0.015625)" xlink:href="#ArialMT-116"/>
      <use transform="translate(1153.271484 0.015625)" xlink:href="#ArialMT-115"/>
      <use transform="translate(1203.271484 0.015625)" xlink:href="#ArialMT-32"/>
      <use transform="translate(1231.054688 0.015625)" xlink:href="#ArialMT-112"/>
      <use transform="translate(1286.669922 0.015625)" xlink:href="#ArialMT-101"/>
      <use transform="translate(1342.285156 0.015625)" xlink:href="#ArialMT-114"/>
      <use transform="translate(1375.585938 0.015625)" xlink:href="#ArialMT-32"/>
      <use transform="translate(1403.369141 0.015625)" xlink:href="#ArialMT-49"/>
      <use transform="translate(1458.984375 0.015625)" xlink:href="#ArialMT-48"/>
      <use transform="translate(1514.599609 0.015625)" xlink:href="#ArialMT-48"/>
      <use transform="translate(1570.214844 0.015625)" xlink:href="#ArialMT-109"/>
      <use transform="translate(1653.515625 0.015625)" xlink:href="#ArialMT-76"/>
     </g>
    </g>
   </g>
   <g id="LineCollection_1">
    <path clip-path="url(#p12e3995e41)" d="M 115.363636 378 
L 115.363636 378 
" style="fill:none;stroke:#ff00ff;stroke-dasharray:5.55,2.4;stroke-dashoffset:0;stroke-opacity:0.4;stroke-width:1.5;"/>
   </g>
   <g id="LineCollection_2">
    <path clip-path="url(#p12e3995e41)" d="M 187.10642 377.456719 
L 187.10642 376.894859 
" style="fill:none;stroke:#ff00ff;stroke-dasharray:5.55,2.4;stroke-dashoffset:0;stroke-opacity:0.4;stroke-width:1.5;"/>
   </g>
   <g id="LineCollection_3">
    <path clip-path="url(#p12e3995e41)" d="M 258.849204 360.071742 
L 258.849204 341.530363 
" style="fill:none;stroke:#ff00ff;stroke-dasharray:5.55,2.4;stroke-dashoffset:0;stroke-opacity:0.4;stroke-width:1.5;"/>
   </g>
   <g id="LineCollection_4">
    <path clip-path="url(#p12e3995e41)" d="M 330.591988 349.749411 
L 330.591988 320.532694 
" style="fill:none;stroke:#ff00ff;stroke-dasharray:5.55,2.4;stroke-dashoffset:0;stroke-opacity:0.4;stroke-width:1.5;"/>
   </g>
   <g id="LineCollection_5">
    <path clip-path="url(#p12e3995e41)" d="M 402.334772 178.072757 
L 402.334772 -1 
" style="fill:none;stroke:#ff00ff;stroke-dasharray:5.55,2.4;stroke-dashoffset:0;stroke-opacity:0.4;stroke-width:1.5;"/>
   </g>
   <g id="LineCollection_6">
    <path clip-path="url(#p12e3995e41)" d="M 474.077556 359.528461 
L 474.077556 340.425223 
" style="fill:none;stroke:#ff00ff;stroke-dasharray:5.55,2.4;stroke-dashoffset:0;stroke-opacity:0.4;stroke-width:1.5;"/>
   </g>
   <g id="LineCollection_7">
    <path clip-path="url(#p12e3995e41)" d="M 545.82034 378 
L 545.82034 378 
" style="fill:none;stroke:#ff00ff;stroke-dasharray:5.55,2.4;stroke-dashoffset:0;stroke-opacity:0.4;stroke-width:1.5;"/>
   </g>
   <g id="LineCollection_8">
    <path clip-path="url(#p12e3995e41)" d="M 617.563124 375.826878 
L 617.563124 373.579438 
" style="fill:none;stroke:#ff00ff;stroke-dasharray:5.55,2.4;stroke-dashoffset:0;stroke-opacity:0.4;stroke-width:1.5;"/>
   </g>
   <g id="LineCollection_9">
    <path clip-path="url(#p12e3995e41)" d="M 115.363636 378 
L 115.363636 378 
" style="fill:none;stroke:#ff00ff;stroke-dasharray:5.55,2.4;stroke-dashoffset:0;stroke-opacity:0.4;stroke-width:1.5;"/>
   </g>
   <g id="LineCollection_10">
    <path clip-path="url(#p12e3995e41)" d="M 187.10642 378 
L 187.10642 378 
" style="fill:none;stroke:#ff00ff;stroke-dasharray:5.55,2.4;stroke-dashoffset:0;stroke-opacity:0.4;stroke-width:1.5;"/>
   </g>
   <g id="LineCollection_11">
    <path clip-path="url(#p12e3995e41)" d="M 258.849204 378 
L 258.849204 378 
" style="fill:none;stroke:#ff00ff;stroke-dasharray:5.55,2.4;stroke-dashoffset:0;stroke-opacity:0.4;stroke-width:1.5;"/>
   </g>
   <g id="LineCollection_12">
    <path clip-path="url(#p12e3995e41)" d="M 330.591988 367.684782 
L 330.591988 350.401534 
" style="fill:none;stroke:#ff00ff;stroke-dasharray:5.55,2.4;stroke-dashoffset:0;stroke-opacity:0.4;stroke-width:1.5;"/>
   </g>
   <g id="LineCollection_13">
    <path clip-path="url(#p12e3995e41)" d="M 402.334772 367.236294 
L 402.334772 349.201601 
" style="fill:none;stroke:#ff00ff;stroke-dasharray:5.55,2.4;stroke-dashoffset:0;stroke-opacity:0.4;stroke-width:1.5;"/>
   </g>
   <g id="LineCollection_14">
    <path clip-path="url(#p12e3995e41)" d="M 474.077556 370.375708 
L 474.077556 357.601134 
" style="fill:none;stroke:#ff00ff;stroke-dasharray:5.55,2.4;stroke-dashoffset:0;stroke-opacity:0.4;stroke-width:1.5;"/>
   </g>
   <g id="LineCollection_15">
    <path clip-path="url(#p12e3995e41)" d="M 545.82034 377.551512 
L 545.82034 376.800067 
" style="fill:none;stroke:#ff00ff;stroke-dasharray:5.55,2.4;stroke-dashoffset:0;stroke-opacity:0.4;stroke-width:1.5;"/>
   </g>
   <g id="LineCollection_16">
    <path clip-path="url(#p12e3995e41)" d="M 617.563124 377.103024 
L 617.563124 375.600133 
" style="fill:none;stroke:#ff00ff;stroke-dasharray:5.55,2.4;stroke-dashoffset:0;stroke-opacity:0.4;stroke-width:1.5;"/>
   </g>
   <g id="LineCollection_17">
    <path clip-path="url(#p12e3995e41)" d="M 115.363636 378 
L 115.363636 378 
" style="fill:none;stroke:#ff00ff;stroke-dasharray:5.55,2.4;stroke-dashoffset:0;stroke-opacity:0.4;stroke-width:1.5;"/>
   </g>
   <g id="LineCollection_18">
    <path clip-path="url(#p12e3995e41)" d="M 187.10642 378 
L 187.10642 378 
" style="fill:none;stroke:#ff00ff;stroke-dasharray:5.55,2.4;stroke-dashoffset:0;stroke-opacity:0.4;stroke-width:1.5;"/>
   </g>
   <g id="LineCollection_19">
    <path clip-path="url(#p12e3995e41)" d="M 258.849204 374.751453 
L 258.849204 371.358021 
" style="fill:none;stroke:#ff00ff;stroke-dasharray:5.55,2.4;stroke-dashoffset:0;stroke-opacity:0.4;stroke-width:1.5;"/>
   </g>
   <g id="LineCollection_20">
    <path clip-path="url(#p12e3995e41)" d="M 330.591988 352.011625 
L 330.591988 324.864165 
" style="fill:none;stroke:#ff00ff;stroke-dasharray:5.55,2.4;stroke-dashoffset:0;stroke-opacity:0.4;stroke-width:1.5;"/>
   </g>
   <g id="LineCollection_21">
    <path clip-path="url(#p12e3995e41)" d="M 402.334772 222.069748 
L 402.334772 59.184989 
" style="fill:none;stroke:#ff00ff;stroke-dasharray:5.55,2.4;stroke-dashoffset:0;stroke-opacity:0.4;stroke-width:1.5;"/>
   </g>
   <g id="LineCollection_22">
    <path clip-path="url(#p12e3995e41)" d="M 474.077556 358.508718 
L 474.077556 338.148124 
" style="fill:none;stroke:#ff00ff;stroke-dasharray:5.55,2.4;stroke-dashoffset:0;stroke-opacity:0.4;stroke-width:1.5;"/>
   </g>
   <g id="LineCollection_23">
    <path clip-path="url(#p12e3995e41)" d="M 545.82034 376.917151 
L 545.82034 375.786007 
" style="fill:none;stroke:#ff00ff;stroke-dasharray:5.55,2.4;stroke-dashoffset:0;stroke-opacity:0.4;stroke-width:1.5;"/>
   </g>
   <g id="LineCollection_24">
    <path clip-path="url(#p12e3995e41)" d="M 617.563124 376.917151 
L 617.563124 375.786007 
" style="fill:none;stroke:#ff00ff;stroke-dasharray:5.55,2.4;stroke-dashoffset:0;stroke-opacity:0.4;stroke-width:1.5;"/>
   </g>
   <g id="line2d_26">
    <defs>
     <path d="M 0 2 
C 0.530406 2 1.03916 1.789267 1.414214 1.414214 
C 1.789267 1.03916 2 0.530406 2 0 
C 2 -0.530406 1.789267 -1.03916 1.414214 -1.414214 
C 1.03916 -1.789267 0.530406 -2 0 -2 
C -0.530406 -2 -1.03916 -1.789267 -1.414214 -1.414214 
C -1.789267 -1.03916 -2 -0.530406 -2 0 
C -2 0.530406 -1.789267 1.03916 -1.414214 1.414214 
C -1.03916 1.789267 -0.530406 2 0 2 
z
" id="mba244959d2" style="stroke:#ff00ff;stroke-opacity:0.4;"/>
    </defs>
    <g clip-path="url(#p12e3995e41)">
     <use style="fill:#ff00ff;fill-opacity:0.4;stroke:#ff00ff;stroke-opacity:0.4;" x="115.363636" xlink:href="#mba244959d2" y="378"/>
    </g>
   </g>
   <g id="line2d_27">
    <g clip-path="url(#p12e3995e41)">
     <use style="fill:#ff00ff;fill-opacity:0.4;stroke:#ff00ff;stroke-opacity:0.4;" x="115.363636" xlink:href="#mba244959d2" y="378"/>
    </g>
   </g>
   <g id="line2d_28">
    <g clip-path="url(#p12e3995e41)">
     <use style="fill:#ff00ff;fill-opacity:0.4;stroke:#ff00ff;stroke-opacity:0.4;" x="187.10642" xlink:href="#mba244959d2" y="377.456719"/>
    </g>
   </g>
   <g id="line2d_29">
    <g clip-path="url(#p12e3995e41)">
     <use style="fill:#ff00ff;fill-opacity:0.4;stroke:#ff00ff;stroke-opacity:0.4;" x="187.10642" xlink:href="#mba244959d2" y="376.894859"/>
    </g>
   </g>
   <g id="line2d_30">
    <g clip-path="url(#p12e3995e41)">
     <use style="fill:#ff00ff;fill-opacity:0.4;stroke:#ff00ff;stroke-opacity:0.4;" x="258.849204" xlink:href="#mba244959d2" y="360.071742"/>
    </g>
   </g>
   <g id="line2d_31">
    <g clip-path="url(#p12e3995e41)">
     <use style="fill:#ff00ff;fill-opacity:0.4;stroke:#ff00ff;stroke-opacity:0.4;" x="258.849204" xlink:href="#mba244959d2" y="341.530363"/>
    </g>
   </g>
   <g id="line2d_32">
    <g clip-path="url(#p12e3995e41)">
     <use style="fill:#ff00ff;fill-opacity:0.4;stroke:#ff00ff;stroke-opacity:0.4;" x="330.591988" xlink:href="#mba244959d2" y="349.749411"/>
    </g>
   </g>
   <g id="line2d_33">
    <g clip-path="url(#p12e3995e41)">
     <use style="fill:#ff00ff;fill-opacity:0.4;stroke:#ff00ff;stroke-opacity:0.4;" x="330.591988" xlink:href="#mba244959d2" y="320.532694"/>
    </g>
   </g>
   <g id="line2d_34">
    <g clip-path="url(#p12e3995e41)">
     <use style="fill:#ff00ff;fill-opacity:0.4;stroke:#ff00ff;stroke-opacity:0.4;" x="402.334772" xlink:href="#mba244959d2" y="178.072757"/>
    </g>
   </g>
   <g id="line2d_35">
    <g clip-path="url(#p12e3995e41)"/>
   </g>
   <g id="line2d_36">
    <g clip-path="url(#p12e3995e41)">
     <use style="fill:#ff00ff;fill-opacity:0.4;stroke:#ff00ff;stroke-opacity:0.4;" x="474.077556" xlink:href="#mba244959d2" y="359.528461"/>
    </g>
   </g>
   <g id="line2d_37">
    <g clip-path="url(#p12e3995e41)">
     <use style="fill:#ff00ff;fill-opacity:0.4;stroke:#ff00ff;stroke-opacity:0.4;" x="474.077556" xlink:href="#mba244959d2" y="340.425223"/>
    </g>
   </g>
   <g id="line2d_38">
    <g clip-path="url(#p12e3995e41)">
     <use style="fill:#ff00ff;fill-opacity:0.4;stroke:#ff00ff;stroke-opacity:0.4;" x="545.82034" xlink:href="#mba244959d2" y="378"/>
    </g>
   </g>
   <g id="line2d_39">
    <g clip-path="url(#p12e3995e41)">
     <use style="fill:#ff00ff;fill-opacity:0.4;stroke:#ff00ff;stroke-opacity:0.4;" x="545.82034" xlink:href="#mba244959d2" y="378"/>
    </g>
   </g>
   <g id="line2d_40">
    <g clip-path="url(#p12e3995e41)">
     <use style="fill:#ff00ff;fill-opacity:0.4;stroke:#ff00ff;stroke-opacity:0.4;" x="617.563124" xlink:href="#mba244959d2" y="375.826878"/>
    </g>
   </g>
   <g id="line2d_41">
    <g clip-path="url(#p12e3995e41)">
     <use style="fill:#ff00ff;fill-opacity:0.4;stroke:#ff00ff;stroke-opacity:0.4;" x="617.563124" xlink:href="#mba244959d2" y="373.579438"/>
    </g>
   </g>
   <g id="line2d_42">
    <path clip-path="url(#p12e3995e41)" d="M 115.363636 378 
L 187.10642 377.175789 
L 258.849204 350.801053 
L 330.591988 335.141053 
L 402.334772 74.690526 
L 474.077556 349.976842 
L 545.82034 378 
L 617.563124 374.703158 
" style="fill:none;stroke:#8b0000;stroke-linecap:round;stroke-width:3;"/>
   </g>
   <g id="line2d_43">
    <g clip-path="url(#p12e3995e41)">
     <use style="fill:#ff00ff;fill-opacity:0.4;stroke:#ff00ff;stroke-opacity:0.4;" x="115.363636" xlink:href="#mba244959d2" y="378"/>
    </g>
   </g>
   <g id="line2d_44">
    <g clip-path="url(#p12e3995e41)">
     <use style="fill:#ff00ff;fill-opacity:0.4;stroke:#ff00ff;stroke-opacity:0.4;" x="115.363636" xlink:href="#mba244959d2" y="378"/>
    </g>
   </g>
   <g id="line2d_45">
    <g clip-path="url(#p12e3995e41)">
     <use style="fill:#ff00ff;fill-opacity:0.4;stroke:#ff00ff;stroke-opacity:0.4;" x="187.10642" xlink:href="#mba244959d2" y="378"/>
    </g>
   </g>
   <g id="line2d_46">
    <g clip-path="url(#p12e3995e41)">
     <use style="fill:#ff00ff;fill-opacity:0.4;stroke:#ff00ff;stroke-opacity:0.4;" x="187.10642" xlink:href="#mba244959d2" y="378"/>
    </g>
   </g>
   <g id="line2d_47">
    <g clip-path="url(#p12e3995e41)">
     <use style="fill:#ff00ff;fill-opacity:0.4;stroke:#ff00ff;stroke-opacity:0.4;" x="258.849204" xlink:href="#mba244959d2" y="378"/>
    </g>
   </g>
   <g id="line2d_48">
    <g clip-path="url(#p12e3995e41)">
     <use style="fill:#ff00ff;fill-opacity:0.4;stroke:#ff00ff;stroke-opacity:0.4;" x="258.849204" xlink:href="#mba244959d2" y="378"/>
    </g>
   </g>
   <g id="line2d_49">
    <g clip-path="url(#p12e3995e41)">
     <use style="fill:#ff00ff;fill-opacity:0.4;stroke:#ff00ff;stroke-opacity:0.4;" x="330.591988" xlink:href="#mba244959d2" y="367.684782"/>
    </g>
   </g>
   <g id="line2d_50">
    <g clip-path="url(#p12e3995e41)">
     <use style="fill:#ff00ff;fill-opacity:0.4;stroke:#ff00ff;stroke-opacity:0.4;" x="330.591988" xlink:href="#mba244959d2" y="350.401534"/>
    </g>
   </g>
   <g id="line2d_51">
    <g clip-path="url(#p12e3995e41)">
     <use style="fill:#ff00ff;fill-opacity:0.4;stroke:#ff00ff;stroke-opacity:0.4;" x="402.334772" xlink:href="#mba244959d2" y="367.236294"/>
    </g>
   </g>
   <g id="line2d_52">
    <g clip-path="url(#p12e3995e41)">
     <use style="fill:#ff00ff;fill-opacity:0.4;stroke:#ff00ff;stroke-opacity:0.4;" x="402.334772" xlink:href="#mba244959d2" y="349.201601"/>
    </g>
   </g>
   <g id="line2d_53">
    <g clip-path="url(#p12e3995e41)">
     <use style="fill:#ff00ff;fill-opacity:0.4;stroke:#ff00ff;stroke-opacity:0.4;" x="474.077556" xlink:href="#mba244959d2" y="370.375708"/>
    </g>
   </g>
   <g id="line2d_54">
    <g clip-path="url(#p12e3995e41)">
     <use style="fill:#ff00ff;fill-opacity:0.4;stroke:#ff00ff;stroke-opacity:0.4;" x="474.077556" xlink:href="#mba244959d2" y="357.601134"/>
    </g>
   </g>
   <g id="line2d_55">
    <g clip-path="url(#p12e3995e41)">
     <use style="fill:#ff00ff;fill-opacity:0.4;stroke:#ff00ff;stroke-opacity:0.4;" x="545.82034" xlink:href="#mba244959d2" y="377.551512"/>
    </g>
   </g>
   <g id="line2d_56">
    <g clip-path="url(#p12e3995e41)">
     <use style="fill:#ff00ff;fill-opacity:0.4;stroke:#ff00ff;stroke-opacity:0.4;" x="545.82034" xlink:href="#mba244959d2" y="376.800067"/>
    </g>
   </g>
   <g id="line2d_57">
    <g clip-path="url(#p12e3995e41)">
     <use style="fill:#ff00ff;fill-opacity:0.4;stroke:#ff00ff;stroke-opacity:0.4;" x="617.563124" xlink:href="#mba244959d2" y="377.103024"/>
    </g>
   </g>
   <g id="line2d_58">
    <g clip-path="url(#p12e3995e41)">
     <use style="fill:#ff00ff;fill-opacity:0.4;stroke:#ff00ff;stroke-opacity:0.4;" x="617.563124" xlink:href="#mba244959d2" y="375.600133"/>
    </g>
   </g>
   <g id="line2d_59">
    <path clip-path="url(#p12e3995e41)" d="M 115.363636 378 
L 187.10642 378 
L 258.849204 378 
L 330.591988 359.043158 
L 402.334772 358.218947 
L 474.077556 363.988421 
L 545.82034 377.175789 
L 617.563124 376.351579 
" style="fill:none;stroke:#00008b;stroke-linecap:round;stroke-width:3;"/>
   </g>
   <g id="line2d_60">
    <g clip-path="url(#p12e3995e41)">
     <use style="fill:#ff00ff;fill-opacity:0.4;stroke:#ff00ff;stroke-opacity:0.4;" x="115.363636" xlink:href="#mba244959d2" y="378"/>
    </g>
   </g>
   <g id="line2d_61">
    <g clip-path="url(#p12e3995e41)">
     <use style="fill:#ff00ff;fill-opacity:0.4;stroke:#ff00ff;stroke-opacity:0.4;" x="115.363636" xlink:href="#mba244959d2" y="378"/>
    </g>
   </g>
   <g id="line2d_62">
    <g clip-path="url(#p12e3995e41)">
     <use style="fill:#ff00ff;fill-opacity:0.4;stroke:#ff00ff;stroke-opacity:0.4;" x="187.10642" xlink:href="#mba244959d2" y="378"/>
    </g>
   </g>
   <g id="line2d_63">
    <g clip-path="url(#p12e3995e41)">
     <use style="fill:#ff00ff;fill-opacity:0.4;stroke:#ff00ff;stroke-opacity:0.4;" x="187.10642" xlink:href="#mba244959d2" y="378"/>
    </g>
   </g>
   <g id="line2d_64">
    <g clip-path="url(#p12e3995e41)">
     <use style="fill:#ff00ff;fill-opacity:0.4;stroke:#ff00ff;stroke-opacity:0.4;" x="258.849204" xlink:href="#mba244959d2" y="374.751453"/>
    </g>
   </g>
   <g id="line2d_65">
    <g clip-path="url(#p12e3995e41)">
     <use style="fill:#ff00ff;fill-opacity:0.4;stroke:#ff00ff;stroke-opacity:0.4;" x="258.849204" xlink:href="#mba244959d2" y="371.358021"/>
    </g>
   </g>
   <g id="line2d_66">
    <g clip-path="url(#p12e3995e41)">
     <use style="fill:#ff00ff;fill-opacity:0.4;stroke:#ff00ff;stroke-opacity:0.4;" x="330.591988" xlink:href="#mba244959d2" y="352.011625"/>
    </g>
   </g>
   <g id="line2d_67">
    <g clip-path="url(#p12e3995e41)">
     <use style="fill:#ff00ff;fill-opacity:0.4;stroke:#ff00ff;stroke-opacity:0.4;" x="330.591988" xlink:href="#mba244959d2" y="324.864165"/>
    </g>
   </g>
   <g id="line2d_68">
    <g clip-path="url(#p12e3995e41)">
     <use style="fill:#ff00ff;fill-opacity:0.4;stroke:#ff00ff;stroke-opacity:0.4;" x="402.334772" xlink:href="#mba244959d2" y="222.069748"/>
    </g>
   </g>
   <g id="line2d_69">
    <g clip-path="url(#p12e3995e41)">
     <use style="fill:#ff00ff;fill-opacity:0.4;stroke:#ff00ff;stroke-opacity:0.4;" x="402.334772" xlink:href="#mba244959d2" y="59.184989"/>
    </g>
   </g>
   <g id="line2d_70">
    <g clip-path="url(#p12e3995e41)">
     <use style="fill:#ff00ff;fill-opacity:0.4;stroke:#ff00ff;stroke-opacity:0.4;" x="474.077556" xlink:href="#mba244959d2" y="358.508718"/>
    </g>
   </g>
   <g id="line2d_71">
    <g clip-path="url(#p12e3995e41)">
     <use style="fill:#ff00ff;fill-opacity:0.4;stroke:#ff00ff;stroke-opacity:0.4;" x="474.077556" xlink:href="#mba244959d2" y="338.148124"/>
    </g>
   </g>
   <g id="line2d_72">
    <g clip-path="url(#p12e3995e41)">
     <use style="fill:#ff00ff;fill-opacity:0.4;stroke:#ff00ff;stroke-opacity:0.4;" x="545.82034" xlink:href="#mba244959d2" y="376.917151"/>
    </g>
   </g>
   <g id="line2d_73">
    <g clip-path="url(#p12e3995e41)">
     <use style="fill:#ff00ff;fill-opacity:0.4;stroke:#ff00ff;stroke-opacity:0.4;" x="545.82034" xlink:href="#mba244959d2" y="375.786007"/>
    </g>
   </g>
   <g id="line2d_74">
    <g clip-path="url(#p12e3995e41)">
     <use style="fill:#ff00ff;fill-opacity:0.4;stroke:#ff00ff;stroke-opacity:0.4;" x="617.563124" xlink:href="#mba244959d2" y="376.917151"/>
    </g>
   </g>
   <g id="line2d_75">
    <g clip-path="url(#p12e3995e41)">
     <use style="fill:#ff00ff;fill-opacity:0.4;stroke:#ff00ff;stroke-opacity:0.4;" x="617.563124" xlink:href="#mba244959d2" y="375.786007"/>
    </g>
   </g>
   <g id="line2d_76">
    <path clip-path="url(#p12e3995e41)" d="M 115.363636 378 
L 187.10642 378 
L 258.849204 373.054737 
L 330.591988 338.437895 
L 402.334772 140.627368 
L 474.077556 348.328421 
L 545.82034 376.351579 
L 617.563124 376.351579 
" style="fill:none;stroke:#008080;stroke-linecap:round;stroke-width:3;"/>
   </g>
   <g id="line2d_77">
    <path clip-path="url(#p12e3995e41)" d="M 115.363636 378 
" style="fill:none;stroke:#4c72b0;stroke-linecap:round;stroke-opacity:0.4;stroke-width:1.5;"/>
   </g>
   <g id="line2d_78">
    <path clip-path="url(#p12e3995e41)" d="M 187.10642 377.175789 
" style="fill:none;stroke:#dd8452;stroke-linecap:round;stroke-opacity:0.4;stroke-width:1.5;"/>
   </g>
   <g id="line2d_79">
    <path clip-path="url(#p12e3995e41)" d="M 258.849204 350.801053 
" style="fill:none;stroke:#55a868;stroke-linecap:round;stroke-opacity:0.4;stroke-width:1.5;"/>
   </g>
   <g id="line2d_80">
    <path clip-path="url(#p12e3995e41)" d="M 330.591988 335.141053 
" style="fill:none;stroke:#c44e52;stroke-linecap:round;stroke-opacity:0.4;stroke-width:1.5;"/>
   </g>
   <g id="line2d_81">
    <path clip-path="url(#p12e3995e41)" d="M 402.334772 74.690526 
" style="fill:none;stroke:#8172b3;stroke-linecap:round;stroke-opacity:0.4;stroke-width:1.5;"/>
   </g>
   <g id="line2d_82">
    <path clip-path="url(#p12e3995e41)" d="M 474.077556 349.976842 
" style="fill:none;stroke:#937860;stroke-linecap:round;stroke-opacity:0.4;stroke-width:1.5;"/>
   </g>
   <g id="line2d_83">
    <path clip-path="url(#p12e3995e41)" d="M 545.82034 378 
" style="fill:none;stroke:#da8bc3;stroke-linecap:round;stroke-opacity:0.4;stroke-width:1.5;"/>
   </g>
   <g id="line2d_84">
    <path clip-path="url(#p12e3995e41)" d="M 617.563124 374.703158 
" style="fill:none;stroke:#8c8c8c;stroke-linecap:round;stroke-opacity:0.4;stroke-width:1.5;"/>
   </g>
   <g id="line2d_85">
    <path clip-path="url(#p12e3995e41)" d="M 115.363636 378 
" style="fill:none;stroke:#ccb974;stroke-linecap:round;stroke-opacity:0.4;stroke-width:1.5;"/>
   </g>
   <g id="line2d_86">
    <path clip-path="url(#p12e3995e41)" d="M 187.10642 378 
" style="fill:none;stroke:#64b5cd;stroke-linecap:round;stroke-opacity:0.4;stroke-width:1.5;"/>
   </g>
   <g id="line2d_87">
    <path clip-path="url(#p12e3995e41)" d="M 258.849204 378 
" style="fill:none;stroke:#4c72b0;stroke-linecap:round;stroke-opacity:0.4;stroke-width:1.5;"/>
   </g>
   <g id="line2d_88">
    <path clip-path="url(#p12e3995e41)" d="M 330.591988 359.043158 
" style="fill:none;stroke:#dd8452;stroke-linecap:round;stroke-opacity:0.4;stroke-width:1.5;"/>
   </g>
   <g id="line2d_89">
    <path clip-path="url(#p12e3995e41)" d="M 402.334772 358.218947 
" style="fill:none;stroke:#55a868;stroke-linecap:round;stroke-opacity:0.4;stroke-width:1.5;"/>
   </g>
   <g id="line2d_90">
    <path clip-path="url(#p12e3995e41)" d="M 474.077556 363.988421 
" style="fill:none;stroke:#c44e52;stroke-linecap:round;stroke-opacity:0.4;stroke-width:1.5;"/>
   </g>
   <g id="line2d_91">
    <path clip-path="url(#p12e3995e41)" d="M 545.82034 377.175789 
" style="fill:none;stroke:#8172b3;stroke-linecap:round;stroke-opacity:0.4;stroke-width:1.5;"/>
   </g>
   <g id="line2d_92">
    <path clip-path="url(#p12e3995e41)" d="M 617.563124 376.351579 
" style="fill:none;stroke:#937860;stroke-linecap:round;stroke-opacity:0.4;stroke-width:1.5;"/>
   </g>
   <g id="line2d_93">
    <path clip-path="url(#p12e3995e41)" d="M 115.363636 378 
" style="fill:none;stroke:#da8bc3;stroke-linecap:round;stroke-opacity:0.4;stroke-width:1.5;"/>
   </g>
   <g id="line2d_94">
    <path clip-path="url(#p12e3995e41)" d="M 187.10642 378 
" style="fill:none;stroke:#8c8c8c;stroke-linecap:round;stroke-opacity:0.4;stroke-width:1.5;"/>
   </g>
   <g id="line2d_95">
    <path clip-path="url(#p12e3995e41)" d="M 258.849204 373.054737 
" style="fill:none;stroke:#ccb974;stroke-linecap:round;stroke-opacity:0.4;stroke-width:1.5;"/>
   </g>
   <g id="line2d_96">
    <path clip-path="url(#p12e3995e41)" d="M 330.591988 338.437895 
" style="fill:none;stroke:#64b5cd;stroke-linecap:round;stroke-opacity:0.4;stroke-width:1.5;"/>
   </g>
   <g id="line2d_97">
    <path clip-path="url(#p12e3995e41)" d="M 402.334772 140.627368 
" style="fill:none;stroke:#4c72b0;stroke-linecap:round;stroke-opacity:0.4;stroke-width:1.5;"/>
   </g>
   <g id="line2d_98">
    <path clip-path="url(#p12e3995e41)" d="M 474.077556 348.328421 
" style="fill:none;stroke:#dd8452;stroke-linecap:round;stroke-opacity:0.4;stroke-width:1.5;"/>
   </g>
   <g id="line2d_99">
    <path clip-path="url(#p12e3995e41)" d="M 545.82034 376.351579 
" style="fill:none;stroke:#55a868;stroke-linecap:round;stroke-opacity:0.4;stroke-width:1.5;"/>
   </g>
   <g id="line2d_100">
    <path clip-path="url(#p12e3995e41)" d="M 617.563124 376.351579 
" style="fill:none;stroke:#c44e52;stroke-linecap:round;stroke-opacity:0.4;stroke-width:1.5;"/>
   </g>
   <g id="patch_56">
    <path d="M 90 378 
L 90 64.8 
" style="fill:none;stroke:#cccccc;stroke-linecap:square;stroke-linejoin:miter;stroke-width:1.25;"/>
   </g>
   <g id="patch_57">
    <path d="M 648 378 
L 648 64.8 
" style="fill:none;stroke:#cccccc;stroke-linecap:square;stroke-linejoin:miter;stroke-width:1.25;"/>
   </g>
   <g id="patch_58">
    <path d="M 90 378 
L 648 378 
" style="fill:none;stroke:#cccccc;stroke-linecap:square;stroke-linejoin:miter;stroke-width:1.25;"/>
   </g>
   <g id="patch_59">
    <path d="M 90 64.8 
L 648 64.8 
" style="fill:none;stroke:#cccccc;stroke-linecap:square;stroke-linejoin:miter;stroke-width:1.25;"/>
   </g>
   <g id="text_27">
    <!-- June - July 2017; medium: Easygel+, 24hrs, n=24 -->
    <g style="fill:#262626;" transform="translate(192.90875 49.404)scale(0.16 -0.16)">
     <defs>
      <path d="M 2.875 20.3125 
L 11.421875 21.484375 
Q 11.765625 13.28125 14.5 10.25 
Q 17.234375 7.234375 22.078125 7.234375 
Q 25.640625 7.234375 28.21875 8.859375 
Q 30.8125 10.5 31.78125 13.296875 
Q 32.765625 16.109375 32.765625 22.265625 
L 32.765625 71.578125 
L 42.234375 71.578125 
L 42.234375 22.796875 
Q 42.234375 13.8125 40.0625 8.875 
Q 37.890625 3.953125 33.171875 1.359375 
Q 28.46875 -1.21875 22.125 -1.21875 
Q 12.703125 -1.21875 7.6875 4.203125 
Q 2.6875 9.625 2.875 20.3125 
z
" id="ArialMT-74"/>
      <path d="M 3.171875 21.484375 
L 3.171875 30.328125 
L 30.171875 30.328125 
L 30.171875 21.484375 
z
" id="ArialMT-45"/>
      <path d="M 8.890625 41.84375 
L 8.890625 51.859375 
L 18.890625 51.859375 
L 18.890625 41.84375 
z
M 8.890625 0 
L 8.890625 10.015625 
L 18.890625 10.015625 
L 18.890625 0 
Q 18.890625 -5.515625 16.9375 -8.90625 
Q 14.984375 -12.3125 10.75 -14.15625 
L 8.296875 -10.40625 
Q 11.078125 -9.1875 12.390625 -6.8125 
Q 13.71875 -4.4375 13.875 0 
z
" id="ArialMT-59"/>
      <path d="M 9.03125 41.84375 
L 9.03125 51.859375 
L 19.046875 51.859375 
L 19.046875 41.84375 
z
M 9.03125 0 
L 9.03125 10.015625 
L 19.046875 10.015625 
L 19.046875 0 
z
" id="ArialMT-58"/>
      <path d="M 7.90625 0 
L 7.90625 71.578125 
L 59.671875 71.578125 
L 59.671875 63.140625 
L 17.390625 63.140625 
L 17.390625 41.21875 
L 56.984375 41.21875 
L 56.984375 32.8125 
L 17.390625 32.8125 
L 17.390625 8.453125 
L 61.328125 8.453125 
L 61.328125 0 
z
" id="ArialMT-69"/>
      <path d="M 25.046875 11.578125 
L 25.046875 31.203125 
L 5.5625 31.203125 
L 5.5625 39.40625 
L 25.046875 39.40625 
L 25.046875 58.890625 
L 33.34375 58.890625 
L 33.34375 39.40625 
L 52.828125 39.40625 
L 52.828125 31.203125 
L 33.34375 31.203125 
L 33.34375 11.578125 
z
" id="ArialMT-43"/>
      <path d="M 8.890625 0 
L 8.890625 10.015625 
L 18.890625 10.015625 
L 18.890625 0 
Q 18.890625 -5.515625 16.9375 -8.90625 
Q 14.984375 -12.3125 10.75 -14.15625 
L 8.296875 -10.40625 
Q 11.078125 -9.1875 12.390625 -6.8125 
Q 13.71875 -4.4375 13.875 0 
z
" id="ArialMT-44"/>
      <path d="M 6.59375 0 
L 6.59375 71.578125 
L 15.375 71.578125 
L 15.375 45.90625 
Q 21.53125 53.03125 30.90625 53.03125 
Q 36.671875 53.03125 40.921875 50.75 
Q 45.171875 48.484375 47 44.484375 
Q 48.828125 40.484375 48.828125 32.859375 
L 48.828125 0 
L 40.046875 0 
L 40.046875 32.859375 
Q 40.046875 39.453125 37.1875 42.453125 
Q 34.328125 45.453125 29.109375 45.453125 
Q 25.203125 45.453125 21.75 43.421875 
Q 18.3125 41.40625 16.84375 37.9375 
Q 15.375 34.46875 15.375 28.375 
L 15.375 0 
z
" id="ArialMT-104"/>
      <path d="M 52.828125 42.09375 
L 5.5625 42.09375 
L 5.5625 50.296875 
L 52.828125 50.296875 
z
M 52.828125 20.359375 
L 5.5625 20.359375 
L 5.5625 28.5625 
L 52.828125 28.5625 
z
" id="ArialMT-61"/>
     </defs>
     <use xlink:href="#ArialMT-74"/>
     <use x="50" xlink:href="#ArialMT-117"/>
     <use x="105.615234" xlink:href="#ArialMT-110"/>
     <use x="161.230469" xlink:href="#ArialMT-101"/>
     <use x="216.845703" xlink:href="#ArialMT-32"/>
     <use x="244.628906" xlink:href="#ArialMT-45"/>
     <use x="277.929688" xlink:href="#ArialMT-32"/>
     <use x="305.712891" xlink:href="#ArialMT-74"/>
     <use x="355.712891" xlink:href="#ArialMT-117"/>
     <use x="411.328125" xlink:href="#ArialMT-108"/>
     <use x="433.544922" xlink:href="#ArialMT-121"/>
     <use x="483.544922" xlink:href="#ArialMT-32"/>
     <use x="511.328125" xlink:href="#ArialMT-50"/>
     <use x="566.943359" xlink:href="#ArialMT-48"/>
     <use x="622.558594" xlink:href="#ArialMT-49"/>
     <use x="678.173828" xlink:href="#ArialMT-55"/>
     <use x="733.789062" xlink:href="#ArialMT-59"/>
     <use x="761.572266" xlink:href="#ArialMT-32"/>
     <use x="789.355469" xlink:href="#ArialMT-109"/>
     <use x="872.65625" xlink:href="#ArialMT-101"/>
     <use x="928.271484" xlink:href="#ArialMT-100"/>
     <use x="983.886719" xlink:href="#ArialMT-105"/>
     <use x="1006.103516" xlink:href="#ArialMT-117"/>
     <use x="1061.71875" xlink:href="#ArialMT-109"/>
     <use x="1145.019531" xlink:href="#ArialMT-58"/>
     <use x="1172.802734" xlink:href="#ArialMT-32"/>
     <use x="1200.585938" xlink:href="#ArialMT-69"/>
     <use x="1267.285156" xlink:href="#ArialMT-97"/>
     <use x="1322.900391" xlink:href="#ArialMT-115"/>
     <use x="1372.900391" xlink:href="#ArialMT-121"/>
     <use x="1422.900391" xlink:href="#ArialMT-103"/>
     <use x="1478.515625" xlink:href="#ArialMT-101"/>
     <use x="1534.130859" xlink:href="#ArialMT-108"/>
     <use x="1556.347656" xlink:href="#ArialMT-43"/>
     <use x="1614.746094" xlink:href="#ArialMT-44"/>
     <use x="1642.529297" xlink:href="#ArialMT-32"/>
     <use x="1670.3125" xlink:href="#ArialMT-50"/>
     <use x="1725.927734" xlink:href="#ArialMT-52"/>
     <use x="1781.542969" xlink:href="#ArialMT-104"/>
     <use x="1837.158203" xlink:href="#ArialMT-114"/>
     <use x="1870.458984" xlink:href="#ArialMT-115"/>
     <use x="1920.458984" xlink:href="#ArialMT-44"/>
     <use x="1948.242188" xlink:href="#ArialMT-32"/>
     <use x="1976.025391" xlink:href="#ArialMT-110"/>
     <use x="2031.640625" xlink:href="#ArialMT-61"/>
     <use x="2090.039062" xlink:href="#ArialMT-50"/>
     <use x="2145.654297" xlink:href="#ArialMT-52"/>
    </g>
   </g>
  </g>
  <g id="text_28">
   <!-- Weekly average total colony forming units -->
   <g style="fill:#262626;" transform="translate(212.07875 20.2875)scale(0.16 -0.16)">
    <defs>
     <path d="M 21 0 
L 1.265625 51.859375 
L 10.546875 51.859375 
L 21.6875 20.796875 
Q 23.484375 15.765625 25 10.359375 
Q 26.171875 14.453125 28.265625 20.21875 
L 39.796875 51.859375 
L 48.828125 51.859375 
L 29.203125 0 
z
" id="ArialMT-118"/>
    </defs>
    <use xlink:href="#ArialMT-87"/>
    <use x="92.634766" xlink:href="#ArialMT-101"/>
    <use x="148.25" xlink:href="#ArialMT-101"/>
    <use x="203.865234" xlink:href="#ArialMT-107"/>
    <use x="253.865234" xlink:href="#ArialMT-108"/>
    <use x="276.082031" xlink:href="#ArialMT-121"/>
    <use x="326.082031" xlink:href="#ArialMT-32"/>
    <use x="353.865234" xlink:href="#ArialMT-97"/>
    <use x="409.480469" xlink:href="#ArialMT-118"/>
    <use x="459.480469" xlink:href="#ArialMT-101"/>
    <use x="515.095703" xlink:href="#ArialMT-114"/>
    <use x="548.396484" xlink:href="#ArialMT-97"/>
    <use x="604.011719" xlink:href="#ArialMT-103"/>
    <use x="659.626953" xlink:href="#ArialMT-101"/>
    <use x="715.242188" xlink:href="#ArialMT-32"/>
    <use x="743.025391" xlink:href="#ArialMT-116"/>
    <use x="770.808594" xlink:href="#ArialMT-111"/>
    <use x="826.423828" xlink:href="#ArialMT-116"/>
    <use x="854.207031" xlink:href="#ArialMT-97"/>
    <use x="909.822266" xlink:href="#ArialMT-108"/>
    <use x="932.039062" xlink:href="#ArialMT-32"/>
    <use x="959.822266" xlink:href="#ArialMT-99"/>
    <use x="1009.822266" xlink:href="#ArialMT-111"/>
    <use x="1065.4375" xlink:href="#ArialMT-108"/>
    <use x="1087.654297" xlink:href="#ArialMT-111"/>
    <use x="1143.269531" xlink:href="#ArialMT-110"/>
    <use x="1198.884766" xlink:href="#ArialMT-121"/>
    <use x="1248.884766" xlink:href="#ArialMT-32"/>
    <use x="1276.667969" xlink:href="#ArialMT-102"/>
    <use x="1304.451172" xlink:href="#ArialMT-111"/>
    <use x="1360.066406" xlink:href="#ArialMT-114"/>
    <use x="1393.367188" xlink:href="#ArialMT-109"/>
    <use x="1476.667969" xlink:href="#ArialMT-105"/>
    <use x="1498.884766" xlink:href="#ArialMT-110"/>
    <use x="1554.5" xlink:href="#ArialMT-103"/>
    <use x="1610.115234" xlink:href="#ArialMT-32"/>
    <use x="1637.898438" xlink:href="#ArialMT-117"/>
    <use x="1693.513672" xlink:href="#ArialMT-110"/>
    <use x="1749.128906" xlink:href="#ArialMT-105"/>
    <use x="1771.345703" xlink:href="#ArialMT-116"/>
    <use x="1799.128906" xlink:href="#ArialMT-115"/>
   </g>
  </g>
  <g id="legend_1">
   <g id="patch_60">
    <path d="M 535.2 194.4 
L 630.27375 194.4 
Q 632.67375 194.4 632.67375 192 
L 632.67375 125.3025 
Q 632.67375 122.9025 630.27375 122.9025 
L 535.2 122.9025 
Q 532.8 122.9025 532.8 125.3025 
L 532.8 192 
Q 532.8 194.4 535.2 194.4 
z
" style="fill:#ffffff;opacity:0.8;stroke:#191970;stroke-linejoin:miter;"/>
   </g>
   <g id="patch_61">
    <path d="M 537.6 136.291875 
L 561.6 136.291875 
L 561.6 127.891875 
L 537.6 127.891875 
z
" style="fill:#87cefa;opacity:0.4;stroke:#ffffff;stroke-linejoin:miter;"/>
   </g>
   <g id="text_29">
    <!-- mm of rain -->
    <g style="fill:#262626;" transform="translate(571.2 136.291875)scale(0.12 -0.12)">
     <use xlink:href="#ArialMT-109"/>
     <use x="83.300781" xlink:href="#ArialMT-109"/>
     <use x="166.601562" xlink:href="#ArialMT-32"/>
     <use x="194.384766" xlink:href="#ArialMT-111"/>
     <use x="250" xlink:href="#ArialMT-102"/>
     <use x="277.783203" xlink:href="#ArialMT-32"/>
     <use x="305.566406" xlink:href="#ArialMT-114"/>
     <use x="338.867188" xlink:href="#ArialMT-97"/>
     <use x="394.482422" xlink:href="#ArialMT-105"/>
     <use x="416.699219" xlink:href="#ArialMT-110"/>
    </g>
   </g>
   <g id="line2d_101">
    <path d="M 537.6 149.06625 
L 561.6 149.06625 
" style="fill:none;stroke:#8b0000;stroke-linecap:round;stroke-width:3;"/>
   </g>
   <g id="line2d_102"/>
   <g id="text_30">
    <!-- MRD -->
    <g style="fill:#262626;" transform="translate(571.2 153.26625)scale(0.12 -0.12)">
     <defs>
      <path d="M 7.859375 0 
L 7.859375 71.578125 
L 39.59375 71.578125 
Q 49.171875 71.578125 54.140625 69.640625 
Q 59.125 67.71875 62.109375 62.828125 
Q 65.09375 57.953125 65.09375 52.046875 
Q 65.09375 44.4375 60.15625 39.203125 
Q 55.21875 33.984375 44.921875 32.5625 
Q 48.6875 30.765625 50.640625 29 
Q 54.78125 25.203125 58.5 19.484375 
L 70.953125 0 
L 59.03125 0 
L 49.5625 14.890625 
Q 45.40625 21.34375 42.71875 24.75 
Q 40.046875 28.171875 37.921875 29.53125 
Q 35.796875 30.90625 33.59375 31.453125 
Q 31.984375 31.78125 28.328125 31.78125 
L 17.328125 31.78125 
L 17.328125 0 
z
M 17.328125 39.984375 
L 37.703125 39.984375 
Q 44.1875 39.984375 47.84375 41.328125 
Q 51.515625 42.671875 53.421875 45.625 
Q 55.328125 48.578125 55.328125 52.046875 
Q 55.328125 57.125 51.640625 60.390625 
Q 47.953125 63.671875 39.984375 63.671875 
L 17.328125 63.671875 
z
" id="ArialMT-82"/>
      <path d="M 7.71875 0 
L 7.71875 71.578125 
L 32.375 71.578125 
Q 40.71875 71.578125 45.125 70.5625 
Q 51.265625 69.140625 55.609375 65.4375 
Q 61.28125 60.640625 64.078125 53.1875 
Q 66.890625 45.75 66.890625 36.1875 
Q 66.890625 28.03125 64.984375 21.734375 
Q 63.09375 15.4375 60.109375 11.296875 
Q 57.125 7.171875 53.578125 4.796875 
Q 50.046875 2.4375 45.046875 1.21875 
Q 40.046875 0 33.546875 0 
z
M 17.1875 8.453125 
L 32.46875 8.453125 
Q 39.546875 8.453125 43.578125 9.765625 
Q 47.609375 11.078125 50 13.484375 
Q 53.375 16.84375 55.25 22.53125 
Q 57.125 28.21875 57.125 36.328125 
Q 57.125 47.5625 53.4375 53.59375 
Q 49.75 59.625 44.484375 61.671875 
Q 40.671875 63.140625 32.234375 63.140625 
L 17.1875 63.140625 
z
" id="ArialMT-68"/>
     </defs>
     <use xlink:href="#ArialMT-77"/>
     <use x="83.300781" xlink:href="#ArialMT-82"/>
     <use x="155.517578" xlink:href="#ArialMT-68"/>
    </g>
   </g>
   <g id="line2d_103">
    <path d="M 537.6 166.040625 
L 561.6 166.040625 
" style="fill:none;stroke:#00008b;stroke-linecap:round;stroke-width:3;"/>
   </g>
   <g id="line2d_104"/>
   <g id="text_31">
    <!-- SVT -->
    <g style="fill:#262626;" transform="translate(571.2 170.240625)scale(0.12 -0.12)">
     <defs>
      <path d="M 4.5 23 
L 13.421875 23.78125 
Q 14.0625 18.40625 16.375 14.96875 
Q 18.703125 11.53125 23.578125 9.40625 
Q 28.46875 7.28125 34.578125 7.28125 
Q 39.984375 7.28125 44.140625 8.890625 
Q 48.296875 10.5 50.3125 13.296875 
Q 52.34375 16.109375 52.34375 19.4375 
Q 52.34375 22.796875 50.390625 25.3125 
Q 48.4375 27.828125 43.953125 29.546875 
Q 41.0625 30.671875 31.203125 33.03125 
Q 21.34375 35.40625 17.390625 37.5 
Q 12.25 40.1875 9.734375 44.15625 
Q 7.234375 48.140625 7.234375 53.078125 
Q 7.234375 58.5 10.296875 63.203125 
Q 13.375 67.921875 19.28125 70.359375 
Q 25.203125 72.796875 32.421875 72.796875 
Q 40.375 72.796875 46.453125 70.234375 
Q 52.546875 67.671875 55.8125 62.6875 
Q 59.078125 57.71875 59.328125 51.421875 
L 50.25 50.734375 
Q 49.515625 57.515625 45.28125 60.984375 
Q 41.0625 64.453125 32.8125 64.453125 
Q 24.21875 64.453125 20.28125 61.296875 
Q 16.359375 58.15625 16.359375 53.71875 
Q 16.359375 49.859375 19.140625 47.359375 
Q 21.875 44.875 33.421875 42.265625 
Q 44.96875 39.65625 49.265625 37.703125 
Q 55.515625 34.8125 58.484375 30.390625 
Q 61.46875 25.984375 61.46875 20.21875 
Q 61.46875 14.5 58.203125 9.4375 
Q 54.9375 4.390625 48.796875 1.578125 
Q 42.671875 -1.21875 35.015625 -1.21875 
Q 25.296875 -1.21875 18.71875 1.609375 
Q 12.15625 4.4375 8.421875 10.125 
Q 4.6875 15.828125 4.5 23 
z
" id="ArialMT-83"/>
      <path d="M 28.171875 0 
L 0.4375 71.578125 
L 10.6875 71.578125 
L 29.296875 19.578125 
Q 31.546875 13.328125 33.0625 7.859375 
Q 34.71875 13.71875 36.921875 19.578125 
L 56.25 71.578125 
L 65.921875 71.578125 
L 37.890625 0 
z
" id="ArialMT-86"/>
      <path d="M 25.921875 0 
L 25.921875 63.140625 
L 2.34375 63.140625 
L 2.34375 71.578125 
L 59.078125 71.578125 
L 59.078125 63.140625 
L 35.40625 63.140625 
L 35.40625 0 
z
" id="ArialMT-84"/>
     </defs>
     <use xlink:href="#ArialMT-83"/>
     <use x="66.699219" xlink:href="#ArialMT-86"/>
     <use x="133.398438" xlink:href="#ArialMT-84"/>
    </g>
   </g>
   <g id="line2d_105">
    <path d="M 537.6 183.015 
L 561.6 183.015 
" style="fill:none;stroke:#008080;stroke-linecap:round;stroke-width:3;"/>
   </g>
   <g id="line2d_106"/>
   <g id="text_32">
    <!-- VNX -->
    <g style="fill:#262626;" transform="translate(571.2 187.215)scale(0.12 -0.12)">
     <defs>
      <path d="M 7.625 0 
L 7.625 71.578125 
L 17.328125 71.578125 
L 54.9375 15.375 
L 54.9375 71.578125 
L 64.015625 71.578125 
L 64.015625 0 
L 54.296875 0 
L 16.703125 56.25 
L 16.703125 0 
z
" id="ArialMT-78"/>
      <path d="M 0.4375 0 
L 28.125 37.3125 
L 3.71875 71.578125 
L 14.984375 71.578125 
L 27.984375 53.21875 
Q 32.03125 47.515625 33.734375 44.4375 
Q 36.140625 48.34375 39.40625 52.59375 
L 53.8125 71.578125 
L 64.109375 71.578125 
L 38.96875 37.84375 
L 66.0625 0 
L 54.34375 0 
L 36.328125 25.53125 
Q 34.8125 27.734375 33.203125 30.328125 
Q 30.8125 26.421875 29.78125 24.953125 
L 11.8125 0 
z
" id="ArialMT-88"/>
     </defs>
     <use xlink:href="#ArialMT-86"/>
     <use x="66.699219" xlink:href="#ArialMT-78"/>
     <use x="138.916016" xlink:href="#ArialMT-88"/>
    </g>
   </g>
  </g>
 </g>
 <defs>
  <clipPath id="p12e3995e41">
   <rect height="313.2" width="558" x="90" y="64.8"/>
  </clipPath>
 </defs>
</svg>
