<?xml version="1.0" encoding="utf-8" standalone="no"?>
<!DOCTYPE svg PUBLIC "-//W3C//DTD SVG 1.1//EN"
  "http://www.w3.org/Graphics/SVG/1.1/DTD/svg11.dtd">
<!-- Created with matplotlib (https://matplotlib.org/) -->
<svg height="576pt" version="1.1" viewBox="0 0 1080 576" width="1080pt" xmlns="http://www.w3.org/2000/svg" xmlns:xlink="http://www.w3.org/1999/xlink">
 <metadata>
  <rdf:RDF xmlns:cc="http://creativecommons.org/ns#" xmlns:dc="http://purl.org/dc/elements/1.1/" xmlns:rdf="http://www.w3.org/1999/02/22-rdf-syntax-ns#">
   <cc:Work>
    <dc:type rdf:resource="http://purl.org/dc/dcmitype/StillImage"/>
    <dc:date>2021-04-21T09:56:37.681906</dc:date>
    <dc:format>image/svg+xml</dc:format>
    <dc:creator>
     <cc:Agent>
      <dc:title>Matplotlib v3.3.4, https://matplotlib.org/</dc:title>
     </cc:Agent>
    </dc:creator>
   </cc:Work>
  </rdf:RDF>
 </metadata>
 <defs>
  <style type="text/css">*{stroke-linecap:butt;stroke-linejoin:round;}</style>
 </defs>
 <g id="figure_1">
  <g id="patch_1">
   <path d="M 0 576 
L 1080 576 
L 1080 0 
L 0 0 
z
" style="fill:#ffffff;"/>
  </g>
  <g id="axes_1">
   <g id="patch_2">
    <path d="M 135 504 
L 972 504 
L 972 69.12 
L 135 69.12 
z
" style="fill:#ffffff;"/>
   </g>
   <g id="matplotlib.axis_1">
    <g id="xtick_1">
     <g id="line2d_1">
      <path clip-path="url(#p0ac288730f)" d="M 167.192308 504 
L 167.192308 69.12 
" style="fill:none;stroke:#4c72b0;stroke-linecap:round;stroke-opacity:0.1;stroke-width:0.7;"/>
     </g>
     <g id="text_1">
      <!-- 0.0 -->
      <g style="fill:#262626;" transform="translate(159.547308 521.373594)scale(0.11 -0.11)">
       <defs>
        <path d="M 4.15625 35.296875 
Q 4.15625 48 6.765625 55.734375 
Q 9.375 63.484375 14.515625 67.671875 
Q 19.671875 71.875 27.484375 71.875 
Q 33.25 71.875 37.59375 69.546875 
Q 41.9375 67.234375 44.765625 62.859375 
Q 47.609375 58.5 49.21875 52.21875 
Q 50.828125 45.953125 50.828125 35.296875 
Q 50.828125 22.703125 48.234375 14.96875 
Q 45.65625 7.234375 40.5 3 
Q 35.359375 -1.21875 27.484375 -1.21875 
Q 17.140625 -1.21875 11.234375 6.203125 
Q 4.15625 15.140625 4.15625 35.296875 
z
M 13.1875 35.296875 
Q 13.1875 17.671875 17.3125 11.828125 
Q 21.4375 6 27.484375 6 
Q 33.546875 6 37.671875 11.859375 
Q 41.796875 17.71875 41.796875 35.296875 
Q 41.796875 52.984375 37.671875 58.78125 
Q 33.546875 64.59375 27.390625 64.59375 
Q 21.34375 64.59375 17.71875 59.46875 
Q 13.1875 52.9375 13.1875 35.296875 
z
" id="ArialMT-48"/>
        <path d="M 9.078125 0 
L 9.078125 10.015625 
L 19.09375 10.015625 
L 19.09375 0 
z
" id="ArialMT-46"/>
       </defs>
       <use xlink:href="#ArialMT-48"/>
       <use x="55.615234" xlink:href="#ArialMT-46"/>
       <use x="83.398438" xlink:href="#ArialMT-48"/>
      </g>
     </g>
    </g>
    <g id="xtick_2">
     <g id="line2d_2">
      <path clip-path="url(#p0ac288730f)" d="M 231.576923 504 
L 231.576923 69.12 
" style="fill:none;stroke:#4c72b0;stroke-linecap:round;stroke-opacity:0.1;stroke-width:0.7;"/>
     </g>
     <g id="text_2">
      <!-- 0.9 -->
      <g style="fill:#262626;" transform="translate(223.931923 521.373594)scale(0.11 -0.11)">
       <defs>
        <path d="M 5.46875 16.546875 
L 13.921875 17.328125 
Q 14.984375 11.375 18.015625 8.6875 
Q 21.046875 6 25.78125 6 
Q 29.828125 6 32.875 7.859375 
Q 35.9375 9.71875 37.890625 12.8125 
Q 39.84375 15.921875 41.15625 21.1875 
Q 42.484375 26.46875 42.484375 31.9375 
Q 42.484375 32.515625 42.4375 33.6875 
Q 39.796875 29.5 35.234375 26.875 
Q 30.671875 24.265625 25.34375 24.265625 
Q 16.453125 24.265625 10.296875 30.703125 
Q 4.15625 37.15625 4.15625 47.703125 
Q 4.15625 58.59375 10.578125 65.234375 
Q 17 71.875 26.65625 71.875 
Q 33.640625 71.875 39.421875 68.109375 
Q 45.21875 64.359375 48.21875 57.390625 
Q 51.21875 50.4375 51.21875 37.25 
Q 51.21875 23.53125 48.234375 15.40625 
Q 45.265625 7.28125 39.375 3.03125 
Q 33.5 -1.21875 25.59375 -1.21875 
Q 17.1875 -1.21875 11.859375 3.4375 
Q 6.546875 8.109375 5.46875 16.546875 
z
M 41.453125 48.140625 
Q 41.453125 55.71875 37.421875 60.15625 
Q 33.40625 64.59375 27.734375 64.59375 
Q 21.875 64.59375 17.53125 59.8125 
Q 13.1875 55.03125 13.1875 47.40625 
Q 13.1875 40.578125 17.3125 36.296875 
Q 21.4375 32.03125 27.484375 32.03125 
Q 33.59375 32.03125 37.515625 36.296875 
Q 41.453125 40.578125 41.453125 48.140625 
z
" id="ArialMT-57"/>
       </defs>
       <use xlink:href="#ArialMT-48"/>
       <use x="55.615234" xlink:href="#ArialMT-46"/>
       <use x="83.398438" xlink:href="#ArialMT-57"/>
      </g>
     </g>
    </g>
    <g id="xtick_3">
     <g id="line2d_3">
      <path clip-path="url(#p0ac288730f)" d="M 295.961538 504 
L 295.961538 69.12 
" style="fill:none;stroke:#4c72b0;stroke-linecap:round;stroke-opacity:0.1;stroke-width:0.7;"/>
     </g>
     <g id="text_3">
      <!-- 4.8 -->
      <g style="fill:#262626;" transform="translate(288.316538 521.373594)scale(0.11 -0.11)">
       <defs>
        <path d="M 32.328125 0 
L 32.328125 17.140625 
L 1.265625 17.140625 
L 1.265625 25.203125 
L 33.9375 71.578125 
L 41.109375 71.578125 
L 41.109375 25.203125 
L 50.78125 25.203125 
L 50.78125 17.140625 
L 41.109375 17.140625 
L 41.109375 0 
z
M 32.328125 25.203125 
L 32.328125 57.46875 
L 9.90625 25.203125 
z
" id="ArialMT-52"/>
        <path d="M 17.671875 38.8125 
Q 12.203125 40.828125 9.5625 44.53125 
Q 6.9375 48.25 6.9375 53.421875 
Q 6.9375 61.234375 12.546875 66.546875 
Q 18.171875 71.875 27.484375 71.875 
Q 36.859375 71.875 42.578125 66.421875 
Q 48.296875 60.984375 48.296875 53.171875 
Q 48.296875 48.1875 45.671875 44.5 
Q 43.0625 40.828125 37.75 38.8125 
Q 44.34375 36.671875 47.78125 31.875 
Q 51.21875 27.09375 51.21875 20.453125 
Q 51.21875 11.28125 44.71875 5.03125 
Q 38.234375 -1.21875 27.640625 -1.21875 
Q 17.046875 -1.21875 10.546875 5.046875 
Q 4.046875 11.328125 4.046875 20.703125 
Q 4.046875 27.6875 7.59375 32.390625 
Q 11.140625 37.109375 17.671875 38.8125 
z
M 15.921875 53.71875 
Q 15.921875 48.640625 19.1875 45.40625 
Q 22.46875 42.1875 27.6875 42.1875 
Q 32.765625 42.1875 36.015625 45.375 
Q 39.265625 48.578125 39.265625 53.21875 
Q 39.265625 58.0625 35.90625 61.359375 
Q 32.5625 64.65625 27.59375 64.65625 
Q 22.5625 64.65625 19.234375 61.421875 
Q 15.921875 58.203125 15.921875 53.71875 
z
M 13.09375 20.65625 
Q 13.09375 16.890625 14.875 13.375 
Q 16.65625 9.859375 20.171875 7.921875 
Q 23.6875 6 27.734375 6 
Q 34.03125 6 38.125 10.046875 
Q 42.234375 14.109375 42.234375 20.359375 
Q 42.234375 26.703125 38.015625 30.859375 
Q 33.796875 35.015625 27.4375 35.015625 
Q 21.234375 35.015625 17.15625 30.90625 
Q 13.09375 26.8125 13.09375 20.65625 
z
" id="ArialMT-56"/>
       </defs>
       <use xlink:href="#ArialMT-52"/>
       <use x="55.615234" xlink:href="#ArialMT-46"/>
       <use x="83.398438" xlink:href="#ArialMT-56"/>
      </g>
     </g>
    </g>
    <g id="xtick_4">
     <g id="line2d_4">
      <path clip-path="url(#p0ac288730f)" d="M 360.346154 504 
L 360.346154 69.12 
" style="fill:none;stroke:#4c72b0;stroke-linecap:round;stroke-opacity:0.1;stroke-width:0.7;"/>
     </g>
     <g id="text_4">
      <!-- 5.4 -->
      <g style="fill:#262626;" transform="translate(352.701154 521.373594)scale(0.11 -0.11)">
       <defs>
        <path d="M 4.15625 18.75 
L 13.375 19.53125 
Q 14.40625 12.796875 18.140625 9.390625 
Q 21.875 6 27.15625 6 
Q 33.5 6 37.890625 10.78125 
Q 42.28125 15.578125 42.28125 23.484375 
Q 42.28125 31 38.0625 35.34375 
Q 33.84375 39.703125 27 39.703125 
Q 22.75 39.703125 19.328125 37.765625 
Q 15.921875 35.84375 13.96875 32.765625 
L 5.71875 33.84375 
L 12.640625 70.609375 
L 48.25 70.609375 
L 48.25 62.203125 
L 19.671875 62.203125 
L 15.828125 42.96875 
Q 22.265625 47.46875 29.34375 47.46875 
Q 38.71875 47.46875 45.15625 40.96875 
Q 51.609375 34.46875 51.609375 24.265625 
Q 51.609375 14.546875 45.953125 7.46875 
Q 39.0625 -1.21875 27.15625 -1.21875 
Q 17.390625 -1.21875 11.203125 4.25 
Q 5.03125 9.71875 4.15625 18.75 
z
" id="ArialMT-53"/>
       </defs>
       <use xlink:href="#ArialMT-53"/>
       <use x="55.615234" xlink:href="#ArialMT-46"/>
       <use x="83.398438" xlink:href="#ArialMT-52"/>
      </g>
     </g>
    </g>
    <g id="xtick_5">
     <g id="line2d_5">
      <path clip-path="url(#p0ac288730f)" d="M 424.730769 504 
L 424.730769 69.12 
" style="fill:none;stroke:#4c72b0;stroke-linecap:round;stroke-opacity:0.1;stroke-width:0.7;"/>
     </g>
     <g id="text_5">
      <!-- 7.2 -->
      <g style="fill:#262626;" transform="translate(417.085769 521.373594)scale(0.11 -0.11)">
       <defs>
        <path d="M 4.734375 62.203125 
L 4.734375 70.65625 
L 51.078125 70.65625 
L 51.078125 63.8125 
Q 44.234375 56.546875 37.515625 44.484375 
Q 30.8125 32.421875 27.15625 19.671875 
Q 24.515625 10.6875 23.78125 0 
L 14.75 0 
Q 14.890625 8.453125 18.0625 20.40625 
Q 21.234375 32.375 27.171875 43.484375 
Q 33.109375 54.59375 39.796875 62.203125 
z
" id="ArialMT-55"/>
        <path d="M 50.34375 8.453125 
L 50.34375 0 
L 3.03125 0 
Q 2.9375 3.171875 4.046875 6.109375 
Q 5.859375 10.9375 9.828125 15.625 
Q 13.8125 20.3125 21.34375 26.46875 
Q 33.015625 36.03125 37.109375 41.625 
Q 41.21875 47.21875 41.21875 52.203125 
Q 41.21875 57.421875 37.46875 61 
Q 33.734375 64.59375 27.734375 64.59375 
Q 21.390625 64.59375 17.578125 60.78125 
Q 13.765625 56.984375 13.71875 50.25 
L 4.6875 51.171875 
Q 5.609375 61.28125 11.65625 66.578125 
Q 17.71875 71.875 27.9375 71.875 
Q 38.234375 71.875 44.234375 66.15625 
Q 50.25 60.453125 50.25 52 
Q 50.25 47.703125 48.484375 43.546875 
Q 46.734375 39.40625 42.65625 34.8125 
Q 38.578125 30.21875 29.109375 22.21875 
Q 21.1875 15.578125 18.9375 13.203125 
Q 16.703125 10.84375 15.234375 8.453125 
z
" id="ArialMT-50"/>
       </defs>
       <use xlink:href="#ArialMT-55"/>
       <use x="55.615234" xlink:href="#ArialMT-46"/>
       <use x="83.398438" xlink:href="#ArialMT-50"/>
      </g>
     </g>
    </g>
    <g id="xtick_6">
     <g id="line2d_6">
      <path clip-path="url(#p0ac288730f)" d="M 489.115385 504 
L 489.115385 69.12 
" style="fill:none;stroke:#4c72b0;stroke-linecap:round;stroke-opacity:0.1;stroke-width:0.7;"/>
     </g>
     <g id="text_6">
      <!-- 8.1 -->
      <g style="fill:#262626;" transform="translate(481.470385 521.373594)scale(0.11 -0.11)">
       <defs>
        <path d="M 37.25 0 
L 28.46875 0 
L 28.46875 56 
Q 25.296875 52.984375 20.140625 49.953125 
Q 14.984375 46.921875 10.890625 45.40625 
L 10.890625 53.90625 
Q 18.265625 57.375 23.78125 62.296875 
Q 29.296875 67.234375 31.59375 71.875 
L 37.25 71.875 
z
" id="ArialMT-49"/>
       </defs>
       <use xlink:href="#ArialMT-56"/>
       <use x="55.615234" xlink:href="#ArialMT-46"/>
       <use x="83.398438" xlink:href="#ArialMT-49"/>
      </g>
     </g>
    </g>
    <g id="xtick_7">
     <g id="line2d_7">
      <path clip-path="url(#p0ac288730f)" d="M 553.5 504 
L 553.5 69.12 
" style="fill:none;stroke:#4c72b0;stroke-linecap:round;stroke-opacity:0.1;stroke-width:0.7;"/>
     </g>
     <g id="text_7">
      <!-- 19.8 -->
      <g style="fill:#262626;" transform="translate(542.796484 521.373594)scale(0.11 -0.11)">
       <use xlink:href="#ArialMT-49"/>
       <use x="55.615234" xlink:href="#ArialMT-57"/>
       <use x="111.230469" xlink:href="#ArialMT-46"/>
       <use x="139.013672" xlink:href="#ArialMT-56"/>
      </g>
     </g>
    </g>
    <g id="xtick_8">
     <g id="line2d_8">
      <path clip-path="url(#p0ac288730f)" d="M 617.884615 504 
L 617.884615 69.12 
" style="fill:none;stroke:#4c72b0;stroke-linecap:round;stroke-opacity:0.1;stroke-width:0.7;"/>
     </g>
     <g id="text_8">
      <!-- 23.4 -->
      <g style="fill:#262626;" transform="translate(607.1811 521.373594)scale(0.11 -0.11)">
       <defs>
        <path d="M 4.203125 18.890625 
L 12.984375 20.0625 
Q 14.5 12.59375 18.140625 9.296875 
Q 21.78125 6 27 6 
Q 33.203125 6 37.46875 10.296875 
Q 41.75 14.59375 41.75 20.953125 
Q 41.75 27 37.796875 30.921875 
Q 33.84375 34.859375 27.734375 34.859375 
Q 25.25 34.859375 21.53125 33.890625 
L 22.515625 41.609375 
Q 23.390625 41.5 23.921875 41.5 
Q 29.546875 41.5 34.03125 44.421875 
Q 38.53125 47.359375 38.53125 53.46875 
Q 38.53125 58.296875 35.25 61.46875 
Q 31.984375 64.65625 26.8125 64.65625 
Q 21.6875 64.65625 18.265625 61.421875 
Q 14.84375 58.203125 13.875 51.765625 
L 5.078125 53.328125 
Q 6.6875 62.15625 12.390625 67.015625 
Q 18.109375 71.875 26.609375 71.875 
Q 32.46875 71.875 37.390625 69.359375 
Q 42.328125 66.84375 44.9375 62.5 
Q 47.5625 58.15625 47.5625 53.265625 
Q 47.5625 48.640625 45.0625 44.828125 
Q 42.578125 41.015625 37.703125 38.765625 
Q 44.046875 37.3125 47.5625 32.6875 
Q 51.078125 28.078125 51.078125 21.140625 
Q 51.078125 11.765625 44.234375 5.25 
Q 37.40625 -1.265625 26.953125 -1.265625 
Q 17.53125 -1.265625 11.296875 4.34375 
Q 5.078125 9.96875 4.203125 18.890625 
z
" id="ArialMT-51"/>
       </defs>
       <use xlink:href="#ArialMT-50"/>
       <use x="55.615234" xlink:href="#ArialMT-51"/>
       <use x="111.230469" xlink:href="#ArialMT-46"/>
       <use x="139.013672" xlink:href="#ArialMT-52"/>
      </g>
     </g>
    </g>
    <g id="xtick_9">
     <g id="line2d_9">
      <path clip-path="url(#p0ac288730f)" d="M 682.269231 504 
L 682.269231 69.12 
" style="fill:none;stroke:#4c72b0;stroke-linecap:round;stroke-opacity:0.1;stroke-width:0.7;"/>
     </g>
     <g id="text_9">
      <!-- 26.4 -->
      <g style="fill:#262626;" transform="translate(671.565715 521.373594)scale(0.11 -0.11)">
       <defs>
        <path d="M 49.75 54.046875 
L 41.015625 53.375 
Q 39.84375 58.546875 37.703125 60.890625 
Q 34.125 64.65625 28.90625 64.65625 
Q 24.703125 64.65625 21.53125 62.3125 
Q 17.390625 59.28125 14.984375 53.46875 
Q 12.59375 47.65625 12.5 36.921875 
Q 15.671875 41.75 20.265625 44.09375 
Q 24.859375 46.4375 29.890625 46.4375 
Q 38.671875 46.4375 44.84375 39.96875 
Q 51.03125 33.5 51.03125 23.25 
Q 51.03125 16.5 48.125 10.71875 
Q 45.21875 4.9375 40.140625 1.859375 
Q 35.0625 -1.21875 28.609375 -1.21875 
Q 17.625 -1.21875 10.6875 6.859375 
Q 3.765625 14.9375 3.765625 33.5 
Q 3.765625 54.25 11.421875 63.671875 
Q 18.109375 71.875 29.4375 71.875 
Q 37.890625 71.875 43.28125 67.140625 
Q 48.6875 62.40625 49.75 54.046875 
z
M 13.875 23.1875 
Q 13.875 18.65625 15.796875 14.5 
Q 17.71875 10.359375 21.1875 8.171875 
Q 24.65625 6 28.46875 6 
Q 34.03125 6 38.03125 10.484375 
Q 42.046875 14.984375 42.046875 22.703125 
Q 42.046875 30.125 38.078125 34.390625 
Q 34.125 38.671875 28.125 38.671875 
Q 22.171875 38.671875 18.015625 34.390625 
Q 13.875 30.125 13.875 23.1875 
z
" id="ArialMT-54"/>
       </defs>
       <use xlink:href="#ArialMT-50"/>
       <use x="55.615234" xlink:href="#ArialMT-54"/>
       <use x="111.230469" xlink:href="#ArialMT-46"/>
       <use x="139.013672" xlink:href="#ArialMT-52"/>
      </g>
     </g>
    </g>
    <g id="xtick_10">
     <g id="line2d_10">
      <path clip-path="url(#p0ac288730f)" d="M 746.653846 504 
L 746.653846 69.12 
" style="fill:none;stroke:#4c72b0;stroke-linecap:round;stroke-opacity:0.1;stroke-width:0.7;"/>
     </g>
     <g id="text_10">
      <!-- 30.0 -->
      <g style="fill:#262626;" transform="translate(735.950331 521.373594)scale(0.11 -0.11)">
       <use xlink:href="#ArialMT-51"/>
       <use x="55.615234" xlink:href="#ArialMT-48"/>
       <use x="111.230469" xlink:href="#ArialMT-46"/>
       <use x="139.013672" xlink:href="#ArialMT-48"/>
      </g>
     </g>
    </g>
    <g id="xtick_11">
     <g id="line2d_11">
      <path clip-path="url(#p0ac288730f)" d="M 811.038462 504 
L 811.038462 69.12 
" style="fill:none;stroke:#4c72b0;stroke-linecap:round;stroke-opacity:0.1;stroke-width:0.7;"/>
     </g>
     <g id="text_11">
      <!-- 33.3 -->
      <g style="fill:#262626;" transform="translate(800.334946 521.373594)scale(0.11 -0.11)">
       <use xlink:href="#ArialMT-51"/>
       <use x="55.615234" xlink:href="#ArialMT-51"/>
       <use x="111.230469" xlink:href="#ArialMT-46"/>
       <use x="139.013672" xlink:href="#ArialMT-51"/>
      </g>
     </g>
    </g>
    <g id="xtick_12">
     <g id="line2d_12">
      <path clip-path="url(#p0ac288730f)" d="M 875.423077 504 
L 875.423077 69.12 
" style="fill:none;stroke:#4c72b0;stroke-linecap:round;stroke-opacity:0.1;stroke-width:0.7;"/>
     </g>
     <g id="text_12">
      <!-- 36.0 -->
      <g style="fill:#262626;" transform="translate(864.719561 521.373594)scale(0.11 -0.11)">
       <use xlink:href="#ArialMT-51"/>
       <use x="55.615234" xlink:href="#ArialMT-54"/>
       <use x="111.230469" xlink:href="#ArialMT-46"/>
       <use x="139.013672" xlink:href="#ArialMT-48"/>
      </g>
     </g>
    </g>
    <g id="xtick_13">
     <g id="line2d_13">
      <path clip-path="url(#p0ac288730f)" d="M 939.807692 504 
L 939.807692 69.12 
" style="fill:none;stroke:#4c72b0;stroke-linecap:round;stroke-opacity:0.1;stroke-width:0.7;"/>
     </g>
     <g id="text_13">
      <!-- 42.6 -->
      <g style="fill:#262626;" transform="translate(929.104177 521.373594)scale(0.11 -0.11)">
       <use xlink:href="#ArialMT-52"/>
       <use x="55.615234" xlink:href="#ArialMT-50"/>
       <use x="111.230469" xlink:href="#ArialMT-46"/>
       <use x="139.013672" xlink:href="#ArialMT-54"/>
      </g>
     </g>
    </g>
    <g id="text_14">
     <!-- Montreux 72 hour rainfall total in millimiters. 2016 and 2017 -->
     <g style="fill:#262626;" transform="translate(343.625 555.012344)scale(0.16 -0.16)">
      <defs>
       <path d="M 7.421875 0 
L 7.421875 71.578125 
L 21.6875 71.578125 
L 38.625 20.90625 
Q 40.96875 13.8125 42.046875 10.296875 
Q 43.265625 14.203125 45.84375 21.78125 
L 62.984375 71.578125 
L 75.734375 71.578125 
L 75.734375 0 
L 66.609375 0 
L 66.609375 59.90625 
L 45.796875 0 
L 37.25 0 
L 16.546875 60.9375 
L 16.546875 0 
z
" id="ArialMT-77"/>
       <path d="M 3.328125 25.921875 
Q 3.328125 40.328125 11.328125 47.265625 
Q 18.015625 53.03125 27.640625 53.03125 
Q 38.328125 53.03125 45.109375 46.015625 
Q 51.90625 39.015625 51.90625 26.65625 
Q 51.90625 16.65625 48.90625 10.90625 
Q 45.90625 5.171875 40.15625 2 
Q 34.421875 -1.171875 27.640625 -1.171875 
Q 16.75 -1.171875 10.03125 5.8125 
Q 3.328125 12.796875 3.328125 25.921875 
z
M 12.359375 25.921875 
Q 12.359375 15.96875 16.703125 11.015625 
Q 21.046875 6.0625 27.640625 6.0625 
Q 34.1875 6.0625 38.53125 11.03125 
Q 42.875 16.015625 42.875 26.21875 
Q 42.875 35.84375 38.5 40.796875 
Q 34.125 45.75 27.640625 45.75 
Q 21.046875 45.75 16.703125 40.8125 
Q 12.359375 35.890625 12.359375 25.921875 
z
" id="ArialMT-111"/>
       <path d="M 6.59375 0 
L 6.59375 51.859375 
L 14.5 51.859375 
L 14.5 44.484375 
Q 20.21875 53.03125 31 53.03125 
Q 35.6875 53.03125 39.625 51.34375 
Q 43.5625 49.65625 45.515625 46.921875 
Q 47.46875 44.1875 48.25 40.4375 
Q 48.734375 37.984375 48.734375 31.890625 
L 48.734375 0 
L 39.9375 0 
L 39.9375 31.546875 
Q 39.9375 36.921875 38.90625 39.578125 
Q 37.890625 42.234375 35.28125 43.8125 
Q 32.671875 45.40625 29.15625 45.40625 
Q 23.53125 45.40625 19.453125 41.84375 
Q 15.375 38.28125 15.375 28.328125 
L 15.375 0 
z
" id="ArialMT-110"/>
       <path d="M 25.78125 7.859375 
L 27.046875 0.09375 
Q 23.34375 -0.6875 20.40625 -0.6875 
Q 15.625 -0.6875 12.984375 0.828125 
Q 10.359375 2.34375 9.28125 4.8125 
Q 8.203125 7.28125 8.203125 15.1875 
L 8.203125 45.015625 
L 1.765625 45.015625 
L 1.765625 51.859375 
L 8.203125 51.859375 
L 8.203125 64.703125 
L 16.9375 69.96875 
L 16.9375 51.859375 
L 25.78125 51.859375 
L 25.78125 45.015625 
L 16.9375 45.015625 
L 16.9375 14.703125 
Q 16.9375 10.9375 17.40625 9.859375 
Q 17.875 8.796875 18.921875 8.15625 
Q 19.96875 7.515625 21.921875 7.515625 
Q 23.390625 7.515625 25.78125 7.859375 
z
" id="ArialMT-116"/>
       <path d="M 6.5 0 
L 6.5 51.859375 
L 14.40625 51.859375 
L 14.40625 44 
Q 17.4375 49.515625 20 51.265625 
Q 22.5625 53.03125 25.640625 53.03125 
Q 30.078125 53.03125 34.671875 50.203125 
L 31.640625 42.046875 
Q 28.421875 43.953125 25.203125 43.953125 
Q 22.3125 43.953125 20.015625 42.21875 
Q 17.71875 40.484375 16.75 37.40625 
Q 15.28125 32.71875 15.28125 27.15625 
L 15.28125 0 
z
" id="ArialMT-114"/>
       <path d="M 42.09375 16.703125 
L 51.171875 15.578125 
Q 49.03125 7.625 43.21875 3.21875 
Q 37.40625 -1.171875 28.375 -1.171875 
Q 17 -1.171875 10.328125 5.828125 
Q 3.65625 12.84375 3.65625 25.484375 
Q 3.65625 38.578125 10.390625 45.796875 
Q 17.140625 53.03125 27.875 53.03125 
Q 38.28125 53.03125 44.875 45.953125 
Q 51.46875 38.875 51.46875 26.03125 
Q 51.46875 25.25 51.421875 23.6875 
L 12.75 23.6875 
Q 13.234375 15.140625 17.578125 10.59375 
Q 21.921875 6.0625 28.421875 6.0625 
Q 33.25 6.0625 36.671875 8.59375 
Q 40.09375 11.140625 42.09375 16.703125 
z
M 13.234375 30.90625 
L 42.1875 30.90625 
Q 41.609375 37.453125 38.875 40.71875 
Q 34.671875 45.796875 27.984375 45.796875 
Q 21.921875 45.796875 17.796875 41.75 
Q 13.671875 37.703125 13.234375 30.90625 
z
" id="ArialMT-101"/>
       <path d="M 40.578125 0 
L 40.578125 7.625 
Q 34.515625 -1.171875 24.125 -1.171875 
Q 19.53125 -1.171875 15.546875 0.578125 
Q 11.578125 2.34375 9.640625 5 
Q 7.71875 7.671875 6.9375 11.53125 
Q 6.390625 14.109375 6.390625 19.734375 
L 6.390625 51.859375 
L 15.1875 51.859375 
L 15.1875 23.09375 
Q 15.1875 16.21875 15.71875 13.8125 
Q 16.546875 10.359375 19.234375 8.375 
Q 21.921875 6.390625 25.875 6.390625 
Q 29.828125 6.390625 33.296875 8.421875 
Q 36.765625 10.453125 38.203125 13.9375 
Q 39.65625 17.4375 39.65625 24.078125 
L 39.65625 51.859375 
L 48.4375 51.859375 
L 48.4375 0 
z
" id="ArialMT-117"/>
       <path d="M 0.734375 0 
L 19.671875 26.953125 
L 2.15625 51.859375 
L 13.140625 51.859375 
L 21.09375 39.703125 
Q 23.34375 36.234375 24.703125 33.890625 
Q 26.859375 37.109375 28.65625 39.59375 
L 37.40625 51.859375 
L 47.90625 51.859375 
L 29.984375 27.4375 
L 49.265625 0 
L 38.484375 0 
L 27.828125 16.109375 
L 25 20.453125 
L 11.375 0 
z
" id="ArialMT-120"/>
       <path id="ArialMT-32"/>
       <path d="M 6.59375 0 
L 6.59375 71.578125 
L 15.375 71.578125 
L 15.375 45.90625 
Q 21.53125 53.03125 30.90625 53.03125 
Q 36.671875 53.03125 40.921875 50.75 
Q 45.171875 48.484375 47 44.484375 
Q 48.828125 40.484375 48.828125 32.859375 
L 48.828125 0 
L 40.046875 0 
L 40.046875 32.859375 
Q 40.046875 39.453125 37.1875 42.453125 
Q 34.328125 45.453125 29.109375 45.453125 
Q 25.203125 45.453125 21.75 43.421875 
Q 18.3125 41.40625 16.84375 37.9375 
Q 15.375 34.46875 15.375 28.375 
L 15.375 0 
z
" id="ArialMT-104"/>
       <path d="M 40.4375 6.390625 
Q 35.546875 2.25 31.03125 0.53125 
Q 26.515625 -1.171875 21.34375 -1.171875 
Q 12.796875 -1.171875 8.203125 3 
Q 3.609375 7.171875 3.609375 13.671875 
Q 3.609375 17.484375 5.34375 20.625 
Q 7.078125 23.78125 9.890625 25.6875 
Q 12.703125 27.59375 16.21875 28.5625 
Q 18.796875 29.25 24.03125 29.890625 
Q 34.671875 31.15625 39.703125 32.90625 
Q 39.75 34.71875 39.75 35.203125 
Q 39.75 40.578125 37.25 42.78125 
Q 33.890625 45.75 27.25 45.75 
Q 21.046875 45.75 18.09375 43.578125 
Q 15.140625 41.40625 13.71875 35.890625 
L 5.125 37.0625 
Q 6.296875 42.578125 8.984375 45.96875 
Q 11.671875 49.359375 16.75 51.1875 
Q 21.828125 53.03125 28.515625 53.03125 
Q 35.15625 53.03125 39.296875 51.46875 
Q 43.453125 49.90625 45.40625 47.53125 
Q 47.359375 45.171875 48.140625 41.546875 
Q 48.578125 39.3125 48.578125 33.453125 
L 48.578125 21.734375 
Q 48.578125 9.46875 49.140625 6.21875 
Q 49.703125 2.984375 51.375 0 
L 42.1875 0 
Q 40.828125 2.734375 40.4375 6.390625 
z
M 39.703125 26.03125 
Q 34.90625 24.078125 25.34375 22.703125 
Q 19.921875 21.921875 17.671875 20.9375 
Q 15.4375 19.96875 14.203125 18.09375 
Q 12.984375 16.21875 12.984375 13.921875 
Q 12.984375 10.40625 15.640625 8.0625 
Q 18.3125 5.71875 23.4375 5.71875 
Q 28.515625 5.71875 32.46875 7.9375 
Q 36.421875 10.15625 38.28125 14.015625 
Q 39.703125 17 39.703125 22.796875 
z
" id="ArialMT-97"/>
       <path d="M 6.640625 61.46875 
L 6.640625 71.578125 
L 15.4375 71.578125 
L 15.4375 61.46875 
z
M 6.640625 0 
L 6.640625 51.859375 
L 15.4375 51.859375 
L 15.4375 0 
z
" id="ArialMT-105"/>
       <path d="M 8.6875 0 
L 8.6875 45.015625 
L 0.921875 45.015625 
L 0.921875 51.859375 
L 8.6875 51.859375 
L 8.6875 57.375 
Q 8.6875 62.59375 9.625 65.140625 
Q 10.890625 68.5625 14.078125 70.671875 
Q 17.28125 72.796875 23.046875 72.796875 
Q 26.765625 72.796875 31.25 71.921875 
L 29.9375 64.265625 
Q 27.203125 64.75 24.75 64.75 
Q 20.75 64.75 19.09375 63.03125 
Q 17.4375 61.328125 17.4375 56.640625 
L 17.4375 51.859375 
L 27.546875 51.859375 
L 27.546875 45.015625 
L 17.4375 45.015625 
L 17.4375 0 
z
" id="ArialMT-102"/>
       <path d="M 6.390625 0 
L 6.390625 71.578125 
L 15.1875 71.578125 
L 15.1875 0 
z
" id="ArialMT-108"/>
       <path d="M 6.59375 0 
L 6.59375 51.859375 
L 14.453125 51.859375 
L 14.453125 44.578125 
Q 16.890625 48.390625 20.9375 50.703125 
Q 25 53.03125 30.171875 53.03125 
Q 35.9375 53.03125 39.625 50.640625 
Q 43.3125 48.25 44.828125 43.953125 
Q 50.984375 53.03125 60.84375 53.03125 
Q 68.5625 53.03125 72.703125 48.75 
Q 76.859375 44.484375 76.859375 35.59375 
L 76.859375 0 
L 68.109375 0 
L 68.109375 32.671875 
Q 68.109375 37.9375 67.25 40.25 
Q 66.40625 42.578125 64.15625 43.984375 
Q 61.921875 45.40625 58.890625 45.40625 
Q 53.421875 45.40625 49.796875 41.765625 
Q 46.1875 38.140625 46.1875 30.125 
L 46.1875 0 
L 37.40625 0 
L 37.40625 33.6875 
Q 37.40625 39.546875 35.25 42.46875 
Q 33.109375 45.40625 28.21875 45.40625 
Q 24.515625 45.40625 21.359375 43.453125 
Q 18.21875 41.5 16.796875 37.734375 
Q 15.375 33.984375 15.375 26.90625 
L 15.375 0 
z
" id="ArialMT-109"/>
       <path d="M 3.078125 15.484375 
L 11.765625 16.84375 
Q 12.5 11.625 15.84375 8.84375 
Q 19.1875 6.0625 25.203125 6.0625 
Q 31.25 6.0625 34.171875 8.515625 
Q 37.109375 10.984375 37.109375 14.3125 
Q 37.109375 17.28125 34.515625 19 
Q 32.71875 20.171875 25.53125 21.96875 
Q 15.875 24.421875 12.140625 26.203125 
Q 8.40625 27.984375 6.46875 31.125 
Q 4.546875 34.28125 4.546875 38.09375 
Q 4.546875 41.546875 6.125 44.5 
Q 7.71875 47.46875 10.453125 49.421875 
Q 12.5 50.921875 16.03125 51.96875 
Q 19.578125 53.03125 23.640625 53.03125 
Q 29.734375 53.03125 34.34375 51.265625 
Q 38.96875 49.515625 41.15625 46.5 
Q 43.359375 43.5 44.1875 38.484375 
L 35.59375 37.3125 
Q 35.015625 41.3125 32.203125 43.546875 
Q 29.390625 45.796875 24.265625 45.796875 
Q 18.21875 45.796875 15.625 43.796875 
Q 13.03125 41.796875 13.03125 39.109375 
Q 13.03125 37.40625 14.109375 36.03125 
Q 15.1875 34.625 17.484375 33.6875 
Q 18.796875 33.203125 25.25 31.453125 
Q 34.578125 28.953125 38.25 27.359375 
Q 41.9375 25.78125 44.03125 22.75 
Q 46.140625 19.734375 46.140625 15.234375 
Q 46.140625 10.84375 43.578125 6.953125 
Q 41.015625 3.078125 36.171875 0.953125 
Q 31.34375 -1.171875 25.25 -1.171875 
Q 15.140625 -1.171875 9.84375 3.03125 
Q 4.546875 7.234375 3.078125 15.484375 
z
" id="ArialMT-115"/>
       <path d="M 40.234375 0 
L 40.234375 6.546875 
Q 35.296875 -1.171875 25.734375 -1.171875 
Q 19.53125 -1.171875 14.328125 2.25 
Q 9.125 5.671875 6.265625 11.796875 
Q 3.421875 17.921875 3.421875 25.875 
Q 3.421875 33.640625 6 39.96875 
Q 8.59375 46.296875 13.765625 49.65625 
Q 18.953125 53.03125 25.34375 53.03125 
Q 30.03125 53.03125 33.6875 51.046875 
Q 37.359375 49.078125 39.65625 45.90625 
L 39.65625 71.578125 
L 48.390625 71.578125 
L 48.390625 0 
z
M 12.453125 25.875 
Q 12.453125 15.921875 16.640625 10.984375 
Q 20.84375 6.0625 26.5625 6.0625 
Q 32.328125 6.0625 36.34375 10.765625 
Q 40.375 15.484375 40.375 25.140625 
Q 40.375 35.796875 36.265625 40.765625 
Q 32.171875 45.75 26.171875 45.75 
Q 20.3125 45.75 16.375 40.96875 
Q 12.453125 36.1875 12.453125 25.875 
z
" id="ArialMT-100"/>
      </defs>
      <use xlink:href="#ArialMT-77"/>
      <use x="83.300781" xlink:href="#ArialMT-111"/>
      <use x="138.916016" xlink:href="#ArialMT-110"/>
      <use x="194.53125" xlink:href="#ArialMT-116"/>
      <use x="222.314453" xlink:href="#ArialMT-114"/>
      <use x="255.615234" xlink:href="#ArialMT-101"/>
      <use x="311.230469" xlink:href="#ArialMT-117"/>
      <use x="366.845703" xlink:href="#ArialMT-120"/>
      <use x="416.845703" xlink:href="#ArialMT-32"/>
      <use x="444.628906" xlink:href="#ArialMT-55"/>
      <use x="500.244141" xlink:href="#ArialMT-50"/>
      <use x="555.859375" xlink:href="#ArialMT-32"/>
      <use x="583.642578" xlink:href="#ArialMT-104"/>
      <use x="639.257812" xlink:href="#ArialMT-111"/>
      <use x="694.873047" xlink:href="#ArialMT-117"/>
      <use x="750.488281" xlink:href="#ArialMT-114"/>
      <use x="783.789062" xlink:href="#ArialMT-32"/>
      <use x="811.572266" xlink:href="#ArialMT-114"/>
      <use x="844.873047" xlink:href="#ArialMT-97"/>
      <use x="900.488281" xlink:href="#ArialMT-105"/>
      <use x="922.705078" xlink:href="#ArialMT-110"/>
      <use x="978.320312" xlink:href="#ArialMT-102"/>
      <use x="1006.103516" xlink:href="#ArialMT-97"/>
      <use x="1061.71875" xlink:href="#ArialMT-108"/>
      <use x="1083.935547" xlink:href="#ArialMT-108"/>
      <use x="1106.152344" xlink:href="#ArialMT-32"/>
      <use x="1133.935547" xlink:href="#ArialMT-116"/>
      <use x="1161.71875" xlink:href="#ArialMT-111"/>
      <use x="1217.333984" xlink:href="#ArialMT-116"/>
      <use x="1245.117188" xlink:href="#ArialMT-97"/>
      <use x="1300.732422" xlink:href="#ArialMT-108"/>
      <use x="1322.949219" xlink:href="#ArialMT-32"/>
      <use x="1350.732422" xlink:href="#ArialMT-105"/>
      <use x="1372.949219" xlink:href="#ArialMT-110"/>
      <use x="1428.564453" xlink:href="#ArialMT-32"/>
      <use x="1456.347656" xlink:href="#ArialMT-109"/>
      <use x="1539.648438" xlink:href="#ArialMT-105"/>
      <use x="1561.865234" xlink:href="#ArialMT-108"/>
      <use x="1584.082031" xlink:href="#ArialMT-108"/>
      <use x="1606.298828" xlink:href="#ArialMT-105"/>
      <use x="1628.515625" xlink:href="#ArialMT-109"/>
      <use x="1711.816406" xlink:href="#ArialMT-105"/>
      <use x="1734.033203" xlink:href="#ArialMT-116"/>
      <use x="1761.816406" xlink:href="#ArialMT-101"/>
      <use x="1817.431641" xlink:href="#ArialMT-114"/>
      <use x="1850.732422" xlink:href="#ArialMT-115"/>
      <use x="1900.732422" xlink:href="#ArialMT-46"/>
      <use x="1928.515625" xlink:href="#ArialMT-32"/>
      <use x="1956.298828" xlink:href="#ArialMT-50"/>
      <use x="2011.914062" xlink:href="#ArialMT-48"/>
      <use x="2067.529297" xlink:href="#ArialMT-49"/>
      <use x="2123.144531" xlink:href="#ArialMT-54"/>
      <use x="2178.759766" xlink:href="#ArialMT-32"/>
      <use x="2206.542969" xlink:href="#ArialMT-97"/>
      <use x="2262.158203" xlink:href="#ArialMT-110"/>
      <use x="2317.773438" xlink:href="#ArialMT-100"/>
      <use x="2373.388672" xlink:href="#ArialMT-32"/>
      <use x="2401.171875" xlink:href="#ArialMT-50"/>
      <use x="2456.787109" xlink:href="#ArialMT-48"/>
      <use x="2512.402344" xlink:href="#ArialMT-49"/>
      <use x="2568.017578" xlink:href="#ArialMT-55"/>
     </g>
    </g>
   </g>
   <g id="matplotlib.axis_2">
    <g id="ytick_1">
     <g id="text_15">
      <!-- 0 -->
      <g style="fill:#262626;" transform="translate(119.382969 488.169524)scale(0.11 -0.11)">
       <use xlink:href="#ArialMT-48"/>
      </g>
     </g>
    </g>
    <g id="ytick_2">
     <g id="text_16">
      <!-- 500 -->
      <g style="fill:#262626;" transform="translate(107.148906 395.510288)scale(0.11 -0.11)">
       <use xlink:href="#ArialMT-53"/>
       <use x="55.615234" xlink:href="#ArialMT-48"/>
       <use x="111.230469" xlink:href="#ArialMT-48"/>
      </g>
     </g>
    </g>
    <g id="ytick_3">
     <g id="text_17">
      <!-- 1000 -->
      <g style="fill:#262626;" transform="translate(101.031875 302.851053)scale(0.11 -0.11)">
       <use xlink:href="#ArialMT-49"/>
       <use x="55.615234" xlink:href="#ArialMT-48"/>
       <use x="111.230469" xlink:href="#ArialMT-48"/>
       <use x="166.845703" xlink:href="#ArialMT-48"/>
      </g>
     </g>
    </g>
    <g id="ytick_4">
     <g id="text_18">
      <!-- 1500 -->
      <g style="fill:#262626;" transform="translate(101.031875 210.191817)scale(0.11 -0.11)">
       <use xlink:href="#ArialMT-49"/>
       <use x="55.615234" xlink:href="#ArialMT-53"/>
       <use x="111.230469" xlink:href="#ArialMT-48"/>
       <use x="166.845703" xlink:href="#ArialMT-48"/>
      </g>
     </g>
    </g>
    <g id="ytick_5">
     <g id="text_19">
      <!-- 2000 -->
      <g style="fill:#262626;" transform="translate(101.031875 117.532581)scale(0.11 -0.11)">
       <use xlink:href="#ArialMT-50"/>
       <use x="55.615234" xlink:href="#ArialMT-48"/>
       <use x="111.230469" xlink:href="#ArialMT-48"/>
       <use x="166.845703" xlink:href="#ArialMT-48"/>
      </g>
     </g>
    </g>
    <g id="text_20">
     <!-- Colony forming units per 100mL -->
     <g style="fill:#262626;" transform="translate(77.664375 399.9425)rotate(-90)scale(0.16 -0.16)">
      <defs>
       <path d="M 58.796875 25.09375 
L 68.265625 22.703125 
Q 65.28125 11.03125 57.546875 4.90625 
Q 49.8125 -1.21875 38.625 -1.21875 
Q 27.046875 -1.21875 19.796875 3.484375 
Q 12.546875 8.203125 8.765625 17.140625 
Q 4.984375 26.078125 4.984375 36.328125 
Q 4.984375 47.515625 9.25 55.828125 
Q 13.53125 64.15625 21.40625 68.46875 
Q 29.296875 72.796875 38.765625 72.796875 
Q 49.515625 72.796875 56.828125 67.328125 
Q 64.15625 61.859375 67.046875 51.953125 
L 57.71875 49.75 
Q 55.21875 57.5625 50.484375 61.125 
Q 45.75 64.703125 38.578125 64.703125 
Q 30.328125 64.703125 24.78125 60.734375 
Q 19.234375 56.78125 16.984375 50.109375 
Q 14.75 43.453125 14.75 36.375 
Q 14.75 27.25 17.40625 20.4375 
Q 20.0625 13.625 25.671875 10.25 
Q 31.296875 6.890625 37.84375 6.890625 
Q 45.796875 6.890625 51.3125 11.46875 
Q 56.84375 16.0625 58.796875 25.09375 
z
" id="ArialMT-67"/>
       <path d="M 6.203125 -19.96875 
L 5.21875 -11.71875 
Q 8.109375 -12.5 10.25 -12.5 
Q 13.1875 -12.5 14.9375 -11.515625 
Q 16.703125 -10.546875 17.828125 -8.796875 
Q 18.65625 -7.46875 20.515625 -2.25 
Q 20.75 -1.515625 21.296875 -0.09375 
L 1.609375 51.859375 
L 11.078125 51.859375 
L 21.875 21.828125 
Q 23.96875 16.109375 25.640625 9.8125 
Q 27.15625 15.875 29.25 21.625 
L 40.328125 51.859375 
L 49.125 51.859375 
L 29.390625 -0.875 
Q 26.21875 -9.421875 24.46875 -12.640625 
Q 22.125 -17 19.09375 -19.015625 
Q 16.0625 -21.046875 11.859375 -21.046875 
Q 9.328125 -21.046875 6.203125 -19.96875 
z
" id="ArialMT-121"/>
       <path d="M 4.984375 -4.296875 
L 13.53125 -5.5625 
Q 14.0625 -9.515625 16.5 -11.328125 
Q 19.78125 -13.765625 25.4375 -13.765625 
Q 31.546875 -13.765625 34.859375 -11.328125 
Q 38.1875 -8.890625 39.359375 -4.5 
Q 40.046875 -1.8125 39.984375 6.78125 
Q 34.234375 0 25.640625 0 
Q 14.9375 0 9.078125 7.71875 
Q 3.21875 15.4375 3.21875 26.21875 
Q 3.21875 33.640625 5.90625 39.90625 
Q 8.59375 46.1875 13.6875 49.609375 
Q 18.796875 53.03125 25.6875 53.03125 
Q 34.859375 53.03125 40.828125 45.609375 
L 40.828125 51.859375 
L 48.921875 51.859375 
L 48.921875 7.03125 
Q 48.921875 -5.078125 46.453125 -10.125 
Q 44 -15.1875 38.640625 -18.109375 
Q 33.296875 -21.046875 25.484375 -21.046875 
Q 16.21875 -21.046875 10.5 -16.875 
Q 4.78125 -12.703125 4.984375 -4.296875 
z
M 12.25 26.859375 
Q 12.25 16.65625 16.296875 11.96875 
Q 20.359375 7.28125 26.46875 7.28125 
Q 32.515625 7.28125 36.609375 11.9375 
Q 40.71875 16.609375 40.71875 26.5625 
Q 40.71875 36.078125 36.5 40.90625 
Q 32.28125 45.75 26.3125 45.75 
Q 20.453125 45.75 16.34375 40.984375 
Q 12.25 36.234375 12.25 26.859375 
z
" id="ArialMT-103"/>
       <path d="M 6.59375 -19.875 
L 6.59375 51.859375 
L 14.59375 51.859375 
L 14.59375 45.125 
Q 17.4375 49.078125 21 51.046875 
Q 24.5625 53.03125 29.640625 53.03125 
Q 36.28125 53.03125 41.359375 49.609375 
Q 46.4375 46.1875 49.015625 39.953125 
Q 51.609375 33.734375 51.609375 26.3125 
Q 51.609375 18.359375 48.75 11.984375 
Q 45.90625 5.609375 40.453125 2.21875 
Q 35.015625 -1.171875 29 -1.171875 
Q 24.609375 -1.171875 21.109375 0.6875 
Q 17.625 2.546875 15.375 5.375 
L 15.375 -19.875 
z
M 14.546875 25.640625 
Q 14.546875 15.625 18.59375 10.84375 
Q 22.65625 6.0625 28.421875 6.0625 
Q 34.28125 6.0625 38.453125 11.015625 
Q 42.625 15.96875 42.625 26.375 
Q 42.625 36.28125 38.546875 41.203125 
Q 34.46875 46.140625 28.8125 46.140625 
Q 23.1875 46.140625 18.859375 40.890625 
Q 14.546875 35.640625 14.546875 25.640625 
z
" id="ArialMT-112"/>
       <path d="M 7.328125 0 
L 7.328125 71.578125 
L 16.796875 71.578125 
L 16.796875 8.453125 
L 52.046875 8.453125 
L 52.046875 0 
z
" id="ArialMT-76"/>
      </defs>
      <use xlink:href="#ArialMT-67"/>
      <use x="72.216797" xlink:href="#ArialMT-111"/>
      <use x="127.832031" xlink:href="#ArialMT-108"/>
      <use x="150.048828" xlink:href="#ArialMT-111"/>
      <use x="205.664062" xlink:href="#ArialMT-110"/>
      <use x="261.279297" xlink:href="#ArialMT-121"/>
      <use x="311.279297" xlink:href="#ArialMT-32"/>
      <use x="339.0625" xlink:href="#ArialMT-102"/>
      <use x="366.845703" xlink:href="#ArialMT-111"/>
      <use x="422.460938" xlink:href="#ArialMT-114"/>
      <use x="455.761719" xlink:href="#ArialMT-109"/>
      <use x="539.0625" xlink:href="#ArialMT-105"/>
      <use x="561.279297" xlink:href="#ArialMT-110"/>
      <use x="616.894531" xlink:href="#ArialMT-103"/>
      <use x="672.509766" xlink:href="#ArialMT-32"/>
      <use x="700.292969" xlink:href="#ArialMT-117"/>
      <use x="755.908203" xlink:href="#ArialMT-110"/>
      <use x="811.523438" xlink:href="#ArialMT-105"/>
      <use x="833.740234" xlink:href="#ArialMT-116"/>
      <use x="861.523438" xlink:href="#ArialMT-115"/>
      <use x="911.523438" xlink:href="#ArialMT-32"/>
      <use x="939.306641" xlink:href="#ArialMT-112"/>
      <use x="994.921875" xlink:href="#ArialMT-101"/>
      <use x="1050.537109" xlink:href="#ArialMT-114"/>
      <use x="1083.837891" xlink:href="#ArialMT-32"/>
      <use x="1111.621094" xlink:href="#ArialMT-49"/>
      <use x="1167.236328" xlink:href="#ArialMT-48"/>
      <use x="1222.851562" xlink:href="#ArialMT-48"/>
      <use x="1278.466797" xlink:href="#ArialMT-109"/>
      <use x="1361.767578" xlink:href="#ArialMT-76"/>
     </g>
    </g>
   </g>
   <g id="PathCollection_1"/>
   <g id="PathCollection_2"/>
   <g id="PathCollection_3"/>
   <g id="PathCollection_4"/>
   <g id="PathCollection_5"/>
   <g id="patch_3">
    <path d="M 135 504 
L 135 69.12 
" style="fill:none;stroke:#cccccc;stroke-linecap:square;stroke-linejoin:miter;stroke-width:1.25;"/>
   </g>
   <g id="patch_4">
    <path d="M 972 504 
L 972 69.12 
" style="fill:none;stroke:#cccccc;stroke-linecap:square;stroke-linejoin:miter;stroke-width:1.25;"/>
   </g>
   <g id="patch_5">
    <path d="M 135 504 
L 972 504 
" style="fill:none;stroke:#cccccc;stroke-linecap:square;stroke-linejoin:miter;stroke-width:1.25;"/>
   </g>
   <g id="patch_6">
    <path d="M 135 69.12 
L 972 69.12 
" style="fill:none;stroke:#cccccc;stroke-linecap:square;stroke-linejoin:miter;stroke-width:1.25;"/>
   </g>
   <g id="PathCollection_6">
    <defs>
     <path d="M 0 6 
C 1.591219 6 3.117479 5.367802 4.242641 4.242641 
C 5.367802 3.117479 6 1.591219 6 -0 
C 6 -1.591219 5.367802 -3.117479 4.242641 -4.242641 
C 3.117479 -5.367802 1.591219 -6 0 -6 
C -1.591219 -6 -3.117479 -5.367802 -4.242641 -4.242641 
C -5.367802 -3.117479 -6 -1.591219 -6 0 
C -6 1.591219 -5.367802 3.117479 -4.242641 4.242641 
C -3.117479 5.367802 -1.591219 6 0 6 
z
" id="C0_0_3cd31b8974"/>
    </defs>
    <g clip-path="url(#p0ac288730f)">
     <use style="fill:#000a9c;fill-opacity:0.8;stroke:#ffffff;stroke-opacity:0.8;" x="173.328869" xlink:href="#C0_0_3cd31b8974" y="465.70088"/>
    </g>
    <g clip-path="url(#p0ac288730f)">
     <use style="fill:#5b0094;fill-opacity:0.8;stroke:#ffffff;stroke-opacity:0.8;" x="170.870696" xlink:href="#C0_0_3cd31b8974" y="484.232727"/>
    </g>
    <g clip-path="url(#p0ac288730f)">
     <use style="fill:#5b0094;fill-opacity:0.8;stroke:#ffffff;stroke-opacity:0.8;" x="166.228722" xlink:href="#C0_0_3cd31b8974" y="440.992368"/>
    </g>
    <g clip-path="url(#p0ac288730f)">
     <use style="fill:#5b0094;fill-opacity:0.8;stroke:#ffffff;stroke-opacity:0.8;" x="164.962564" xlink:href="#C0_0_3cd31b8974" y="484.232727"/>
    </g>
    <g clip-path="url(#p0ac288730f)">
     <use style="fill:#68dffc;fill-opacity:0.8;stroke:#ffffff;stroke-opacity:0.8;" x="165.410696" xlink:href="#C0_0_3cd31b8974" y="484.232727"/>
    </g>
    <g clip-path="url(#p0ac288730f)">
     <use style="fill:#68dffc;fill-opacity:0.8;stroke:#ffffff;stroke-opacity:0.8;" x="162.311104" xlink:href="#C0_0_3cd31b8974" y="440.992368"/>
    </g>
    <g clip-path="url(#p0ac288730f)">
     <use style="fill:#68dffc;fill-opacity:0.8;stroke:#ffffff;stroke-opacity:0.8;" x="167.243036" xlink:href="#C0_0_3cd31b8974" y="471.877545"/>
    </g>
    <g clip-path="url(#p0ac288730f)">
     <use style="fill:#4275ff;fill-opacity:0.8;stroke:#ffffff;stroke-opacity:0.8;" x="172.746963" xlink:href="#C0_0_3cd31b8974" y="391.573492"/>
    </g>
    <g clip-path="url(#p0ac288730f)">
     <use style="fill:#c973ff;fill-opacity:0.8;stroke:#ffffff;stroke-opacity:0.8;" x="168.378042" xlink:href="#C0_0_3cd31b8974" y="484.232727"/>
    </g>
    <g clip-path="url(#p0ac288730f)">
     <use style="fill:#c973ff;fill-opacity:0.8;stroke:#ffffff;stroke-opacity:0.8;" x="163.890283" xlink:href="#C0_0_3cd31b8974" y="88.887273"/>
    </g>
    <g clip-path="url(#p0ac288730f)">
     <use style="fill:#c973ff;fill-opacity:0.8;stroke:#ffffff;stroke-opacity:0.8;" x="172.832474" xlink:href="#C0_0_3cd31b8974" y="484.232727"/>
    </g>
   </g>
   <g id="PathCollection_7">
    <defs>
     <path d="M 0 6 
C 1.591219 6 3.117479 5.367802 4.242641 4.242641 
C 5.367802 3.117479 6 1.591219 6 -0 
C 6 -1.591219 5.367802 -3.117479 4.242641 -4.242641 
C 3.117479 -5.367802 1.591219 -6 0 -6 
C -1.591219 -6 -3.117479 -5.367802 -4.242641 -4.242641 
C -5.367802 -3.117479 -6 -1.591219 -6 0 
C -6 1.591219 -5.367802 3.117479 -4.242641 4.242641 
C -3.117479 5.367802 -1.591219 6 0 6 
z
" id="C1_0_1b35c48bd3"/>
    </defs>
    <g clip-path="url(#p0ac288730f)">
     <use style="fill:#000a9c;fill-opacity:0.8;stroke:#ffffff;stroke-opacity:0.8;" x="237.64728" xlink:href="#C1_0_1b35c48bd3" y="422.460521"/>
    </g>
    <g clip-path="url(#p0ac288730f)">
     <use style="fill:#4275ff;fill-opacity:0.8;stroke:#ffffff;stroke-opacity:0.8;" x="229.312738" xlink:href="#C1_0_1b35c48bd3" y="437.903109"/>
    </g>
   </g>
   <g id="PathCollection_8">
    <defs>
     <path d="M 0 6 
C 1.591219 6 3.117479 5.367802 4.242641 4.242641 
C 5.367802 3.117479 6 1.591219 6 -0 
C 6 -1.591219 5.367802 -3.117479 4.242641 -4.242641 
C 3.117479 -5.367802 1.591219 -6 0 -6 
C -1.591219 -6 -3.117479 -5.367802 -4.242641 -4.242641 
C -5.367802 -3.117479 -6 -1.591219 -6 0 
C -6 1.591219 -5.367802 3.117479 -4.242641 4.242641 
C -3.117479 5.367802 -1.591219 6 0 6 
z
" id="C2_0_ef367c8ec1"/>
    </defs>
    <g clip-path="url(#p0ac288730f)">
     <use style="fill:#000a9c;fill-opacity:0.8;stroke:#ffffff;stroke-opacity:0.8;" x="300.778339" xlink:href="#C2_0_ef367c8ec1" y="467.244583"/>
    </g>
    <g clip-path="url(#p0ac288730f)">
     <use style="fill:#4275ff;fill-opacity:0.8;stroke:#ffffff;stroke-opacity:0.8;" x="294.883186" xlink:href="#C2_0_ef367c8ec1" y="442.536071"/>
    </g>
   </g>
   <g id="PathCollection_9">
    <defs>
     <path d="M 0 6 
C 1.591219 6 3.117479 5.367802 4.242641 4.242641 
C 5.367802 3.117479 6 1.591219 6 -0 
C 6 -1.591219 5.367802 -3.117479 4.242641 -4.242641 
C 3.117479 -5.367802 1.591219 -6 0 -6 
C -1.591219 -6 -3.117479 -5.367802 -4.242641 -4.242641 
C -5.367802 -3.117479 -6 -1.591219 -6 0 
C -6 1.591219 -5.367802 3.117479 -4.242641 4.242641 
C -3.117479 5.367802 -1.591219 6 0 6 
z
" id="C3_0_9283327e84"/>
    </defs>
    <g clip-path="url(#p0ac288730f)">
     <use style="fill:#000a9c;fill-opacity:0.8;stroke:#ffffff;stroke-opacity:0.8;" x="365.159978" xlink:href="#C3_0_9283327e84" y="433.270148"/>
    </g>
    <g clip-path="url(#p0ac288730f)">
     <use style="fill:#4275ff;fill-opacity:0.8;stroke:#ffffff;stroke-opacity:0.8;" x="364.792324" xlink:href="#C3_0_9283327e84" y="439.446812"/>
    </g>
   </g>
   <g id="PathCollection_10">
    <defs>
     <path d="M 0 6 
C 1.591219 6 3.117479 5.367802 4.242641 4.242641 
C 5.367802 3.117479 6 1.591219 6 -0 
C 6 -1.591219 5.367802 -3.117479 4.242641 -4.242641 
C 3.117479 -5.367802 1.591219 -6 0 -6 
C -1.591219 -6 -3.117479 -5.367802 -4.242641 -4.242641 
C -5.367802 -3.117479 -6 -1.591219 -6 0 
C -6 1.591219 -5.367802 3.117479 -4.242641 4.242641 
C -3.117479 5.367802 -1.591219 6 0 6 
z
" id="C4_0_1829cbd5f1"/>
    </defs>
    <g clip-path="url(#p0ac288730f)">
     <use style="fill:#5b0094;fill-opacity:0.8;stroke:#ffffff;stroke-opacity:0.8;" x="428.106135" xlink:href="#C4_0_1829cbd5f1" y="369.952386"/>
    </g>
    <g clip-path="url(#p0ac288730f)">
     <use style="fill:#68dffc;fill-opacity:0.8;stroke:#ffffff;stroke-opacity:0.8;" x="427.953008" xlink:href="#C4_0_1829cbd5f1" y="369.952386"/>
    </g>
    <g clip-path="url(#p0ac288730f)">
     <use style="fill:#c973ff;fill-opacity:0.8;stroke:#ffffff;stroke-opacity:0.8;" x="428.654086" xlink:href="#C4_0_1829cbd5f1" y="424.004224"/>
    </g>
   </g>
   <g id="PathCollection_11">
    <defs>
     <path d="M 0 6 
C 1.591219 6 3.117479 5.367802 4.242641 4.242641 
C 5.367802 3.117479 6 1.591219 6 -0 
C 6 -1.591219 5.367802 -3.117479 4.242641 -4.242641 
C 3.117479 -5.367802 1.591219 -6 0 -6 
C -1.591219 -6 -3.117479 -5.367802 -4.242641 -4.242641 
C -5.367802 -3.117479 -6 -1.591219 -6 0 
C -6 1.591219 -5.367802 3.117479 -4.242641 4.242641 
C -3.117479 5.367802 -1.591219 6 0 6 
z
" id="C5_0_e17435f971"/>
    </defs>
    <g clip-path="url(#p0ac288730f)">
     <use style="fill:#000a9c;fill-opacity:0.8;stroke:#ffffff;stroke-opacity:0.8;" x="491.162934" xlink:href="#C5_0_e17435f971" y="292.737591"/>
    </g>
    <g clip-path="url(#p0ac288730f)">
     <use style="fill:#4275ff;fill-opacity:0.8;stroke:#ffffff;stroke-opacity:0.8;" x="482.901948" xlink:href="#C5_0_e17435f971" y="424.004224"/>
    </g>
   </g>
   <g id="PathCollection_12">
    <defs>
     <path d="M 0 6 
C 1.591219 6 3.117479 5.367802 4.242641 4.242641 
C 5.367802 3.117479 6 1.591219 6 -0 
C 6 -1.591219 5.367802 -3.117479 4.242641 -4.242641 
C 3.117479 -5.367802 1.591219 -6 0 -6 
C -1.591219 -6 -3.117479 -5.367802 -4.242641 -4.242641 
C -5.367802 -3.117479 -6 -1.591219 -6 0 
C -6 1.591219 -5.367802 3.117479 -4.242641 4.242641 
C -3.117479 5.367802 -1.591219 6 0 6 
z
" id="C6_0_e5bf2fcb0c"/>
    </defs>
    <g clip-path="url(#p0ac288730f)">
     <use style="fill:#000a9c;fill-opacity:0.8;stroke:#ffffff;stroke-opacity:0.8;" x="557.046569" xlink:href="#C6_0_e5bf2fcb0c" y="440.992368"/>
    </g>
    <g clip-path="url(#p0ac288730f)">
     <use style="fill:#4275ff;fill-opacity:0.8;stroke:#ffffff;stroke-opacity:0.8;" x="558.30949" xlink:href="#C6_0_e5bf2fcb0c" y="410.105339"/>
    </g>
   </g>
   <g id="PathCollection_13">
    <defs>
     <path d="M 0 6 
C 1.591219 6 3.117479 5.367802 4.242641 4.242641 
C 5.367802 3.117479 6 1.591219 6 -0 
C 6 -1.591219 5.367802 -3.117479 4.242641 -4.242641 
C 3.117479 -5.367802 1.591219 -6 0 -6 
C -1.591219 -6 -3.117479 -5.367802 -4.242641 -4.242641 
C -5.367802 -3.117479 -6 -1.591219 -6 0 
C -6 1.591219 -5.367802 3.117479 -4.242641 4.242641 
C -3.117479 5.367802 -1.591219 6 0 6 
z
" id="C7_0_a44c410418"/>
    </defs>
    <g clip-path="url(#p0ac288730f)">
     <use style="fill:#5b0094;fill-opacity:0.8;stroke:#ffffff;stroke-opacity:0.8;" x="616.30367" xlink:href="#C7_0_a44c410418" y="482.689024"/>
    </g>
    <g clip-path="url(#p0ac288730f)">
     <use style="fill:#68dffc;fill-opacity:0.8;stroke:#ffffff;stroke-opacity:0.8;" x="615.608214" xlink:href="#C7_0_a44c410418" y="481.143468"/>
    </g>
    <g clip-path="url(#p0ac288730f)">
     <use style="fill:#c973ff;fill-opacity:0.8;stroke:#ffffff;stroke-opacity:0.8;" x="616.034198" xlink:href="#C7_0_a44c410418" y="479.599765"/>
    </g>
   </g>
   <g id="PathCollection_14">
    <defs>
     <path d="M 0 6 
C 1.591219 6 3.117479 5.367802 4.242641 4.242641 
C 5.367802 3.117479 6 1.591219 6 -0 
C 6 -1.591219 5.367802 -3.117479 4.242641 -4.242641 
C 3.117479 -5.367802 1.591219 -6 0 -6 
C -1.591219 -6 -3.117479 -5.367802 -4.242641 -4.242641 
C -5.367802 -3.117479 -6 -1.591219 -6 0 
C -6 1.591219 -5.367802 3.117479 -4.242641 4.242641 
C -3.117479 5.367802 -1.591219 6 0 6 
z
" id="C8_0_ed07f22866"/>
    </defs>
    <g clip-path="url(#p0ac288730f)">
     <use style="fill:#000a9c;fill-opacity:0.8;stroke:#ffffff;stroke-opacity:0.8;" x="687.492363" xlink:href="#C8_0_ed07f22866" y="227.876126"/>
    </g>
    <g clip-path="url(#p0ac288730f)">
     <use style="fill:#4275ff;fill-opacity:0.8;stroke:#ffffff;stroke-opacity:0.8;" x="680.894395" xlink:href="#C8_0_ed07f22866" y="303.547218"/>
    </g>
   </g>
   <g id="PathCollection_15">
    <defs>
     <path d="M 0 6 
C 1.591219 6 3.117479 5.367802 4.242641 4.242641 
C 5.367802 3.117479 6 1.591219 6 -0 
C 6 -1.591219 5.367802 -3.117479 4.242641 -4.242641 
C 3.117479 -5.367802 1.591219 -6 0 -6 
C -1.591219 -6 -3.117479 -5.367802 -4.242641 -4.242641 
C -5.367802 -3.117479 -6 -1.591219 -6 0 
C -6 1.591219 -5.367802 3.117479 -4.242641 4.242641 
C -3.117479 5.367802 -1.591219 6 0 6 
z
" id="C9_0_c9c3bc7ac3"/>
    </defs>
    <g clip-path="url(#p0ac288730f)">
     <use style="fill:#5b0094;fill-opacity:0.8;stroke:#ffffff;stroke-opacity:0.8;" x="747.493048" xlink:href="#C9_0_c9c3bc7ac3" y="468.790139"/>
    </g>
    <g clip-path="url(#p0ac288730f)">
     <use style="fill:#68dffc;fill-opacity:0.8;stroke:#ffffff;stroke-opacity:0.8;" x="743.799988" xlink:href="#C9_0_c9c3bc7ac3" y="470.333842"/>
    </g>
    <g clip-path="url(#p0ac288730f)">
     <use style="fill:#c973ff;fill-opacity:0.8;stroke:#ffffff;stroke-opacity:0.8;" x="745.048711" xlink:href="#C9_0_c9c3bc7ac3" y="464.157177"/>
    </g>
   </g>
   <g id="PathCollection_16">
    <defs>
     <path d="M 0 6 
C 1.591219 6 3.117479 5.367802 4.242641 4.242641 
C 5.367802 3.117479 6 1.591219 6 -0 
C 6 -1.591219 5.367802 -3.117479 4.242641 -4.242641 
C 3.117479 -5.367802 1.591219 -6 0 -6 
C -1.591219 -6 -3.117479 -5.367802 -4.242641 -4.242641 
C -5.367802 -3.117479 -6 -1.591219 -6 0 
C -6 1.591219 -5.367802 3.117479 -4.242641 4.242641 
C -3.117479 5.367802 -1.591219 6 0 6 
z
" id="Ca_0_e2a69e69d4"/>
    </defs>
    <g clip-path="url(#p0ac288730f)">
     <use style="fill:#5b0094;fill-opacity:0.8;stroke:#ffffff;stroke-opacity:0.8;" x="811.785716" xlink:href="#Ca_0_e2a69e69d4" y="484.232727"/>
    </g>
    <g clip-path="url(#p0ac288730f)">
     <use style="fill:#68dffc;fill-opacity:0.8;stroke:#ffffff;stroke-opacity:0.8;" x="805.147754" xlink:href="#Ca_0_e2a69e69d4" y="482.689024"/>
    </g>
    <g clip-path="url(#p0ac288730f)">
     <use style="fill:#c973ff;fill-opacity:0.8;stroke:#ffffff;stroke-opacity:0.8;" x="810.007177" xlink:href="#Ca_0_e2a69e69d4" y="484.232727"/>
    </g>
   </g>
   <g id="PathCollection_17">
    <defs>
     <path d="M 0 6 
C 1.591219 6 3.117479 5.367802 4.242641 4.242641 
C 5.367802 3.117479 6 1.591219 6 -0 
C 6 -1.591219 5.367802 -3.117479 4.242641 -4.242641 
C 3.117479 -5.367802 1.591219 -6 0 -6 
C -1.591219 -6 -3.117479 -5.367802 -4.242641 -4.242641 
C -5.367802 -3.117479 -6 -1.591219 -6 0 
C -6 1.591219 -5.367802 3.117479 -4.242641 4.242641 
C -3.117479 5.367802 -1.591219 6 0 6 
z
" id="Cb_0_cb629b3be2"/>
    </defs>
    <g clip-path="url(#p0ac288730f)">
     <use style="fill:#000a9c;fill-opacity:0.8;stroke:#ffffff;stroke-opacity:0.8;" x="869.987421" xlink:href="#Cb_0_cb629b3be2" y="468.790139"/>
    </g>
    <g clip-path="url(#p0ac288730f)">
     <use style="fill:#4275ff;fill-opacity:0.8;stroke:#ffffff;stroke-opacity:0.8;" x="874.312257" xlink:href="#Cb_0_cb629b3be2" y="471.877545"/>
    </g>
   </g>
   <g id="PathCollection_18">
    <defs>
     <path d="M 0 6 
C 1.591219 6 3.117479 5.367802 4.242641 4.242641 
C 5.367802 3.117479 6 1.591219 6 -0 
C 6 -1.591219 5.367802 -3.117479 4.242641 -4.242641 
C 3.117479 -5.367802 1.591219 -6 0 -6 
C -1.591219 -6 -3.117479 -5.367802 -4.242641 -4.242641 
C -5.367802 -3.117479 -6 -1.591219 -6 0 
C -6 1.591219 -5.367802 3.117479 -4.242641 4.242641 
C -3.117479 5.367802 -1.591219 6 0 6 
z
" id="Cc_0_6cb5ad44b5"/>
    </defs>
    <g clip-path="url(#p0ac288730f)">
     <use style="fill:#5b0094;fill-opacity:0.8;stroke:#ffffff;stroke-opacity:0.8;" x="944.90427" xlink:href="#Cc_0_6cb5ad44b5" y="482.689024"/>
    </g>
    <g clip-path="url(#p0ac288730f)">
     <use style="fill:#68dffc;fill-opacity:0.8;stroke:#ffffff;stroke-opacity:0.8;" x="940.503806" xlink:href="#Cc_0_6cb5ad44b5" y="482.689024"/>
    </g>
    <g clip-path="url(#p0ac288730f)">
     <use style="fill:#c973ff;fill-opacity:0.8;stroke:#ffffff;stroke-opacity:0.8;" x="938.726092" xlink:href="#Cc_0_6cb5ad44b5" y="481.143468"/>
    </g>
   </g>
   <g id="text_21">
    <!-- Grouped by 72 hours rainfall total and colony color -->
    <g style="fill:#262626;" transform="translate(374.74 50.0736)scale(0.16 -0.16)">
     <defs>
      <path d="M 41.21875 28.078125 
L 41.21875 36.46875 
L 71.53125 36.53125 
L 71.53125 9.96875 
Q 64.546875 4.390625 57.125 1.578125 
Q 49.703125 -1.21875 41.890625 -1.21875 
Q 31.34375 -1.21875 22.71875 3.296875 
Q 14.109375 7.8125 9.71875 16.359375 
Q 5.328125 24.90625 5.328125 35.453125 
Q 5.328125 45.90625 9.6875 54.953125 
Q 14.0625 64.015625 22.265625 68.40625 
Q 30.46875 72.796875 41.15625 72.796875 
Q 48.921875 72.796875 55.1875 70.28125 
Q 61.46875 67.78125 65.03125 63.28125 
Q 68.609375 58.796875 70.453125 51.5625 
L 61.921875 49.21875 
Q 60.296875 54.6875 57.90625 57.8125 
Q 55.515625 60.9375 51.0625 62.8125 
Q 46.625 64.703125 41.21875 64.703125 
Q 34.71875 64.703125 29.984375 62.71875 
Q 25.25 60.75 22.34375 57.515625 
Q 19.4375 54.296875 17.828125 50.4375 
Q 15.09375 43.796875 15.09375 36.03125 
Q 15.09375 26.46875 18.390625 20.015625 
Q 21.6875 13.578125 27.984375 10.453125 
Q 34.28125 7.328125 41.359375 7.328125 
Q 47.515625 7.328125 53.375 9.6875 
Q 59.234375 12.0625 62.25 14.75 
L 62.25 28.078125 
z
" id="ArialMT-71"/>
      <path d="M 14.703125 0 
L 6.546875 0 
L 6.546875 71.578125 
L 15.328125 71.578125 
L 15.328125 46.046875 
Q 20.90625 53.03125 29.546875 53.03125 
Q 34.328125 53.03125 38.59375 51.09375 
Q 42.875 49.171875 45.625 45.671875 
Q 48.390625 42.1875 49.953125 37.25 
Q 51.515625 32.328125 51.515625 26.703125 
Q 51.515625 13.375 44.921875 6.09375 
Q 38.328125 -1.171875 29.109375 -1.171875 
Q 19.921875 -1.171875 14.703125 6.5 
z
M 14.59375 26.3125 
Q 14.59375 17 17.140625 12.84375 
Q 21.296875 6.0625 28.375 6.0625 
Q 34.125 6.0625 38.328125 11.0625 
Q 42.53125 16.0625 42.53125 25.984375 
Q 42.53125 36.140625 38.5 40.96875 
Q 34.46875 45.796875 28.765625 45.796875 
Q 23 45.796875 18.796875 40.796875 
Q 14.59375 35.796875 14.59375 26.3125 
z
" id="ArialMT-98"/>
      <path d="M 40.4375 19 
L 49.078125 17.875 
Q 47.65625 8.9375 41.8125 3.875 
Q 35.984375 -1.171875 27.484375 -1.171875 
Q 16.84375 -1.171875 10.375 5.78125 
Q 3.90625 12.75 3.90625 25.734375 
Q 3.90625 34.125 6.6875 40.421875 
Q 9.46875 46.734375 15.15625 49.875 
Q 20.84375 53.03125 27.546875 53.03125 
Q 35.984375 53.03125 41.359375 48.75 
Q 46.734375 44.484375 48.25 36.625 
L 39.703125 35.296875 
Q 38.484375 40.53125 35.375 43.15625 
Q 32.28125 45.796875 27.875 45.796875 
Q 21.234375 45.796875 17.078125 41.03125 
Q 12.9375 36.28125 12.9375 25.984375 
Q 12.9375 15.53125 16.9375 10.796875 
Q 20.953125 6.0625 27.390625 6.0625 
Q 32.5625 6.0625 36.03125 9.234375 
Q 39.5 12.40625 40.4375 19 
z
" id="ArialMT-99"/>
     </defs>
     <use xlink:href="#ArialMT-71"/>
     <use x="77.783203" xlink:href="#ArialMT-114"/>
     <use x="111.083984" xlink:href="#ArialMT-111"/>
     <use x="166.699219" xlink:href="#ArialMT-117"/>
     <use x="222.314453" xlink:href="#ArialMT-112"/>
     <use x="277.929688" xlink:href="#ArialMT-101"/>
     <use x="333.544922" xlink:href="#ArialMT-100"/>
     <use x="389.160156" xlink:href="#ArialMT-32"/>
     <use x="416.943359" xlink:href="#ArialMT-98"/>
     <use x="472.558594" xlink:href="#ArialMT-121"/>
     <use x="522.558594" xlink:href="#ArialMT-32"/>
     <use x="550.341797" xlink:href="#ArialMT-55"/>
     <use x="605.957031" xlink:href="#ArialMT-50"/>
     <use x="661.572266" xlink:href="#ArialMT-32"/>
     <use x="689.355469" xlink:href="#ArialMT-104"/>
     <use x="744.970703" xlink:href="#ArialMT-111"/>
     <use x="800.585938" xlink:href="#ArialMT-117"/>
     <use x="856.201172" xlink:href="#ArialMT-114"/>
     <use x="889.501953" xlink:href="#ArialMT-115"/>
     <use x="939.501953" xlink:href="#ArialMT-32"/>
     <use x="967.285156" xlink:href="#ArialMT-114"/>
     <use x="1000.585938" xlink:href="#ArialMT-97"/>
     <use x="1056.201172" xlink:href="#ArialMT-105"/>
     <use x="1078.417969" xlink:href="#ArialMT-110"/>
     <use x="1134.033203" xlink:href="#ArialMT-102"/>
     <use x="1161.816406" xlink:href="#ArialMT-97"/>
     <use x="1217.431641" xlink:href="#ArialMT-108"/>
     <use x="1239.648438" xlink:href="#ArialMT-108"/>
     <use x="1261.865234" xlink:href="#ArialMT-32"/>
     <use x="1289.648438" xlink:href="#ArialMT-116"/>
     <use x="1317.431641" xlink:href="#ArialMT-111"/>
     <use x="1373.046875" xlink:href="#ArialMT-116"/>
     <use x="1400.830078" xlink:href="#ArialMT-97"/>
     <use x="1456.445312" xlink:href="#ArialMT-108"/>
     <use x="1478.662109" xlink:href="#ArialMT-32"/>
     <use x="1506.445312" xlink:href="#ArialMT-97"/>
     <use x="1562.060547" xlink:href="#ArialMT-110"/>
     <use x="1617.675781" xlink:href="#ArialMT-100"/>
     <use x="1673.291016" xlink:href="#ArialMT-32"/>
     <use x="1701.074219" xlink:href="#ArialMT-99"/>
     <use x="1751.074219" xlink:href="#ArialMT-111"/>
     <use x="1806.689453" xlink:href="#ArialMT-108"/>
     <use x="1828.90625" xlink:href="#ArialMT-111"/>
     <use x="1884.521484" xlink:href="#ArialMT-110"/>
     <use x="1940.136719" xlink:href="#ArialMT-121"/>
     <use x="1990.136719" xlink:href="#ArialMT-32"/>
     <use x="2017.919922" xlink:href="#ArialMT-99"/>
     <use x="2067.919922" xlink:href="#ArialMT-111"/>
     <use x="2123.535156" xlink:href="#ArialMT-108"/>
     <use x="2145.751953" xlink:href="#ArialMT-111"/>
     <use x="2201.367188" xlink:href="#ArialMT-114"/>
    </g>
   </g>
   <g id="legend_1">
    <g id="patch_7">
     <path d="M 793.276875 179.337188 
L 962.2 179.337188 
Q 965 179.337188 965 176.537188 
L 965 78.92 
Q 965 76.12 962.2 76.12 
L 793.276875 76.12 
Q 790.476875 76.12 790.476875 78.92 
L 790.476875 176.537188 
Q 790.476875 179.337188 793.276875 179.337188 
z
" style="fill:#ffffff;opacity:0.8;stroke:#cccccc;stroke-linejoin:miter;"/>
    </g>
    <g id="PathCollection_19">
     <defs>
      <path d="M 0 3.872983 
C 1.027127 3.872983 2.012324 3.464901 2.738613 2.738613 
C 3.464901 2.012324 3.872983 1.027127 3.872983 0 
C 3.872983 -1.027127 3.464901 -2.012324 2.738613 -2.738613 
C 2.012324 -3.464901 1.027127 -3.872983 0 -3.872983 
C -1.027127 -3.872983 -2.012324 -3.464901 -2.738613 -2.738613 
C -3.464901 -2.012324 -3.872983 -1.027127 -3.872983 0 
C -3.872983 1.027127 -3.464901 2.012324 -2.738613 2.738613 
C -2.012324 3.464901 -1.027127 3.872983 0 3.872983 
z
" id="m85b42366a6" style="stroke:#000a9c;"/>
     </defs>
     <g>
      <use style="fill:#000a9c;stroke:#000a9c;" x="810.076875" xlink:href="#m85b42366a6" y="88.065938"/>
     </g>
    </g>
    <g id="text_22">
     <!-- Bioindicator 16 -->
     <g style="fill:#262626;" transform="translate(835.276875 91.740938)scale(0.14 -0.14)">
      <defs>
       <path d="M 7.328125 0 
L 7.328125 71.578125 
L 34.1875 71.578125 
Q 42.390625 71.578125 47.34375 69.40625 
Q 52.296875 67.234375 55.09375 62.71875 
Q 57.90625 58.203125 57.90625 53.265625 
Q 57.90625 48.6875 55.421875 44.625 
Q 52.9375 40.578125 47.90625 38.09375 
Q 54.390625 36.1875 57.875 31.59375 
Q 61.375 27 61.375 20.75 
Q 61.375 15.71875 59.25 11.390625 
Q 57.125 7.078125 54 4.734375 
Q 50.875 2.390625 46.15625 1.1875 
Q 41.453125 0 34.625 0 
z
M 16.796875 41.5 
L 32.28125 41.5 
Q 38.578125 41.5 41.3125 42.328125 
Q 44.921875 43.40625 46.75 45.890625 
Q 48.578125 48.390625 48.578125 52.15625 
Q 48.578125 55.71875 46.875 58.421875 
Q 45.171875 61.140625 41.984375 62.140625 
Q 38.8125 63.140625 31.109375 63.140625 
L 16.796875 63.140625 
z
M 16.796875 8.453125 
L 34.625 8.453125 
Q 39.203125 8.453125 41.0625 8.796875 
Q 44.34375 9.375 46.53125 10.734375 
Q 48.734375 12.109375 50.140625 14.71875 
Q 51.5625 17.328125 51.5625 20.75 
Q 51.5625 24.75 49.515625 27.703125 
Q 47.46875 30.671875 43.828125 31.859375 
Q 40.1875 33.0625 33.34375 33.0625 
L 16.796875 33.0625 
z
" id="ArialMT-66"/>
      </defs>
      <use xlink:href="#ArialMT-66"/>
      <use x="66.699219" xlink:href="#ArialMT-105"/>
      <use x="88.916016" xlink:href="#ArialMT-111"/>
      <use x="144.53125" xlink:href="#ArialMT-105"/>
      <use x="166.748047" xlink:href="#ArialMT-110"/>
      <use x="222.363281" xlink:href="#ArialMT-100"/>
      <use x="277.978516" xlink:href="#ArialMT-105"/>
      <use x="300.195312" xlink:href="#ArialMT-99"/>
      <use x="350.195312" xlink:href="#ArialMT-97"/>
      <use x="405.810547" xlink:href="#ArialMT-116"/>
      <use x="433.59375" xlink:href="#ArialMT-111"/>
      <use x="489.208984" xlink:href="#ArialMT-114"/>
      <use x="522.509766" xlink:href="#ArialMT-32"/>
      <use x="550.292969" xlink:href="#ArialMT-49"/>
      <use x="605.908203" xlink:href="#ArialMT-54"/>
     </g>
    </g>
    <g id="PathCollection_20">
     <defs>
      <path d="M 0 3.872983 
C 1.027127 3.872983 2.012324 3.464901 2.738613 2.738613 
C 3.464901 2.012324 3.872983 1.027127 3.872983 0 
C 3.872983 -1.027127 3.464901 -2.012324 2.738613 -2.738613 
C 2.012324 -3.464901 1.027127 -3.872983 0 -3.872983 
C -1.027127 -3.872983 -2.012324 -3.464901 -2.738613 -2.738613 
C -3.464901 -2.012324 -3.872983 -1.027127 -3.872983 0 
C -3.872983 1.027127 -3.464901 2.012324 -2.738613 2.738613 
C -2.012324 3.464901 -1.027127 3.872983 0 3.872983 
z
" id="m9c1cd8d6eb" style="stroke:#5b0094;"/>
     </defs>
     <g>
      <use style="fill:#5b0094;stroke:#5b0094;" x="810.076875" xlink:href="#m9c1cd8d6eb" y="107.869375"/>
     </g>
    </g>
    <g id="text_23">
     <!-- Bioindicator 17 -->
     <g style="fill:#262626;" transform="translate(835.276875 111.544375)scale(0.14 -0.14)">
      <use xlink:href="#ArialMT-66"/>
      <use x="66.699219" xlink:href="#ArialMT-105"/>
      <use x="88.916016" xlink:href="#ArialMT-111"/>
      <use x="144.53125" xlink:href="#ArialMT-105"/>
      <use x="166.748047" xlink:href="#ArialMT-110"/>
      <use x="222.363281" xlink:href="#ArialMT-100"/>
      <use x="277.978516" xlink:href="#ArialMT-105"/>
      <use x="300.195312" xlink:href="#ArialMT-99"/>
      <use x="350.195312" xlink:href="#ArialMT-97"/>
      <use x="405.810547" xlink:href="#ArialMT-116"/>
      <use x="433.59375" xlink:href="#ArialMT-111"/>
      <use x="489.208984" xlink:href="#ArialMT-114"/>
      <use x="522.509766" xlink:href="#ArialMT-32"/>
      <use x="550.292969" xlink:href="#ArialMT-49"/>
      <use x="605.908203" xlink:href="#ArialMT-55"/>
     </g>
    </g>
    <g id="PathCollection_21">
     <defs>
      <path d="M 0 3.872983 
C 1.027127 3.872983 2.012324 3.464901 2.738613 2.738613 
C 3.464901 2.012324 3.872983 1.027127 3.872983 0 
C 3.872983 -1.027127 3.464901 -2.012324 2.738613 -2.738613 
C 2.012324 -3.464901 1.027127 -3.872983 0 -3.872983 
C -1.027127 -3.872983 -2.012324 -3.464901 -2.738613 -2.738613 
C -3.464901 -2.012324 -3.872983 -1.027127 -3.872983 0 
C -3.872983 1.027127 -3.464901 2.012324 -2.738613 2.738613 
C -2.012324 3.464901 -1.027127 3.872983 0 3.872983 
z
" id="m76e74dd6f6" style="stroke:#68dffc;"/>
     </defs>
     <g>
      <use style="fill:#68dffc;stroke:#68dffc;" x="810.076875" xlink:href="#m76e74dd6f6" y="127.672813"/>
     </g>
    </g>
    <g id="text_24">
     <!-- Bioindicator UV+ 17 -->
     <g style="fill:#262626;" transform="translate(835.276875 131.347813)scale(0.14 -0.14)">
      <defs>
       <path d="M 54.6875 71.578125 
L 64.15625 71.578125 
L 64.15625 30.21875 
Q 64.15625 19.4375 61.71875 13.078125 
Q 59.28125 6.734375 52.90625 2.75 
Q 46.53125 -1.21875 36.1875 -1.21875 
Q 26.125 -1.21875 19.71875 2.25 
Q 13.328125 5.71875 10.59375 12.28125 
Q 7.859375 18.84375 7.859375 30.21875 
L 7.859375 71.578125 
L 17.328125 71.578125 
L 17.328125 30.28125 
Q 17.328125 20.953125 19.0625 16.53125 
Q 20.796875 12.109375 25.015625 9.71875 
Q 29.25 7.328125 35.359375 7.328125 
Q 45.796875 7.328125 50.234375 12.0625 
Q 54.6875 16.796875 54.6875 30.28125 
z
" id="ArialMT-85"/>
       <path d="M 28.171875 0 
L 0.4375 71.578125 
L 10.6875 71.578125 
L 29.296875 19.578125 
Q 31.546875 13.328125 33.0625 7.859375 
Q 34.71875 13.71875 36.921875 19.578125 
L 56.25 71.578125 
L 65.921875 71.578125 
L 37.890625 0 
z
" id="ArialMT-86"/>
       <path d="M 25.046875 11.578125 
L 25.046875 31.203125 
L 5.5625 31.203125 
L 5.5625 39.40625 
L 25.046875 39.40625 
L 25.046875 58.890625 
L 33.34375 58.890625 
L 33.34375 39.40625 
L 52.828125 39.40625 
L 52.828125 31.203125 
L 33.34375 31.203125 
L 33.34375 11.578125 
z
" id="ArialMT-43"/>
      </defs>
      <use xlink:href="#ArialMT-66"/>
      <use x="66.699219" xlink:href="#ArialMT-105"/>
      <use x="88.916016" xlink:href="#ArialMT-111"/>
      <use x="144.53125" xlink:href="#ArialMT-105"/>
      <use x="166.748047" xlink:href="#ArialMT-110"/>
      <use x="222.363281" xlink:href="#ArialMT-100"/>
      <use x="277.978516" xlink:href="#ArialMT-105"/>
      <use x="300.195312" xlink:href="#ArialMT-99"/>
      <use x="350.195312" xlink:href="#ArialMT-97"/>
      <use x="405.810547" xlink:href="#ArialMT-116"/>
      <use x="433.59375" xlink:href="#ArialMT-111"/>
      <use x="489.208984" xlink:href="#ArialMT-114"/>
      <use x="522.509766" xlink:href="#ArialMT-32"/>
      <use x="550.292969" xlink:href="#ArialMT-85"/>
      <use x="622.509766" xlink:href="#ArialMT-86"/>
      <use x="689.208984" xlink:href="#ArialMT-43"/>
      <use x="747.607422" xlink:href="#ArialMT-32"/>
      <use x="775.390625" xlink:href="#ArialMT-49"/>
      <use x="831.005859" xlink:href="#ArialMT-55"/>
     </g>
    </g>
    <g id="PathCollection_22">
     <defs>
      <path d="M 0 3.872983 
C 1.027127 3.872983 2.012324 3.464901 2.738613 2.738613 
C 3.464901 2.012324 3.872983 1.027127 3.872983 0 
C 3.872983 -1.027127 3.464901 -2.012324 2.738613 -2.738613 
C 2.012324 -3.464901 1.027127 -3.872983 0 -3.872983 
C -1.027127 -3.872983 -2.012324 -3.464901 -2.738613 -2.738613 
C -3.464901 -2.012324 -3.872983 -1.027127 -3.872983 0 
C -3.872983 1.027127 -3.464901 2.012324 -2.738613 2.738613 
C -2.012324 3.464901 -1.027127 3.872983 0 3.872983 
z
" id="m75aaa90d0a" style="stroke:#4275ff;"/>
     </defs>
     <g>
      <use style="fill:#4275ff;stroke:#4275ff;" x="810.076875" xlink:href="#m75aaa90d0a" y="147.47625"/>
     </g>
    </g>
    <g id="text_25">
     <!-- Coliform 16 -->
     <g style="fill:#262626;" transform="translate(835.276875 151.15125)scale(0.14 -0.14)">
      <use xlink:href="#ArialMT-67"/>
      <use x="72.216797" xlink:href="#ArialMT-111"/>
      <use x="127.832031" xlink:href="#ArialMT-108"/>
      <use x="150.048828" xlink:href="#ArialMT-105"/>
      <use x="172.265625" xlink:href="#ArialMT-102"/>
      <use x="200.048828" xlink:href="#ArialMT-111"/>
      <use x="255.664062" xlink:href="#ArialMT-114"/>
      <use x="288.964844" xlink:href="#ArialMT-109"/>
      <use x="372.265625" xlink:href="#ArialMT-32"/>
      <use x="400.048828" xlink:href="#ArialMT-49"/>
      <use x="455.664062" xlink:href="#ArialMT-54"/>
     </g>
    </g>
    <g id="PathCollection_23">
     <defs>
      <path d="M 0 3.872983 
C 1.027127 3.872983 2.012324 3.464901 2.738613 2.738613 
C 3.464901 2.012324 3.872983 1.027127 3.872983 0 
C 3.872983 -1.027127 3.464901 -2.012324 2.738613 -2.738613 
C 2.012324 -3.464901 1.027127 -3.872983 0 -3.872983 
C -1.027127 -3.872983 -2.012324 -3.464901 -2.738613 -2.738613 
C -3.464901 -2.012324 -3.872983 -1.027127 -3.872983 0 
C -3.872983 1.027127 -3.464901 2.012324 -2.738613 2.738613 
C -2.012324 3.464901 -1.027127 3.872983 0 3.872983 
z
" id="mb6333147c4" style="stroke:#c973ff;"/>
     </defs>
     <g>
      <use style="fill:#c973ff;stroke:#c973ff;" x="810.076875" xlink:href="#mb6333147c4" y="167.279688"/>
     </g>
    </g>
    <g id="text_26">
     <!-- Coliform 17 -->
     <g style="fill:#262626;" transform="translate(835.276875 170.954688)scale(0.14 -0.14)">
      <use xlink:href="#ArialMT-67"/>
      <use x="72.216797" xlink:href="#ArialMT-111"/>
      <use x="127.832031" xlink:href="#ArialMT-108"/>
      <use x="150.048828" xlink:href="#ArialMT-105"/>
      <use x="172.265625" xlink:href="#ArialMT-102"/>
      <use x="200.048828" xlink:href="#ArialMT-111"/>
      <use x="255.664062" xlink:href="#ArialMT-114"/>
      <use x="288.964844" xlink:href="#ArialMT-109"/>
      <use x="372.265625" xlink:href="#ArialMT-32"/>
      <use x="400.048828" xlink:href="#ArialMT-49"/>
      <use x="455.664062" xlink:href="#ArialMT-55"/>
     </g>
    </g>
   </g>
  </g>
  <g id="text_27">
   <!-- Rainfall and the occurrence of coliform bacteria in laker water -->
   <g style="fill:#262626;" transform="translate(323.0225 22.9725)scale(0.16 -0.16)">
    <defs>
     <path d="M 7.859375 0 
L 7.859375 71.578125 
L 39.59375 71.578125 
Q 49.171875 71.578125 54.140625 69.640625 
Q 59.125 67.71875 62.109375 62.828125 
Q 65.09375 57.953125 65.09375 52.046875 
Q 65.09375 44.4375 60.15625 39.203125 
Q 55.21875 33.984375 44.921875 32.5625 
Q 48.6875 30.765625 50.640625 29 
Q 54.78125 25.203125 58.5 19.484375 
L 70.953125 0 
L 59.03125 0 
L 49.5625 14.890625 
Q 45.40625 21.34375 42.71875 24.75 
Q 40.046875 28.171875 37.921875 29.53125 
Q 35.796875 30.90625 33.59375 31.453125 
Q 31.984375 31.78125 28.328125 31.78125 
L 17.328125 31.78125 
L 17.328125 0 
z
M 17.328125 39.984375 
L 37.703125 39.984375 
Q 44.1875 39.984375 47.84375 41.328125 
Q 51.515625 42.671875 53.421875 45.625 
Q 55.328125 48.578125 55.328125 52.046875 
Q 55.328125 57.125 51.640625 60.390625 
Q 47.953125 63.671875 39.984375 63.671875 
L 17.328125 63.671875 
z
" id="ArialMT-82"/>
     <path d="M 6.640625 0 
L 6.640625 71.578125 
L 15.4375 71.578125 
L 15.4375 30.765625 
L 36.234375 51.859375 
L 47.609375 51.859375 
L 27.78125 32.625 
L 49.609375 0 
L 38.765625 0 
L 21.625 26.515625 
L 15.4375 20.5625 
L 15.4375 0 
z
" id="ArialMT-107"/>
     <path d="M 16.15625 0 
L 0.296875 51.859375 
L 9.375 51.859375 
L 17.625 21.921875 
L 20.703125 10.796875 
Q 20.90625 11.625 23.390625 21.484375 
L 31.640625 51.859375 
L 40.671875 51.859375 
L 48.4375 21.78125 
L 51.03125 11.859375 
L 54 21.875 
L 62.890625 51.859375 
L 71.4375 51.859375 
L 55.21875 0 
L 46.09375 0 
L 37.84375 31.0625 
L 35.84375 39.890625 
L 25.34375 0 
z
" id="ArialMT-119"/>
    </defs>
    <use xlink:href="#ArialMT-82"/>
    <use x="72.216797" xlink:href="#ArialMT-97"/>
    <use x="127.832031" xlink:href="#ArialMT-105"/>
    <use x="150.048828" xlink:href="#ArialMT-110"/>
    <use x="205.664062" xlink:href="#ArialMT-102"/>
    <use x="233.447266" xlink:href="#ArialMT-97"/>
    <use x="289.0625" xlink:href="#ArialMT-108"/>
    <use x="311.279297" xlink:href="#ArialMT-108"/>
    <use x="333.496094" xlink:href="#ArialMT-32"/>
    <use x="361.279297" xlink:href="#ArialMT-97"/>
    <use x="416.894531" xlink:href="#ArialMT-110"/>
    <use x="472.509766" xlink:href="#ArialMT-100"/>
    <use x="528.125" xlink:href="#ArialMT-32"/>
    <use x="555.908203" xlink:href="#ArialMT-116"/>
    <use x="583.691406" xlink:href="#ArialMT-104"/>
    <use x="639.306641" xlink:href="#ArialMT-101"/>
    <use x="694.921875" xlink:href="#ArialMT-32"/>
    <use x="722.705078" xlink:href="#ArialMT-111"/>
    <use x="778.320312" xlink:href="#ArialMT-99"/>
    <use x="828.320312" xlink:href="#ArialMT-99"/>
    <use x="878.320312" xlink:href="#ArialMT-117"/>
    <use x="933.935547" xlink:href="#ArialMT-114"/>
    <use x="967.236328" xlink:href="#ArialMT-114"/>
    <use x="1000.537109" xlink:href="#ArialMT-101"/>
    <use x="1056.152344" xlink:href="#ArialMT-110"/>
    <use x="1111.767578" xlink:href="#ArialMT-99"/>
    <use x="1161.767578" xlink:href="#ArialMT-101"/>
    <use x="1217.382812" xlink:href="#ArialMT-32"/>
    <use x="1245.166016" xlink:href="#ArialMT-111"/>
    <use x="1300.78125" xlink:href="#ArialMT-102"/>
    <use x="1328.564453" xlink:href="#ArialMT-32"/>
    <use x="1356.347656" xlink:href="#ArialMT-99"/>
    <use x="1406.347656" xlink:href="#ArialMT-111"/>
    <use x="1461.962891" xlink:href="#ArialMT-108"/>
    <use x="1484.179688" xlink:href="#ArialMT-105"/>
    <use x="1506.396484" xlink:href="#ArialMT-102"/>
    <use x="1534.179688" xlink:href="#ArialMT-111"/>
    <use x="1589.794922" xlink:href="#ArialMT-114"/>
    <use x="1623.095703" xlink:href="#ArialMT-109"/>
    <use x="1706.396484" xlink:href="#ArialMT-32"/>
    <use x="1734.179688" xlink:href="#ArialMT-98"/>
    <use x="1789.794922" xlink:href="#ArialMT-97"/>
    <use x="1845.410156" xlink:href="#ArialMT-99"/>
    <use x="1895.410156" xlink:href="#ArialMT-116"/>
    <use x="1923.193359" xlink:href="#ArialMT-101"/>
    <use x="1978.808594" xlink:href="#ArialMT-114"/>
    <use x="2012.109375" xlink:href="#ArialMT-105"/>
    <use x="2034.326172" xlink:href="#ArialMT-97"/>
    <use x="2089.941406" xlink:href="#ArialMT-32"/>
    <use x="2117.724609" xlink:href="#ArialMT-105"/>
    <use x="2139.941406" xlink:href="#ArialMT-110"/>
    <use x="2195.556641" xlink:href="#ArialMT-32"/>
    <use x="2223.339844" xlink:href="#ArialMT-108"/>
    <use x="2245.556641" xlink:href="#ArialMT-97"/>
    <use x="2301.171875" xlink:href="#ArialMT-107"/>
    <use x="2351.171875" xlink:href="#ArialMT-101"/>
    <use x="2406.787109" xlink:href="#ArialMT-114"/>
    <use x="2440.087891" xlink:href="#ArialMT-32"/>
    <use x="2467.871094" xlink:href="#ArialMT-119"/>
    <use x="2540.087891" xlink:href="#ArialMT-97"/>
    <use x="2595.703125" xlink:href="#ArialMT-116"/>
    <use x="2623.486328" xlink:href="#ArialMT-101"/>
    <use x="2679.101562" xlink:href="#ArialMT-114"/>
   </g>
  </g>
 </g>
 <defs>
  <clipPath id="p0ac288730f">
   <rect height="434.88" width="837" x="135" y="69.12"/>
  </clipPath>
 </defs>
</svg>
